  0
SECTION
  2
HEADER
  9
$ACADVER
  1
AC1032
  9
$ACADMAINTVER
 90
      155
  9
$DWGCODEPAGE
  3
ANSI_936
  9
$LASTSAVEDBY
  1
Yihua
  9
$REQUIREDVERSIONS
160
                 0
  9
$INSBASE
 10
0.0
 20
0.0
 30
0.0
  9
$EXTMIN
 10
-3200.0
 20
-250.0
 30
0.0
  9
$EXTMAX
 10
14150.0
 20
1400.0
 30
0.0
  9
$LIMMIN
 10
0.0
 20
0.0
  9
$LIMMAX
 10
12.0
 20
9.0
  9
$ORTHOMODE
 70
     0
  9
$REGENMODE
 70
     1
  9
$FILLMODE
 70
     1
  9
$QTEXTMODE
 70
     0
  9
$MIRRTEXT
 70
     0
  9
$LTSCALE
 40
1.0
  9
$ATTMODE
 70
     1
  9
$TEXTSIZE
 40
0.2
  9
$TRACEWID
 40
0.05
  9
$TEXTSTYLE
  7
Standard
  9
$CLAYER
  8
0
  9
$CELTYPE
  6
Continuous
  9
$CECOLOR
 62
   256
  9
$CELTSCALE
 40
1.0
  9
$DISPSILH
 70
     0
  9
$DIMSCALE
 40
1.0
  9
$DIMASZ
 40
0.18
  9
$DIMEXO
 40
0.0625
  9
$DIMDLI
 40
0.38
  9
$DIMRND
 40
0.0
  9
$DIMDLE
 40
0.0
  9
$DIMEXE
 40
0.18
  9
$DIMTP
 40
0.0
  9
$DIMTM
 40
0.0
  9
$DIMTXT
 40
0.18
  9
$DIMCEN
 40
0.09
  9
$DIMTSZ
 40
0.0
  9
$DIMTOL
 70
     0
  9
$DIMLIM
 70
     0
  9
$DIMTIH
 70
     1
  9
$DIMTOH
 70
     1
  9
$DIMSE1
 70
     0
  9
$DIMSE2
 70
     0
  9
$DIMTAD
 70
     0
  9
$DIMZIN
 70
     0
  9
$DIMBLK
  1

  9
$DIMASO
 70
     1
  9
$DIMSHO
 70
     1
  9
$DIMPOST
  1

  9
$DIMAPOST
  1

  9
$DIMALT
 70
     0
  9
$DIMALTD
 70
     2
  9
$DIMALTF
 40
25.4
  9
$DIMLFAC
 40
1.0
  9
$DIMTOFL
 70
     0
  9
$DIMTVP
 40
0.0
  9
$DIMTIX
 70
     0
  9
$DIMSOXD
 70
     0
  9
$DIMSAH
 70
     0
  9
$DIMBLK1
  1

  9
$DIMBLK2
  1

  9
$DIMSTYLE
  2
Standard
  9
$DIMCLRD
 70
     0
  9
$DIMCLRE
 70
     0
  9
$DIMCLRT
 70
     0
  9
$DIMTFAC
 40
1.0
  9
$DIMGAP
 40
0.09
  9
$DIMJUST
 70
     0
  9
$DIMSD1
 70
     0
  9
$DIMSD2
 70
     0
  9
$DIMTOLJ
 70
     1
  9
$DIMTZIN
 70
     0
  9
$DIMALTZ
 70
     0
  9
$DIMALTTZ
 70
     0
  9
$DIMUPT
 70
     0
  9
$DIMDEC
 70
     4
  9
$DIMTDEC
 70
     4
  9
$DIMALTU
 70
     2
  9
$DIMALTTD
 70
     2
  9
$DIMTXSTY
  7
Standard
  9
$DIMAUNIT
 70
     0
  9
$DIMADEC
 70
     0
  9
$DIMALTRND
 40
0.0
  9
$DIMAZIN
 70
     0
  9
$DIMDSEP
 70
    46
  9
$DIMATFIT
 70
     3
  9
$DIMFRAC
 70
     0
  9
$DIMLDRBLK
  1

  9
$DIMLUNIT
 70
     2
  9
$DIMLWD
 70
    -2
  9
$DIMLWE
 70
    -2
  9
$DIMTMOVE
 70
     0
  9
$DIMFXL
 40
1.0
  9
$DIMFXLON
 70
     0
  9
$DIMJOGANG
 40
0.7853981633974483
  9
$DIMTFILL
 70
     0
  9
$DIMTFILLCLR
 70
     0
  9
$DIMARCSYM
 70
     0
  9
$DIMLTYPE
  6

  9
$DIMLTEX1
  6

  9
$DIMLTEX2
  6

  9
$DIMTXTDIRECTION
 70
     0
  9
$LUNITS
 70
     2
  9
$LUPREC
 70
     4
  9
$SKETCHINC
 40
0.1
  9
$FILLETRAD
 40
0.0
  9
$AUNITS
 70
     0
  9
$AUPREC
 70
     0
  9
$MENU
  1
.
  9
$ELEVATION
 40
0.0
  9
$PELEVATION
 40
0.0
  9
$THICKNESS
 40
0.0
  9
$LIMCHECK
 70
     0
  9
$CHAMFERA
 40
0.0
  9
$CHAMFERB
 40
0.0
  9
$CHAMFERC
 40
0.0
  9
$CHAMFERD
 40
0.0
  9
$SKPOLY
 70
     0
  9
$TDCREATE
 40
2459287.509155093
  9
$TDUCREATE
 40
2459287.175821760
  9
$TDUPDATE
 40
2459288.124722222
  9
$TDUUPDATE
 40
2459287.791388889
  9
$TDINDWG
 40
0.0652199074
  9
$TDUSRTIMER
 40
0.0652199074
  9
$USRTIMER
 70
     1
  9
$ANGBASE
 50
0.0
  9
$ANGDIR
 70
     0
  9
$PDMODE
 70
     0
  9
$PDSIZE
 40
0.0
  9
$PLINEWID
 40
0.0
  9
$SPLFRAME
 70
     0
  9
$SPLINETYPE
 70
     6
  9
$SPLINESEGS
 70
     8
  9
$HANDSEED
  5
B07
  9
$SURFTAB1
 70
     6
  9
$SURFTAB2
 70
     6
  9
$SURFTYPE
 70
     6
  9
$SURFU
 70
     6
  9
$SURFV
 70
     6
  9
$UCSBASE
  2

  9
$UCSNAME
  2

  9
$UCSORG
 10
0.0
 20
0.0
 30
0.0
  9
$UCSXDIR
 10
1.0
 20
0.0
 30
0.0
  9
$UCSYDIR
 10
0.0
 20
1.0
 30
0.0
  9
$UCSORTHOREF
  2

  9
$UCSORTHOVIEW
 70
     0
  9
$UCSORGTOP
 10
0.0
 20
0.0
 30
0.0
  9
$UCSORGBOTTOM
 10
0.0
 20
0.0
 30
0.0
  9
$UCSORGLEFT
 10
0.0
 20
0.0
 30
0.0
  9
$UCSORGRIGHT
 10
0.0
 20
0.0
 30
0.0
  9
$UCSORGFRONT
 10
0.0
 20
0.0
 30
0.0
  9
$UCSORGBACK
 10
0.0
 20
0.0
 30
0.0
  9
$PUCSBASE
  2

  9
$PUCSNAME
  2

  9
$PUCSORG
 10
0.0
 20
0.0
 30
0.0
  9
$PUCSXDIR
 10
1.0
 20
0.0
 30
0.0
  9
$PUCSYDIR
 10
0.0
 20
1.0
 30
0.0
  9
$PUCSORTHOREF
  2

  9
$PUCSORTHOVIEW
 70
     0
  9
$PUCSORGTOP
 10
0.0
 20
0.0
 30
0.0
  9
$PUCSORGBOTTOM
 10
0.0
 20
0.0
 30
0.0
  9
$PUCSORGLEFT
 10
0.0
 20
0.0
 30
0.0
  9
$PUCSORGRIGHT
 10
0.0
 20
0.0
 30
0.0
  9
$PUCSORGFRONT
 10
0.0
 20
0.0
 30
0.0
  9
$PUCSORGBACK
 10
0.0
 20
0.0
 30
0.0
  9
$USERI1
 70
     0
  9
$USERI2
 70
     0
  9
$USERI3
 70
     0
  9
$USERI4
 70
     0
  9
$USERI5
 70
     0
  9
$USERR1
 40
0.0
  9
$USERR2
 40
0.0
  9
$USERR3
 40
0.0
  9
$USERR4
 40
0.0
  9
$USERR5
 40
0.0
  9
$WORLDVIEW
 70
     1
  9
$SHADEDGE
 70
     3
  9
$SHADEDIF
 70
    70
  9
$TILEMODE
 70
     0
  9
$MAXACTVP
 70
    64
  9
$PINSBASE
 10
0.0
 20
0.0
 30
0.0
  9
$PLIMCHECK
 70
     0
  9
$PEXTMIN
 10
1.144416701136611
 20
0.8016666324119867
 30
0.0
  9
$PEXTMAX
 10
10.2997503102295
 20
7.21499969170788
 30
0.0
  9
$PLIMMIN
 10
-0.1249995194082185
 20
-0.1249999981226884
  9
$PLIMMAX
 10
11.5691670094888
 20
8.141666444267812
  9
$UNITMODE
 70
     0
  9
$VISRETAIN
 70
     1
  9
$PLINEGEN
 70
     0
  9
$PSLTSCALE
 70
     1
  9
$TREEDEPTH
 70
  3020
  9
$CMLSTYLE
  2
Standard
  9
$CMLJUST
 70
     0
  9
$CMLSCALE
 40
1.0
  9
$PROXYGRAPHICS
 70
     1
  9
$MEASUREMENT
 70
     0
  9
$CELWEIGHT
370
    -1
  9
$ENDCAPS
280
     0
  9
$JOINSTYLE
280
     0
  9
$LWDISPLAY
290
     0
  9
$INSUNITS
 70
     0
  9
$HYPERLINKBASE
  1

  9
$STYLESHEET
  1

  9
$XEDIT
290
     1
  9
$CEPSNTYPE
380
     0
  9
$PSTYLEMODE
290
     1
  9
$FINGERPRINTGUID
  2
{01F0CB8C-79BE-9743-AD97-7002DBD8445B}
  9
$VERSIONGUID
  2
{6006BFE2-379B-F04A-BE19-05C011CEB83B}
  9
$EXTNAMES
290
     1
  9
$PSVPSCALE
 40
0.0
  9
$OLESTARTUP
290
     0
  9
$SORTENTS
280
   127
  9
$INDEXCTL
280
     0
  9
$HIDETEXT
280
     0
  9
$XCLIPFRAME
280
     2
  9
$HALOGAP
280
     0
  9
$OBSCOLOR
 70
   257
  9
$OBSLTYPE
280
     0
  9
$INTERSECTIONDISPLAY
280
     0
  9
$INTERSECTIONCOLOR
 70
   257
  9
$DIMASSOC
280
     1
  9
$PROJECTNAME
  1

  9
$CAMERADISPLAY
290
     0
  9
$LENSLENGTH
 40
50.0
  9
$CAMERAHEIGHT
 40
0.0
  9
$STEPSPERSEC
 40
2.0
  9
$STEPSIZE
 40
6.0
  9
$3DDWFPREC
 40
2.0
  9
$PSOLWIDTH
 40
0.25
  9
$PSOLHEIGHT
 40
4.0
  9
$LOFTANG1
 40
1.570796326794896
  9
$LOFTANG2
 40
1.570796326794896
  9
$LOFTMAG1
 40
0.0
  9
$LOFTMAG2
 40
0.0
  9
$LOFTPARAM
 70
     7
  9
$LOFTNORMALS
280
     1
  9
$LATITUDE
 40
37.795
  9
$LONGITUDE
 40
-122.394
  9
$NORTHDIRECTION
 40
0.0
  9
$TIMEZONE
 70
 -8000
  9
$LIGHTGLYPHDISPLAY
280
     1
  9
$TILEMODELIGHTSYNCH
280
     1
  9
$CMATERIAL
347
11
  9
$SOLIDHIST
280
     0
  9
$SHOWHIST
280
     1
  9
$DWFFRAME
280
     2
  9
$DGNFRAME
280
     0
  9
$REALWORLDSCALE
290
     1
  9
$INTERFERECOLOR
 62
     1
  9
$INTERFEREOBJVS
345
33
  9
$INTERFEREVPVS
346
30
  9
$CSHADOW
280
     0
  9
$SHADOWPLANELOCATION
 40
0.0
  0
ENDSEC
  0
SECTION
  2
CLASSES
  0
CLASS
  1
ACDBDICTIONARYWDFLT
  2
AcDbDictionaryWithDefault
  3
ObjectDBX Classes
 90
        0
 91
        1
280
     0
281
     0
  0
CLASS
  1
MATERIAL
  2
AcDbMaterial
  3
ObjectDBX Classes
 90
     1153
 91
        3
280
     0
281
     0
  0
CLASS
  1
VISUALSTYLE
  2
AcDbVisualStyle
  3
ObjectDBX Classes
 90
     4095
 91
       24
280
     0
281
     0
  0
CLASS
  1
SCALE
  2
AcDbScale
  3
ObjectDBX Classes
 90
     1153
 91
       17
280
     0
281
     0
  0
CLASS
  1
TABLESTYLE
  2
AcDbTableStyle
  3
ObjectDBX Classes
 90
     4095
 91
        1
280
     0
281
     0
  0
CLASS
  1
MLEADERSTYLE
  2
AcDbMLeaderStyle
  3
ACDB_MLEADERSTYLE_CLASS
 90
     4095
 91
        1
280
     0
281
     0
  0
CLASS
  1
ACDBSECTIONVIEWSTYLE
  2
AcDbSectionViewStyle
  3
ObjectDBX Classes
 90
     1025
 91
        1
280
     0
281
     0
  0
CLASS
  1
ACDBDETAILVIEWSTYLE
  2
AcDbDetailViewStyle
  3
ObjectDBX Classes
 90
     1025
 91
        1
280
     0
281
     0
  0
CLASS
  1
SORTENTSTABLE
  2
AcDbSortentsTable
  3
ObjectDBX Classes
 90
        0
 91
        1
280
     0
281
     0
  0
CLASS
  1
DICTIONARYVAR
  2
AcDbDictionaryVar
  3
ObjectDBX Classes
 90
        0
 91
       11
280
     0
281
     0
  0
CLASS
  1
CELLSTYLEMAP
  2
AcDbCellStyleMap
  3
ObjectDBX Classes
 90
     1152
 91
        1
280
     0
281
     0
  0
ENDSEC
  0
SECTION
  2
TABLES
  0
TABLE
  2
VPORT
  5
8
330
0
100
AcDbSymbolTable
 70
     1
  0
VPORT
  5
76
330
8
100
AcDbSymbolTableRecord
100
AcDbViewportTableRecord
  2
*Active
 70
     0
 10
0.0
 20
0.0
 11
1.0
 21
1.0
 12
10.59375
 22
4.5
 13
0.0
 23
0.0
 14
1.0
 24
1.0
 15
0.0
 25
0.0
 16
0.0
 26
0.0
 36
1.0
 17
0.0
 27
0.0
 37
0.0
 40
8.60342717258262
 41
2.462820512820512
 42
50.0
 43
0.0
 44
0.0
 50
0.0
 51
0.0
 71
     0
 72
   100
 73
     1
 74
     0
 75
     1
 76
     0
 77
     0
 78
     0
281
     0
 65
     1
110
0.0
120
0.0
130
0.0
111
1.0
121
0.0
131
0.0
112
0.0
122
1.0
132
0.0
 79
     0
146
0.0
348
2F
 60
     3
 61
     5
292
     1
282
     1
141
0.0
142
0.0
 63
   250
421
  3355443
1001
ACAD_NAV_VCDISPLAY
1070
     3
  0
ENDTAB
  0
TABLE
  2
LTYPE
  5
5
330
0
100
AcDbSymbolTable
 70
     1
  0
LTYPE
  5
5A
330
5
100
AcDbSymbolTableRecord
100
AcDbLinetypeTableRecord
  2
ByBlock
 70
     0
  3

 72
    65
 73
     0
 40
0.0
  0
LTYPE
  5
5B
330
5
100
AcDbSymbolTableRecord
100
AcDbLinetypeTableRecord
  2
ByLayer
 70
     0
  3

 72
    65
 73
     0
 40
0.0
  0
LTYPE
  5
5C
330
5
100
AcDbSymbolTableRecord
100
AcDbLinetypeTableRecord
  2
Continuous
 70
     0
  3
Solid line
 72
    65
 73
     0
 40
0.0
  0
ENDTAB
  0
TABLE
  2
LAYER
  5
2
102
{ACAD_XDICTIONARY
360
589
102
}
330
0
100
AcDbSymbolTable
 70
     3
  0
LAYER
  5
54
102
{ACAD_XDICTIONARY
360
8BC
102
}
330
2
100
AcDbSymbolTableRecord
100
AcDbLayerTableRecord
  2
0
 70
     0
 62
     7
  6
Continuous
370
    -3
390
F
347
21
348
0
  0
LAYER
  5
73
102
{ACAD_XDICTIONARY
360
8BE
102
}
330
2
100
AcDbSymbolTableRecord
100
AcDbLayerTableRecord
  2
L8D0
 70
     0
 62
     1
  6
Continuous
370
    -3
390
F
347
21
348
0
  0
LAYER
  5
74
102
{ACAD_XDICTIONARY
360
8C0
102
}
330
2
100
AcDbSymbolTableRecord
100
AcDbLayerTableRecord
  2
L1D0
 70
     0
 62
     2
  6
Continuous
370
    -3
390
F
347
21
348
0
  0
ENDTAB
  0
TABLE
  2
STYLE
  5
3
330
0
100
AcDbSymbolTable
 70
     2
  0
STYLE
  5
55
330
3
100
AcDbSymbolTableRecord
100
AcDbTextStyleTableRecord
  2
Standard
 70
     0
 40
0.0
 41
1.0
 50
0.0
 71
     0
 42
0.2
  3
txt
  4

  0
STYLE
  5
59
330
3
100
AcDbSymbolTableRecord
100
AcDbTextStyleTableRecord
  2
Annotative
 70
     0
 40
0.0
 41
1.0
 50
0.0
 71
     0
 42
0.2
  3
txt
  4

1001
AcadAnnotative
1000
AnnotativeData
1002
{
1070
     1
1070
     1
1002
}
  0
ENDTAB
  0
TABLE
  2
VIEW
  5
6
330
0
100
AcDbSymbolTable
 70
     1
  0
ENDTAB
  0
TABLE
  2
UCS
  5
7
330
0
100
AcDbSymbolTable
 70
     0
  0
ENDTAB
  0
TABLE
  2
APPID
  5
9
330
0
100
AcDbSymbolTable
 70
     5
  0
APPID
  5
56
330
9
100
AcDbSymbolTableRecord
100
AcDbRegAppTableRecord
  2
ACAD
 70
     0
  0
APPID
  5
5D
330
9
100
AcDbSymbolTableRecord
100
AcDbRegAppTableRecord
  2
AcadAnnotative
 70
     0
  0
APPID
  5
58F
330
9
100
AcDbSymbolTableRecord
100
AcDbRegAppTableRecord
  2
ACAD_NAV_VCDISPLAY
 70
     0
  0
APPID
  5
595
330
9
100
AcDbSymbolTableRecord
100
AcDbRegAppTableRecord
  2
ACAD_PSEXT
 70
     0
  0
APPID
  5
8CC
330
9
100
AcDbSymbolTableRecord
100
AcDbRegAppTableRecord
  2
ACAD_EXEMPT_FROM_CAD_STANDARDS
 70
     0
  0
ENDTAB
  0
TABLE
  2
DIMSTYLE
  5
A
330
0
100
AcDbSymbolTable
 70
     2
100
AcDbDimStyleTable
 71
     1
340
57
  0
DIMSTYLE
105
57
330
A
100
AcDbSymbolTableRecord
100
AcDbDimStyleTableRecord
  2
Standard
 70
     0
340
55
  0
DIMSTYLE
105
58
330
A
100
AcDbSymbolTableRecord
100
AcDbDimStyleTableRecord
  2
Annotative
 70
     0
340
55
1001
AcadAnnotative
1000
AnnotativeData
1002
{
1070
     1
1070
     1
1002
}
  0
ENDTAB
  0
TABLE
  2
BLOCK_RECORD
  5
1
330
0
100
AcDbSymbolTable
 70
     1
  0
BLOCK_RECORD
  5
6F
102
{ACAD_XDICTIONARY
360
59A
102
}
330
1
100
AcDbSymbolTableRecord
100
AcDbBlockTableRecord
  2
*Model_Space
340
72
 70
     0
280
     1
281
     0
  0
BLOCK_RECORD
  5
6B
330
1
100
AcDbSymbolTableRecord
100
AcDbBlockTableRecord
  2
*Paper_Space
340
6E
 70
     0
280
     1
281
     0
  0
BLOCK_RECORD
  5
77
330
1
100
AcDbSymbolTableRecord
100
AcDbBlockTableRecord
  2
CIRCLE$2
340
0
 70
     0
280
     1
281
     0
  0
ENDTAB
  0
ENDSEC
  0
SECTION
  2
BLOCKS
  0
BLOCK
  5
70
330
6F
100
AcDbEntity
  8
0
100
AcDbBlockBegin
  2
*Model_Space
 70
     0
 10
0.0
 20
0.0
 30
0.0
  3
*Model_Space
  1

  0
ENDBLK
  5
71
330
6F
100
AcDbEntity
  8
0
100
AcDbBlockEnd
  0
BLOCK
  5
6C
330
6B
100
AcDbEntity
 67
     1
  8
0
100
AcDbBlockBegin
  2
*Paper_Space
 70
     0
 10
0.0
 20
0.0
 30
0.0
  3
*Paper_Space
  1

  0
ENDBLK
  5
6D
330
6B
100
AcDbEntity
 67
     1
  8
0
100
AcDbBlockEnd
  0
BLOCK
  5
78
330
77
100
AcDbEntity
  8
0
100
AcDbBlockBegin
  2
CIRCLE$2
 70
     0
 10
0.0
 20
0.0
 30
0.0
  3
CIRCLE$2
  1

  0
LWPOLYLINE
  5
79
330
77
100
AcDbEntity
  8
L8D0
100
AcDbPolyline
 90
       64
 70
     1
 43
0.0
 10
-9.824999999999999
 20
-200.0
 10
-29.381
 20
-198.074
 10
-48.655
 20
-194.24
 10
-67.459
 20
-188.536
 10
-85.61399999999999
 20
-181.016
 10
-102.945
 20
-171.753
 10
-119.284
 20
-160.835
 10
-134.474
 20
-148.369
 10
-148.369
 20
-134.474
 10
-160.835
 20
-119.284
 10
-171.753
 20
-102.945
 10
-181.016
 20
-85.61399999999999
 10
-188.536
 20
-67.459
 10
-194.24
 20
-48.655
 10
-198.074
 20
-29.381
 10
-200.0
 20
-9.824999999999999
 10
-200.0
 20
9.824999999999999
 10
-198.074
 20
29.381
 10
-194.24
 20
48.655
 10
-188.536
 20
67.459
 10
-181.016
 20
85.61399999999999
 10
-171.753
 20
102.945
 10
-160.835
 20
119.284
 10
-148.369
 20
134.474
 10
-134.474
 20
148.369
 10
-119.284
 20
160.835
 10
-102.945
 20
171.753
 10
-85.61399999999999
 20
181.016
 10
-67.459
 20
188.536
 10
-48.655
 20
194.24
 10
-29.381
 20
198.074
 10
-9.824999999999999
 20
200.0
 10
9.824999999999999
 20
200.0
 10
29.381
 20
198.074
 10
48.655
 20
194.24
 10
67.459
 20
188.536
 10
85.61399999999999
 20
181.016
 10
102.945
 20
171.753
 10
119.284
 20
160.835
 10
134.474
 20
148.369
 10
148.369
 20
134.474
 10
160.835
 20
119.284
 10
171.753
 20
102.945
 10
181.016
 20
85.61399999999999
 10
188.536
 20
67.459
 10
194.24
 20
48.655
 10
198.074
 20
29.381
 10
200.0
 20
9.824999999999999
 10
200.0
 20
-9.824999999999999
 10
198.074
 20
-29.381
 10
194.24
 20
-48.655
 10
188.536
 20
-67.459
 10
181.016
 20
-85.61399999999999
 10
171.753
 20
-102.945
 10
160.835
 20
-119.284
 10
148.369
 20
-134.474
 10
134.474
 20
-148.369
 10
119.284
 20
-160.835
 10
102.945
 20
-171.753
 10
85.61399999999999
 20
-181.016
 10
67.459
 20
-188.536
 10
48.655
 20
-194.24
 10
29.381
 20
-198.074
 10
9.824999999999999
 20
-200.0
  0
ENDBLK
  5
BB
330
77
100
AcDbEntity
  8
0
100
AcDbBlockEnd
  0
ENDSEC
  0
SECTION
  2
ENTITIES
  0
LWPOLYLINE
  5
90C
330
6F
100
AcDbEntity
  8
L8D0
100
AcDbPolyline
 90
      129
 70
     1
 43
0.0
 10
-1050.0
 20
-250.0
 10
-1050.0
 20
550.0
 10
-2806.167991916614
 20
550.0
 10
-2811.464
 20
532.5409999999999
 10
-2818.984
 20
514.386
 10
-2828.247
 20
497.055
 10
-2839.165
 20
480.716
 10
-2851.631
 20
465.526
 10
-2865.526
 20
451.6309999999999
 10
-2880.716
 20
439.1649999999999
 10
-2897.055
 20
428.2469999999999
 10
-2914.386
 20
418.984
 10
-2932.541
 20
411.464
 10
-2951.345
 20
405.7599999999999
 10
-2970.619000000001
 20
401.926
 10
-2990.175000000001
 20
400.0
 10
-3009.825
 20
400.0
 10
-3029.381
 20
401.926
 10
-3048.655
 20
405.7599999999999
 10
-3067.459
 20
411.464
 10
-3085.614
 20
418.984
 10
-3102.945
 20
428.2469999999999
 10
-3119.284
 20
439.1649999999999
 10
-3134.474
 20
451.6309999999999
 10
-3148.369000000001
 20
465.526
 10
-3160.835
 20
480.716
 10
-3171.753000000001
 20
497.055
 10
-3181.016
 20
514.386
 10
-3188.536
 20
532.5409999999999
 10
-3194.24
 20
551.345
 10
-3198.074
 20
570.619
 10
-3200.0
 20
590.1749999999999
 10
-3200.0
 20
609.825
 10
-3198.074
 20
629.3809999999999
 10
-3194.24
 20
648.655
 10
-3188.536
 20
667.4590000000001
 10
-3181.016
 20
685.614
 10
-3171.753000000001
 20
702.9449999999999
 10
-3160.835
 20
719.284
 10
-3148.369000000001
 20
734.4739999999999
 10
-3134.474
 20
748.369
 10
-3119.284
 20
760.835
 10
-3102.945
 20
771.7529999999999
 10
-3085.614
 20
781.0159999999999
 10
-3067.459
 20
788.5359999999999
 10
-3048.655
 20
794.24
 10
-3029.381
 20
798.074
 10
-3009.825
 20
800.0
 10
-2990.175000000001
 20
800.0
 10
-2970.619000000001
 20
798.074
 10
-2951.345
 20
794.24
 10
-2932.541
 20
788.5359999999999
 10
-2914.386
 20
781.0159999999999
 10
-2897.055
 20
771.7529999999999
 10
-2880.716
 20
760.835
 10
-2865.526
 20
748.369
 10
-2851.631
 20
734.4739999999999
 10
-2839.165
 20
719.284
 10
-2828.247
 20
702.9449999999999
 10
-2818.984
 20
685.614
 10
-2811.464
 20
667.4590000000001
 10
-2805.760000000001
 20
648.655
 10
-1050.0
 20
650.0
 10
-1050.0
 20
1300.0
 10
-1050.0
 20
1400.0
 10
12050.0
 20
1400.0
 10
12050.0
 20
650.0
 10
13756.16799191661
 20
650.0000000000002
 10
13761.464
 20
667.4590000000001
 10
13768.984
 20
685.614
 10
13778.247
 20
702.9449999999999
 10
13789.165
 20
719.284
 10
13801.631
 20
734.4739999999999
 10
13815.526
 20
748.369
 10
13830.716
 20
760.835
 10
13847.055
 20
771.7529999999999
 10
13864.386
 20
781.0159999999999
 10
13882.541
 20
788.5359999999999
 10
13901.345
 20
794.24
 10
13920.619
 20
798.074
 10
13940.175
 20
800.0
 10
13959.825
 20
800.0
 10
13979.381
 20
798.074
 10
13998.655
 20
794.24
 10
14017.459
 20
788.5359999999999
 10
14035.614
 20
781.0159999999999
 10
14052.945
 20
771.7529999999999
 10
14069.284
 20
760.835
 10
14084.474
 20
748.369
 10
14098.369
 20
734.4739999999999
 10
14110.835
 20
719.284
 10
14121.753
 20
702.9449999999999
 10
14131.016
 20
685.614
 10
14138.536
 20
667.4590000000001
 10
14144.24
 20
648.655
 10
14148.074
 20
629.3809999999999
 10
14150.0
 20
609.825
 10
14150.0
 20
590.1749999999999
 10
14148.074
 20
570.619
 10
14144.24
 20
551.345
 10
14138.536
 20
532.5409999999999
 10
14131.016
 20
514.386
 10
14121.753
 20
497.055
 10
14110.835
 20
480.716
 10
14098.369
 20
465.526
 10
14084.474
 20
451.6309999999999
 10
14069.284
 20
439.1649999999999
 10
14052.945
 20
428.2469999999999
 10
14035.614
 20
418.984
 10
14017.459
 20
411.464
 10
13998.655
 20
405.7599999999999
 10
13979.381
 20
401.926
 10
13959.825
 20
400.0
 10
13940.175
 20
400.0
 10
13920.619
 20
401.926
 10
13901.345
 20
405.7599999999999
 10
13882.541
 20
411.464
 10
13864.386
 20
418.984
 10
13847.055
 20
428.2469999999999
 10
13830.716
 20
439.1649999999999
 10
13815.526
 20
451.6309999999999
 10
13801.631
 20
465.526
 10
13789.165
 20
480.716
 10
13778.247
 20
497.055
 10
13768.984
 20
514.386
 10
13761.464
 20
532.5409999999999
 10
13756.16799191661
 20
549.9999999999998
 10
12050.0
 20
550.0
 10
12050.0
 20
-250.0
  0
LWPOLYLINE
  5
94A
330
6F
100
AcDbEntity
  8
L8D0
100
AcDbPolyline
 90
        4
 70
     1
 43
0.0
 10
-950.0
 20
-152.0
 10
11950.0
 20
-150.0
 10
11950.0
 20
1300.0
 10
-950.0
 20
1300.0
  0
POINT
  5
96D
330
6F
100
AcDbEntity
  8
0
  6
Continuous
100
AcDbPoint
 10
461.0
 20
1300.0
 30
0.0
  0
POINT
  5
96E
330
6F
100
AcDbEntity
  8
0
  6
Continuous
100
AcDbPoint
 10
441.0
 20
1300.0
 30
0.0
  0
POINT
  5
96F
330
6F
100
AcDbEntity
  8
0
  6
Continuous
100
AcDbPoint
 10
696.0
 20
1300.0
 30
0.0
  0
POINT
  5
970
330
6F
100
AcDbEntity
  8
0
  6
Continuous
100
AcDbPoint
 10
691.0
 20
1300.0
 30
0.0
  0
POINT
  5
971
330
6F
100
AcDbEntity
  8
0
  6
Continuous
100
AcDbPoint
 10
651.0
 20
1300.0
 30
0.0
  0
POINT
  5
972
330
6F
100
AcDbEntity
  8
0
  6
Continuous
100
AcDbPoint
 10
646.0
 20
1300.0
 30
0.0
  0
POINT
  5
973
330
6F
100
AcDbEntity
  8
0
  6
Continuous
100
AcDbPoint
 10
606.0
 20
1300.0
 30
0.0
  0
POINT
  5
974
330
6F
100
AcDbEntity
  8
0
  6
Continuous
100
AcDbPoint
 10
601.0
 20
1300.0
 30
0.0
  0
POINT
  5
975
330
6F
100
AcDbEntity
  8
0
  6
Continuous
100
AcDbPoint
 10
561.0
 20
1300.0
 30
0.0
  0
POINT
  5
976
330
6F
100
AcDbEntity
  8
0
  6
Continuous
100
AcDbPoint
 10
556.0
 20
1300.0
 30
0.0
  0
POINT
  5
977
330
6F
100
AcDbEntity
  8
0
  6
Continuous
100
AcDbPoint
 10
516.0
 20
1300.0
 30
0.0
  0
POINT
  5
978
330
6F
100
AcDbEntity
  8
0
  6
Continuous
100
AcDbPoint
 10
511.0
 20
1300.0
 30
0.0
  0
POINT
  5
979
330
6F
100
AcDbEntity
  8
0
  6
Continuous
100
AcDbPoint
 10
381.0
 20
1300.0
 30
0.0
  0
POINT
  5
97A
330
6F
100
AcDbEntity
  8
0
  6
Continuous
100
AcDbPoint
 10
376.0
 20
1300.0
 30
0.0
  0
POINT
  5
97B
330
6F
100
AcDbEntity
  8
0
  6
Continuous
100
AcDbPoint
 10
471.0
 20
1300.0
 30
0.0
  0
POINT
  5
97C
330
6F
100
AcDbEntity
  8
0
  6
Continuous
100
AcDbPoint
 10
466.0
 20
1300.0
 30
0.0
  0
POINT
  5
97D
330
6F
100
AcDbEntity
  8
0
  6
Continuous
100
AcDbPoint
 10
426.0
 20
1300.0
 30
0.0
  0
POINT
  5
97E
330
6F
100
AcDbEntity
  8
0
  6
Continuous
100
AcDbPoint
 10
421.0
 20
1300.0
 30
0.0
  0
POINT
  5
97F
330
6F
100
AcDbEntity
  8
0
  6
Continuous
100
AcDbPoint
 10
1326.0
 20
1300.0
 30
0.0
  0
POINT
  5
980
330
6F
100
AcDbEntity
  8
0
  6
Continuous
100
AcDbPoint
 10
1321.0
 20
1300.0
 30
0.0
  0
POINT
  5
981
330
6F
100
AcDbEntity
  8
0
  6
Continuous
100
AcDbPoint
 10
1281.0
 20
1300.0
 30
0.0
  0
POINT
  5
982
330
6F
100
AcDbEntity
  8
0
  6
Continuous
100
AcDbPoint
 10
1276.0
 20
1300.0
 30
0.0
  0
POINT
  5
983
330
6F
100
AcDbEntity
  8
0
  6
Continuous
100
AcDbPoint
 10
1236.0
 20
1300.0
 30
0.0
  0
POINT
  5
984
330
6F
100
AcDbEntity
  8
0
  6
Continuous
100
AcDbPoint
 10
1231.0
 20
1300.0
 30
0.0
  0
POINT
  5
985
330
6F
100
AcDbEntity
  8
0
  6
Continuous
100
AcDbPoint
 10
1191.0
 20
1300.0
 30
0.0
  0
POINT
  5
986
330
6F
100
AcDbEntity
  8
0
  6
Continuous
100
AcDbPoint
 10
1186.0
 20
1300.0
 30
0.0
  0
POINT
  5
987
330
6F
100
AcDbEntity
  8
0
  6
Continuous
100
AcDbPoint
 10
1146.0
 20
1300.0
 30
0.0
  0
POINT
  5
988
330
6F
100
AcDbEntity
  8
0
  6
Continuous
100
AcDbPoint
 10
1141.0
 20
1300.0
 30
0.0
  0
POINT
  5
989
330
6F
100
AcDbEntity
  8
0
  6
Continuous
100
AcDbPoint
 10
1101.0
 20
1300.0
 30
0.0
  0
POINT
  5
98A
330
6F
100
AcDbEntity
  8
0
  6
Continuous
100
AcDbPoint
 10
1096.0
 20
1300.0
 30
0.0
  0
POINT
  5
98B
330
6F
100
AcDbEntity
  8
0
  6
Continuous
100
AcDbPoint
 10
1056.0
 20
1300.0
 30
0.0
  0
POINT
  5
98C
330
6F
100
AcDbEntity
  8
0
  6
Continuous
100
AcDbPoint
 10
1051.0
 20
1300.0
 30
0.0
  0
POINT
  5
98D
330
6F
100
AcDbEntity
  8
0
  6
Continuous
100
AcDbPoint
 10
1011.0
 20
1300.0
 30
0.0
  0
POINT
  5
98E
330
6F
100
AcDbEntity
  8
0
  6
Continuous
100
AcDbPoint
 10
1006.0
 20
1300.0
 30
0.0
  0
POINT
  5
98F
330
6F
100
AcDbEntity
  8
0
  6
Continuous
100
AcDbPoint
 10
966.0
 20
1300.0
 30
0.0
  0
POINT
  5
990
330
6F
100
AcDbEntity
  8
0
  6
Continuous
100
AcDbPoint
 10
961.0
 20
1300.0
 30
0.0
  0
POINT
  5
991
330
6F
100
AcDbEntity
  8
0
  6
Continuous
100
AcDbPoint
 10
921.0
 20
1300.0
 30
0.0
  0
POINT
  5
992
330
6F
100
AcDbEntity
  8
0
  6
Continuous
100
AcDbPoint
 10
916.0
 20
1300.0
 30
0.0
  0
POINT
  5
993
330
6F
100
AcDbEntity
  8
0
  6
Continuous
100
AcDbPoint
 10
876.0
 20
1300.0
 30
0.0
  0
POINT
  5
994
330
6F
100
AcDbEntity
  8
0
  6
Continuous
100
AcDbPoint
 10
871.0
 20
1300.0
 30
0.0
  0
POINT
  5
995
330
6F
100
AcDbEntity
  8
0
  6
Continuous
100
AcDbPoint
 10
831.0
 20
1300.0
 30
0.0
  0
POINT
  5
996
330
6F
100
AcDbEntity
  8
0
  6
Continuous
100
AcDbPoint
 10
826.0
 20
1300.0
 30
0.0
  0
POINT
  5
997
330
6F
100
AcDbEntity
  8
0
  6
Continuous
100
AcDbPoint
 10
786.0
 20
1300.0
 30
0.0
  0
POINT
  5
998
330
6F
100
AcDbEntity
  8
0
  6
Continuous
100
AcDbPoint
 10
781.0
 20
1300.0
 30
0.0
  0
POINT
  5
999
330
6F
100
AcDbEntity
  8
0
  6
Continuous
100
AcDbPoint
 10
741.0
 20
1300.0
 30
0.0
  0
POINT
  5
99A
330
6F
100
AcDbEntity
  8
0
  6
Continuous
100
AcDbPoint
 10
736.0
 20
1300.0
 30
0.0
  0
POINT
  5
99B
330
6F
100
AcDbEntity
  8
0
  6
Continuous
100
AcDbPoint
 10
1316.0
 20
1300.0
 30
0.0
  0
POINT
  5
99C
330
6F
100
AcDbEntity
  8
0
  6
Continuous
100
AcDbPoint
 10
1296.0
 20
1300.0
 30
0.0
  0
POINT
  5
99D
330
6F
100
AcDbEntity
  8
0
  6
Continuous
100
AcDbPoint
 10
1271.0
 20
1300.0
 30
0.0
  0
POINT
  5
99E
330
6F
100
AcDbEntity
  8
0
  6
Continuous
100
AcDbPoint
 10
1251.0
 20
1300.0
 30
0.0
  0
POINT
  5
99F
330
6F
100
AcDbEntity
  8
0
  6
Continuous
100
AcDbPoint
 10
1226.0
 20
1300.0
 30
0.0
  0
POINT
  5
9A0
330
6F
100
AcDbEntity
  8
0
  6
Continuous
100
AcDbPoint
 10
1206.0
 20
1300.0
 30
0.0
  0
POINT
  5
9A1
330
6F
100
AcDbEntity
  8
0
  6
Continuous
100
AcDbPoint
 10
1181.0
 20
1300.0
 30
0.0
  0
POINT
  5
9A2
330
6F
100
AcDbEntity
  8
0
  6
Continuous
100
AcDbPoint
 10
1161.0
 20
1300.0
 30
0.0
  0
POINT
  5
9A3
330
6F
100
AcDbEntity
  8
0
  6
Continuous
100
AcDbPoint
 10
1136.0
 20
1300.0
 30
0.0
  0
POINT
  5
9A4
330
6F
100
AcDbEntity
  8
0
  6
Continuous
100
AcDbPoint
 10
1116.0
 20
1300.0
 30
0.0
  0
POINT
  5
9A5
330
6F
100
AcDbEntity
  8
0
  6
Continuous
100
AcDbPoint
 10
1091.0
 20
1300.0
 30
0.0
  0
POINT
  5
9A6
330
6F
100
AcDbEntity
  8
0
  6
Continuous
100
AcDbPoint
 10
1071.0
 20
1300.0
 30
0.0
  0
POINT
  5
9A7
330
6F
100
AcDbEntity
  8
0
  6
Continuous
100
AcDbPoint
 10
1046.0
 20
1300.0
 30
0.0
  0
POINT
  5
9A8
330
6F
100
AcDbEntity
  8
0
  6
Continuous
100
AcDbPoint
 10
1026.0
 20
1300.0
 30
0.0
  0
POINT
  5
9A9
330
6F
100
AcDbEntity
  8
0
  6
Continuous
100
AcDbPoint
 10
1001.0
 20
1300.0
 30
0.0
  0
POINT
  5
9AA
330
6F
100
AcDbEntity
  8
0
  6
Continuous
100
AcDbPoint
 10
981.0
 20
1300.0
 30
0.0
  0
POINT
  5
9AB
330
6F
100
AcDbEntity
  8
0
  6
Continuous
100
AcDbPoint
 10
956.0
 20
1300.0
 30
0.0
  0
POINT
  5
9AC
330
6F
100
AcDbEntity
  8
0
  6
Continuous
100
AcDbPoint
 10
936.0
 20
1300.0
 30
0.0
  0
POINT
  5
9AD
330
6F
100
AcDbEntity
  8
0
  6
Continuous
100
AcDbPoint
 10
911.0
 20
1300.0
 30
0.0
  0
POINT
  5
9AE
330
6F
100
AcDbEntity
  8
0
  6
Continuous
100
AcDbPoint
 10
891.0
 20
1300.0
 30
0.0
  0
POINT
  5
9AF
330
6F
100
AcDbEntity
  8
0
  6
Continuous
100
AcDbPoint
 10
866.0
 20
1300.0
 30
0.0
  0
POINT
  5
9B0
330
6F
100
AcDbEntity
  8
0
  6
Continuous
100
AcDbPoint
 10
846.0
 20
1300.0
 30
0.0
  0
POINT
  5
9B1
330
6F
100
AcDbEntity
  8
0
  6
Continuous
100
AcDbPoint
 10
821.0
 20
1300.0
 30
0.0
  0
POINT
  5
9B2
330
6F
100
AcDbEntity
  8
0
  6
Continuous
100
AcDbPoint
 10
801.0
 20
1300.0
 30
0.0
  0
POINT
  5
9B3
330
6F
100
AcDbEntity
  8
0
  6
Continuous
100
AcDbPoint
 10
776.0
 20
1300.0
 30
0.0
  0
POINT
  5
9B4
330
6F
100
AcDbEntity
  8
0
  6
Continuous
100
AcDbPoint
 10
756.0
 20
1300.0
 30
0.0
  0
POINT
  5
9B5
330
6F
100
AcDbEntity
  8
0
  6
Continuous
100
AcDbPoint
 10
731.0
 20
1300.0
 30
0.0
  0
POINT
  5
9B6
330
6F
100
AcDbEntity
  8
0
  6
Continuous
100
AcDbPoint
 10
711.0
 20
1300.0
 30
0.0
  0
POINT
  5
9B7
330
6F
100
AcDbEntity
  8
0
  6
Continuous
100
AcDbPoint
 10
686.0
 20
1300.0
 30
0.0
  0
POINT
  5
9B8
330
6F
100
AcDbEntity
  8
0
  6
Continuous
100
AcDbPoint
 10
666.0
 20
1300.0
 30
0.0
  0
POINT
  5
9B9
330
6F
100
AcDbEntity
  8
0
  6
Continuous
100
AcDbPoint
 10
641.0
 20
1300.0
 30
0.0
  0
POINT
  5
9BA
330
6F
100
AcDbEntity
  8
0
  6
Continuous
100
AcDbPoint
 10
621.0
 20
1300.0
 30
0.0
  0
POINT
  5
9BB
330
6F
100
AcDbEntity
  8
0
  6
Continuous
100
AcDbPoint
 10
596.0
 20
1300.0
 30
0.0
  0
POINT
  5
9BC
330
6F
100
AcDbEntity
  8
0
  6
Continuous
100
AcDbPoint
 10
576.0
 20
1300.0
 30
0.0
  0
POINT
  5
9BD
330
6F
100
AcDbEntity
  8
0
  6
Continuous
100
AcDbPoint
 10
551.0
 20
1300.0
 30
0.0
  0
POINT
  5
9BE
330
6F
100
AcDbEntity
  8
0
  6
Continuous
100
AcDbPoint
 10
531.0
 20
1300.0
 30
0.0
  0
POINT
  5
9BF
330
6F
100
AcDbEntity
  8
0
  6
Continuous
100
AcDbPoint
 10
371.0
 20
1300.0
 30
0.0
  0
POINT
  5
9C0
330
6F
100
AcDbEntity
  8
0
  6
Continuous
100
AcDbPoint
 10
351.0
 20
1300.0
 30
0.0
  0
POINT
  5
9C1
330
6F
100
AcDbEntity
  8
0
  6
Continuous
100
AcDbPoint
 10
1371.0
 20
1300.0
 30
0.0
  0
POINT
  5
9C2
330
6F
100
AcDbEntity
  8
0
  6
Continuous
100
AcDbPoint
 10
1366.0
 20
1300.0
 30
0.0
  0
POINT
  5
9C3
330
6F
100
AcDbEntity
  8
0
  6
Continuous
100
AcDbPoint
 10
506.0
 20
1300.0
 30
0.0
  0
POINT
  5
9C4
330
6F
100
AcDbEntity
  8
0
  6
Continuous
100
AcDbPoint
 10
486.0
 20
1300.0
 30
0.0
  0
POINT
  5
9C5
330
6F
100
AcDbEntity
  8
0
  6
Continuous
100
AcDbPoint
 10
416.0
 20
1300.0
 30
0.0
  0
POINT
  5
9C6
330
6F
100
AcDbEntity
  8
0
  6
Continuous
100
AcDbPoint
 10
396.0
 20
1300.0
 30
0.0
  0
POINT
  5
9C7
330
6F
100
AcDbEntity
  8
0
  6
Continuous
100
AcDbPoint
 10
1361.0
 20
1300.0
 30
0.0
  0
POINT
  5
9C8
330
6F
100
AcDbEntity
  8
0
  6
Continuous
100
AcDbPoint
 10
1341.0
 20
1300.0
 30
0.0
  0
POINT
  5
9C9
330
6F
100
AcDbEntity
  8
0
  6
Continuous
100
AcDbPoint
 10
1596.0
 20
1300.0
 30
0.0
  0
POINT
  5
9CA
330
6F
100
AcDbEntity
  8
0
  6
Continuous
100
AcDbPoint
 10
1591.0
 20
1300.0
 30
0.0
  0
POINT
  5
9CB
330
6F
100
AcDbEntity
  8
0
  6
Continuous
100
AcDbPoint
 10
1551.0
 20
1300.0
 30
0.0
  0
POINT
  5
9CC
330
6F
100
AcDbEntity
  8
0
  6
Continuous
100
AcDbPoint
 10
1546.0
 20
1300.0
 30
0.0
  0
POINT
  5
9CD
330
6F
100
AcDbEntity
  8
0
  6
Continuous
100
AcDbPoint
 10
1586.0
 20
1300.0
 30
0.0
  0
POINT
  5
9CE
330
6F
100
AcDbEntity
  8
0
  6
Continuous
100
AcDbPoint
 10
1566.0
 20
1300.0
 30
0.0
  0
POINT
  5
9CF
330
6F
100
AcDbEntity
  8
0
  6
Continuous
100
AcDbPoint
 10
1541.0
 20
1300.0
 30
0.0
  0
POINT
  5
9D0
330
6F
100
AcDbEntity
  8
0
  6
Continuous
100
AcDbPoint
 10
1521.0
 20
1300.0
 30
0.0
  0
POINT
  5
9D1
330
6F
100
AcDbEntity
  8
0
  6
Continuous
100
AcDbPoint
 10
1496.0
 20
1300.0
 30
0.0
  0
POINT
  5
9D2
330
6F
100
AcDbEntity
  8
0
  6
Continuous
100
AcDbPoint
 10
1476.0
 20
1300.0
 30
0.0
  0
POINT
  5
9D3
330
6F
100
AcDbEntity
  8
0
  6
Continuous
100
AcDbPoint
 10
1451.0
 20
1300.0
 30
0.0
  0
POINT
  5
9D4
330
6F
100
AcDbEntity
  8
0
  6
Continuous
100
AcDbPoint
 10
1431.0
 20
1300.0
 30
0.0
  0
POINT
  5
9D5
330
6F
100
AcDbEntity
  8
0
  6
Continuous
100
AcDbPoint
 10
1406.0
 20
1300.0
 30
0.0
  0
POINT
  5
9D6
330
6F
100
AcDbEntity
  8
0
  6
Continuous
100
AcDbPoint
 10
1386.0
 20
1300.0
 30
0.0
  0
POINT
  5
9D7
330
6F
100
AcDbEntity
  8
0
  6
Continuous
100
AcDbPoint
 10
1506.0
 20
1300.0
 30
0.0
  0
POINT
  5
9D8
330
6F
100
AcDbEntity
  8
0
  6
Continuous
100
AcDbPoint
 10
1501.0
 20
1300.0
 30
0.0
  0
POINT
  5
9D9
330
6F
100
AcDbEntity
  8
0
  6
Continuous
100
AcDbPoint
 10
1461.0
 20
1300.0
 30
0.0
  0
POINT
  5
9DA
330
6F
100
AcDbEntity
  8
0
  6
Continuous
100
AcDbPoint
 10
1456.0
 20
1300.0
 30
0.0
  0
POINT
  5
9DB
330
6F
100
AcDbEntity
  8
0
  6
Continuous
100
AcDbPoint
 10
1416.0
 20
1300.0
 30
0.0
  0
POINT
  5
9DC
330
6F
100
AcDbEntity
  8
0
  6
Continuous
100
AcDbPoint
 10
1411.0
 20
1300.0
 30
0.0
  0
POINT
  5
9DD
330
6F
100
AcDbEntity
  8
0
  6
Continuous
100
AcDbPoint
 10
2441.0
 20
1300.0
 30
0.0
  0
POINT
  5
9DE
330
6F
100
AcDbEntity
  8
0
  6
Continuous
100
AcDbPoint
 10
2421.0
 20
1300.0
 30
0.0
  0
POINT
  5
9DF
330
6F
100
AcDbEntity
  8
0
  6
Continuous
100
AcDbPoint
 10
2396.0
 20
1300.0
 30
0.0
  0
POINT
  5
9E0
330
6F
100
AcDbEntity
  8
0
  6
Continuous
100
AcDbPoint
 10
2376.0
 20
1300.0
 30
0.0
  0
POINT
  5
9E1
330
6F
100
AcDbEntity
  8
0
  6
Continuous
100
AcDbPoint
 10
2351.0
 20
1300.0
 30
0.0
  0
POINT
  5
9E2
330
6F
100
AcDbEntity
  8
0
  6
Continuous
100
AcDbPoint
 10
2331.0
 20
1300.0
 30
0.0
  0
POINT
  5
9E3
330
6F
100
AcDbEntity
  8
0
  6
Continuous
100
AcDbPoint
 10
2666.0
 20
1300.0
 30
0.0
  0
POINT
  5
9E4
330
6F
100
AcDbEntity
  8
0
  6
Continuous
100
AcDbPoint
 10
2646.0
 20
1300.0
 30
0.0
  0
POINT
  5
9E5
330
6F
100
AcDbEntity
  8
0
  6
Continuous
100
AcDbPoint
 10
2306.0
 20
1300.0
 30
0.0
  0
POINT
  5
9E6
330
6F
100
AcDbEntity
  8
0
  6
Continuous
100
AcDbPoint
 10
2286.0
 20
1300.0
 30
0.0
  0
POINT
  5
9E7
330
6F
100
AcDbEntity
  8
0
  6
Continuous
100
AcDbPoint
 10
2261.0
 20
1300.0
 30
0.0
  0
POINT
  5
9E8
330
6F
100
AcDbEntity
  8
0
  6
Continuous
100
AcDbPoint
 10
2241.0
 20
1300.0
 30
0.0
  0
POINT
  5
9E9
330
6F
100
AcDbEntity
  8
0
  6
Continuous
100
AcDbPoint
 10
2216.0
 20
1300.0
 30
0.0
  0
POINT
  5
9EA
330
6F
100
AcDbEntity
  8
0
  6
Continuous
100
AcDbPoint
 10
2196.0
 20
1300.0
 30
0.0
  0
POINT
  5
9EB
330
6F
100
AcDbEntity
  8
0
  6
Continuous
100
AcDbPoint
 10
2171.0
 20
1300.0
 30
0.0
  0
POINT
  5
9EC
330
6F
100
AcDbEntity
  8
0
  6
Continuous
100
AcDbPoint
 10
2151.0
 20
1300.0
 30
0.0
  0
POINT
  5
9ED
330
6F
100
AcDbEntity
  8
0
  6
Continuous
100
AcDbPoint
 10
2126.0
 20
1300.0
 30
0.0
  0
POINT
  5
9EE
330
6F
100
AcDbEntity
  8
0
  6
Continuous
100
AcDbPoint
 10
2106.0
 20
1300.0
 30
0.0
  0
POINT
  5
9EF
330
6F
100
AcDbEntity
  8
0
  6
Continuous
100
AcDbPoint
 10
2081.0
 20
1300.0
 30
0.0
  0
POINT
  5
9F0
330
6F
100
AcDbEntity
  8
0
  6
Continuous
100
AcDbPoint
 10
2061.0
 20
1300.0
 30
0.0
  0
POINT
  5
9F1
330
6F
100
AcDbEntity
  8
0
  6
Continuous
100
AcDbPoint
 10
2036.0
 20
1300.0
 30
0.0
  0
POINT
  5
9F2
330
6F
100
AcDbEntity
  8
0
  6
Continuous
100
AcDbPoint
 10
2016.0
 20
1300.0
 30
0.0
  0
POINT
  5
9F3
330
6F
100
AcDbEntity
  8
0
  6
Continuous
100
AcDbPoint
 10
1991.0
 20
1300.0
 30
0.0
  0
POINT
  5
9F4
330
6F
100
AcDbEntity
  8
0
  6
Continuous
100
AcDbPoint
 10
1971.0
 20
1300.0
 30
0.0
  0
POINT
  5
9F5
330
6F
100
AcDbEntity
  8
0
  6
Continuous
100
AcDbPoint
 10
1946.0
 20
1300.0
 30
0.0
  0
POINT
  5
9F6
330
6F
100
AcDbEntity
  8
0
  6
Continuous
100
AcDbPoint
 10
1926.0
 20
1300.0
 30
0.0
  0
POINT
  5
9F7
330
6F
100
AcDbEntity
  8
0
  6
Continuous
100
AcDbPoint
 10
1901.0
 20
1300.0
 30
0.0
  0
POINT
  5
9F8
330
6F
100
AcDbEntity
  8
0
  6
Continuous
100
AcDbPoint
 10
1881.0
 20
1300.0
 30
0.0
  0
POINT
  5
9F9
330
6F
100
AcDbEntity
  8
0
  6
Continuous
100
AcDbPoint
 10
1856.0
 20
1300.0
 30
0.0
  0
POINT
  5
9FA
330
6F
100
AcDbEntity
  8
0
  6
Continuous
100
AcDbPoint
 10
1836.0
 20
1300.0
 30
0.0
  0
POINT
  5
9FB
330
6F
100
AcDbEntity
  8
0
  6
Continuous
100
AcDbPoint
 10
1811.0
 20
1300.0
 30
0.0
  0
POINT
  5
9FC
330
6F
100
AcDbEntity
  8
0
  6
Continuous
100
AcDbPoint
 10
1791.0
 20
1300.0
 30
0.0
  0
POINT
  5
9FD
330
6F
100
AcDbEntity
  8
0
  6
Continuous
100
AcDbPoint
 10
1766.0
 20
1300.0
 30
0.0
  0
POINT
  5
9FE
330
6F
100
AcDbEntity
  8
0
  6
Continuous
100
AcDbPoint
 10
1746.0
 20
1300.0
 30
0.0
  0
POINT
  5
9FF
330
6F
100
AcDbEntity
  8
0
  6
Continuous
100
AcDbPoint
 10
1721.0
 20
1300.0
 30
0.0
  0
POINT
  5
A00
330
6F
100
AcDbEntity
  8
0
  6
Continuous
100
AcDbPoint
 10
1701.0
 20
1300.0
 30
0.0
  0
POINT
  5
A01
330
6F
100
AcDbEntity
  8
0
  6
Continuous
100
AcDbPoint
 10
1676.0
 20
1300.0
 30
0.0
  0
POINT
  5
A02
330
6F
100
AcDbEntity
  8
0
  6
Continuous
100
AcDbPoint
 10
1656.0
 20
1300.0
 30
0.0
  0
POINT
  5
A03
330
6F
100
AcDbEntity
  8
0
  6
Continuous
100
AcDbPoint
 10
1631.0
 20
1300.0
 30
0.0
  0
POINT
  5
A04
330
6F
100
AcDbEntity
  8
0
  6
Continuous
100
AcDbPoint
 10
1611.0
 20
1300.0
 30
0.0
  0
POINT
  5
A05
330
6F
100
AcDbEntity
  8
0
  6
Continuous
100
AcDbPoint
 10
2486.0
 20
1300.0
 30
0.0
  0
POINT
  5
A06
330
6F
100
AcDbEntity
  8
0
  6
Continuous
100
AcDbPoint
 10
2466.0
 20
1300.0
 30
0.0
  0
POINT
  5
A07
330
6F
100
AcDbEntity
  8
0
  6
Continuous
100
AcDbPoint
 10
2621.0
 20
1300.0
 30
0.0
  0
POINT
  5
A08
330
6F
100
AcDbEntity
  8
0
  6
Continuous
100
AcDbPoint
 10
2601.0
 20
1300.0
 30
0.0
  0
POINT
  5
A09
330
6F
100
AcDbEntity
  8
0
  6
Continuous
100
AcDbPoint
 10
2631.0
 20
1300.0
 30
0.0
  0
POINT
  5
A0A
330
6F
100
AcDbEntity
  8
0
  6
Continuous
100
AcDbPoint
 10
2626.0
 20
1300.0
 30
0.0
  0
POINT
  5
A0B
330
6F
100
AcDbEntity
  8
0
  6
Continuous
100
AcDbPoint
 10
2586.0
 20
1300.0
 30
0.0
  0
POINT
  5
A0C
330
6F
100
AcDbEntity
  8
0
  6
Continuous
100
AcDbPoint
 10
2581.0
 20
1300.0
 30
0.0
  0
POINT
  5
A0D
330
6F
100
AcDbEntity
  8
0
  6
Continuous
100
AcDbPoint
 10
2541.0
 20
1300.0
 30
0.0
  0
POINT
  5
A0E
330
6F
100
AcDbEntity
  8
0
  6
Continuous
100
AcDbPoint
 10
2536.0
 20
1300.0
 30
0.0
  0
POINT
  5
A0F
330
6F
100
AcDbEntity
  8
0
  6
Continuous
100
AcDbPoint
 10
2496.0
 20
1300.0
 30
0.0
  0
POINT
  5
A10
330
6F
100
AcDbEntity
  8
0
  6
Continuous
100
AcDbPoint
 10
2491.0
 20
1300.0
 30
0.0
  0
POINT
  5
A11
330
6F
100
AcDbEntity
  8
0
  6
Continuous
100
AcDbPoint
 10
2451.0
 20
1300.0
 30
0.0
  0
POINT
  5
A12
330
6F
100
AcDbEntity
  8
0
  6
Continuous
100
AcDbPoint
 10
2446.0
 20
1300.0
 30
0.0
  0
POINT
  5
A13
330
6F
100
AcDbEntity
  8
0
  6
Continuous
100
AcDbPoint
 10
2406.0
 20
1300.0
 30
0.0
  0
POINT
  5
A14
330
6F
100
AcDbEntity
  8
0
  6
Continuous
100
AcDbPoint
 10
2401.0
 20
1300.0
 30
0.0
  0
POINT
  5
A15
330
6F
100
AcDbEntity
  8
0
  6
Continuous
100
AcDbPoint
 10
2361.0
 20
1300.0
 30
0.0
  0
POINT
  5
A16
330
6F
100
AcDbEntity
  8
0
  6
Continuous
100
AcDbPoint
 10
2356.0
 20
1300.0
 30
0.0
  0
POINT
  5
A17
330
6F
100
AcDbEntity
  8
0
  6
Continuous
100
AcDbPoint
 10
2316.0
 20
1300.0
 30
0.0
  0
POINT
  5
A18
330
6F
100
AcDbEntity
  8
0
  6
Continuous
100
AcDbPoint
 10
2311.0
 20
1300.0
 30
0.0
  0
POINT
  5
A19
330
6F
100
AcDbEntity
  8
0
  6
Continuous
100
AcDbPoint
 10
2271.0
 20
1300.0
 30
0.0
  0
POINT
  5
A1A
330
6F
100
AcDbEntity
  8
0
  6
Continuous
100
AcDbPoint
 10
2266.0
 20
1300.0
 30
0.0
  0
POINT
  5
A1B
330
6F
100
AcDbEntity
  8
0
  6
Continuous
100
AcDbPoint
 10
2226.0
 20
1300.0
 30
0.0
  0
POINT
  5
A1C
330
6F
100
AcDbEntity
  8
0
  6
Continuous
100
AcDbPoint
 10
2221.0
 20
1300.0
 30
0.0
  0
POINT
  5
A1D
330
6F
100
AcDbEntity
  8
0
  6
Continuous
100
AcDbPoint
 10
2181.0
 20
1300.0
 30
0.0
  0
POINT
  5
A1E
330
6F
100
AcDbEntity
  8
0
  6
Continuous
100
AcDbPoint
 10
2176.0
 20
1300.0
 30
0.0
  0
POINT
  5
A1F
330
6F
100
AcDbEntity
  8
0
  6
Continuous
100
AcDbPoint
 10
2136.0
 20
1300.0
 30
0.0
  0
POINT
  5
A20
330
6F
100
AcDbEntity
  8
0
  6
Continuous
100
AcDbPoint
 10
2131.0
 20
1300.0
 30
0.0
  0
POINT
  5
A21
330
6F
100
AcDbEntity
  8
0
  6
Continuous
100
AcDbPoint
 10
2091.0
 20
1300.0
 30
0.0
  0
POINT
  5
A22
330
6F
100
AcDbEntity
  8
0
  6
Continuous
100
AcDbPoint
 10
2086.0
 20
1300.0
 30
0.0
  0
POINT
  5
A23
330
6F
100
AcDbEntity
  8
0
  6
Continuous
100
AcDbPoint
 10
2046.0
 20
1300.0
 30
0.0
  0
POINT
  5
A24
330
6F
100
AcDbEntity
  8
0
  6
Continuous
100
AcDbPoint
 10
2041.0
 20
1300.0
 30
0.0
  0
POINT
  5
A25
330
6F
100
AcDbEntity
  8
0
  6
Continuous
100
AcDbPoint
 10
2001.0
 20
1300.0
 30
0.0
  0
POINT
  5
A26
330
6F
100
AcDbEntity
  8
0
  6
Continuous
100
AcDbPoint
 10
1996.0
 20
1300.0
 30
0.0
  0
POINT
  5
A27
330
6F
100
AcDbEntity
  8
0
  6
Continuous
100
AcDbPoint
 10
1956.0
 20
1300.0
 30
0.0
  0
POINT
  5
A28
330
6F
100
AcDbEntity
  8
0
  6
Continuous
100
AcDbPoint
 10
1951.0
 20
1300.0
 30
0.0
  0
POINT
  5
A29
330
6F
100
AcDbEntity
  8
0
  6
Continuous
100
AcDbPoint
 10
1911.0
 20
1300.0
 30
0.0
  0
POINT
  5
A2A
330
6F
100
AcDbEntity
  8
0
  6
Continuous
100
AcDbPoint
 10
1906.0
 20
1300.0
 30
0.0
  0
POINT
  5
A2B
330
6F
100
AcDbEntity
  8
0
  6
Continuous
100
AcDbPoint
 10
1866.0
 20
1300.0
 30
0.0
  0
POINT
  5
A2C
330
6F
100
AcDbEntity
  8
0
  6
Continuous
100
AcDbPoint
 10
1861.0
 20
1300.0
 30
0.0
  0
POINT
  5
A2D
330
6F
100
AcDbEntity
  8
0
  6
Continuous
100
AcDbPoint
 10
1821.0
 20
1300.0
 30
0.0
  0
POINT
  5
A2E
330
6F
100
AcDbEntity
  8
0
  6
Continuous
100
AcDbPoint
 10
1816.0
 20
1300.0
 30
0.0
  0
POINT
  5
A2F
330
6F
100
AcDbEntity
  8
0
  6
Continuous
100
AcDbPoint
 10
1776.0
 20
1300.0
 30
0.0
  0
POINT
  5
A30
330
6F
100
AcDbEntity
  8
0
  6
Continuous
100
AcDbPoint
 10
1771.0
 20
1300.0
 30
0.0
  0
POINT
  5
A31
330
6F
100
AcDbEntity
  8
0
  6
Continuous
100
AcDbPoint
 10
1731.0
 20
1300.0
 30
0.0
  0
POINT
  5
A32
330
6F
100
AcDbEntity
  8
0
  6
Continuous
100
AcDbPoint
 10
1726.0
 20
1300.0
 30
0.0
  0
POINT
  5
A33
330
6F
100
AcDbEntity
  8
0
  6
Continuous
100
AcDbPoint
 10
1686.0
 20
1300.0
 30
0.0
  0
POINT
  5
A34
330
6F
100
AcDbEntity
  8
0
  6
Continuous
100
AcDbPoint
 10
1681.0
 20
1300.0
 30
0.0
  0
POINT
  5
A35
330
6F
100
AcDbEntity
  8
0
  6
Continuous
100
AcDbPoint
 10
1641.0
 20
1300.0
 30
0.0
  0
POINT
  5
A36
330
6F
100
AcDbEntity
  8
0
  6
Continuous
100
AcDbPoint
 10
1636.0
 20
1300.0
 30
0.0
  0
POINT
  5
A37
330
6F
100
AcDbEntity
  8
0
  6
Continuous
100
AcDbPoint
 10
2576.0
 20
1300.0
 30
0.0
  0
POINT
  5
A38
330
6F
100
AcDbEntity
  8
0
  6
Continuous
100
AcDbPoint
 10
2556.0
 20
1300.0
 30
0.0
  0
POINT
  5
A39
330
6F
100
AcDbEntity
  8
0
  6
Continuous
100
AcDbPoint
 10
2531.0
 20
1300.0
 30
0.0
  0
POINT
  5
A3A
330
6F
100
AcDbEntity
  8
0
  6
Continuous
100
AcDbPoint
 10
2511.0
 20
1300.0
 30
0.0
  0
POINT
  5
A3B
330
6F
100
AcDbEntity
  8
0
  6
Continuous
100
AcDbPoint
 10
2811.0
 20
1300.0
 30
0.0
  0
POINT
  5
A3C
330
6F
100
AcDbEntity
  8
0
  6
Continuous
100
AcDbPoint
 10
2806.0
 20
1300.0
 30
0.0
  0
POINT
  5
A3D
330
6F
100
AcDbEntity
  8
0
  6
Continuous
100
AcDbPoint
 10
2721.0
 20
1300.0
 30
0.0
  0
POINT
  5
A3E
330
6F
100
AcDbEntity
  8
0
  6
Continuous
100
AcDbPoint
 10
2716.0
 20
1300.0
 30
0.0
  0
POINT
  5
A3F
330
6F
100
AcDbEntity
  8
0
  6
Continuous
100
AcDbPoint
 10
2676.0
 20
1300.0
 30
0.0
  0
POINT
  5
A40
330
6F
100
AcDbEntity
  8
0
  6
Continuous
100
AcDbPoint
 10
2671.0
 20
1300.0
 30
0.0
  0
POINT
  5
A41
330
6F
100
AcDbEntity
  8
0
  6
Continuous
100
AcDbPoint
 10
2766.0
 20
1300.0
 30
0.0
  0
POINT
  5
A42
330
6F
100
AcDbEntity
  8
0
  6
Continuous
100
AcDbPoint
 10
2761.0
 20
1300.0
 30
0.0
  0
POINT
  5
A43
330
6F
100
AcDbEntity
  8
0
  6
Continuous
100
AcDbPoint
 10
2846.0
 20
1300.0
 30
0.0
  0
POINT
  5
A44
330
6F
100
AcDbEntity
  8
0
  6
Continuous
100
AcDbPoint
 10
2826.0
 20
1300.0
 30
0.0
  0
POINT
  5
A45
330
6F
100
AcDbEntity
  8
0
  6
Continuous
100
AcDbPoint
 10
2801.0
 20
1300.0
 30
0.0
  0
POINT
  5
A46
330
6F
100
AcDbEntity
  8
0
  6
Continuous
100
AcDbPoint
 10
2781.0
 20
1300.0
 30
0.0
  0
POINT
  5
A47
330
6F
100
AcDbEntity
  8
0
  6
Continuous
100
AcDbPoint
 10
2756.0
 20
1300.0
 30
0.0
  0
POINT
  5
A48
330
6F
100
AcDbEntity
  8
0
  6
Continuous
100
AcDbPoint
 10
2736.0
 20
1300.0
 30
0.0
  0
POINT
  5
A49
330
6F
100
AcDbEntity
  8
0
  6
Continuous
100
AcDbPoint
 10
2711.0
 20
1300.0
 30
0.0
  0
POINT
  5
A4A
330
6F
100
AcDbEntity
  8
0
  6
Continuous
100
AcDbPoint
 10
2691.0
 20
1300.0
 30
0.0
  0
POINT
  5
A4B
330
6F
100
AcDbEntity
  8
0
  6
Continuous
100
AcDbPoint
 10
2856.0
 20
1300.0
 30
0.0
  0
POINT
  5
A4C
330
6F
100
AcDbEntity
  8
0
  6
Continuous
100
AcDbPoint
 10
2851.0
 20
1300.0
 30
0.0
  0
POINT
  5
A4D
330
6F
100
AcDbEntity
  8
0
  6
Continuous
100
AcDbPoint
 10
4791.0
 20
1300.0
 30
0.0
  0
POINT
  5
A4E
330
6F
100
AcDbEntity
  8
0
  6
Continuous
100
AcDbPoint
 10
4786.0
 20
1300.0
 30
0.0
  0
POINT
  5
A4F
330
6F
100
AcDbEntity
  8
0
  6
Continuous
100
AcDbPoint
 10
4746.0
 20
1300.0
 30
0.0
  0
POINT
  5
A50
330
6F
100
AcDbEntity
  8
0
  6
Continuous
100
AcDbPoint
 10
4741.0
 20
1300.0
 30
0.0
  0
POINT
  5
A51
330
6F
100
AcDbEntity
  8
0
  6
Continuous
100
AcDbPoint
 10
4701.0
 20
1300.0
 30
0.0
  0
POINT
  5
A52
330
6F
100
AcDbEntity
  8
0
  6
Continuous
100
AcDbPoint
 10
4696.0
 20
1300.0
 30
0.0
  0
POINT
  5
A53
330
6F
100
AcDbEntity
  8
0
  6
Continuous
100
AcDbPoint
 10
4656.0
 20
1300.0
 30
0.0
  0
POINT
  5
A54
330
6F
100
AcDbEntity
  8
0
  6
Continuous
100
AcDbPoint
 10
4651.0
 20
1300.0
 30
0.0
  0
POINT
  5
A55
330
6F
100
AcDbEntity
  8
0
  6
Continuous
100
AcDbPoint
 10
4611.0
 20
1300.0
 30
0.0
  0
POINT
  5
A56
330
6F
100
AcDbEntity
  8
0
  6
Continuous
100
AcDbPoint
 10
4606.0
 20
1300.0
 30
0.0
  0
POINT
  5
A57
330
6F
100
AcDbEntity
  8
0
  6
Continuous
100
AcDbPoint
 10
4566.0
 20
1300.0
 30
0.0
  0
POINT
  5
A58
330
6F
100
AcDbEntity
  8
0
  6
Continuous
100
AcDbPoint
 10
4561.0
 20
1300.0
 30
0.0
  0
POINT
  5
A59
330
6F
100
AcDbEntity
  8
0
  6
Continuous
100
AcDbPoint
 10
4521.0
 20
1300.0
 30
0.0
  0
POINT
  5
A5A
330
6F
100
AcDbEntity
  8
0
  6
Continuous
100
AcDbPoint
 10
4516.0
 20
1300.0
 30
0.0
  0
POINT
  5
A5B
330
6F
100
AcDbEntity
  8
0
  6
Continuous
100
AcDbPoint
 10
4476.0
 20
1300.0
 30
0.0
  0
POINT
  5
A5C
330
6F
100
AcDbEntity
  8
0
  6
Continuous
100
AcDbPoint
 10
4471.0
 20
1300.0
 30
0.0
  0
POINT
  5
A5D
330
6F
100
AcDbEntity
  8
0
  6
Continuous
100
AcDbPoint
 10
4431.0
 20
1300.0
 30
0.0
  0
POINT
  5
A5E
330
6F
100
AcDbEntity
  8
0
  6
Continuous
100
AcDbPoint
 10
4426.0
 20
1300.0
 30
0.0
  0
POINT
  5
A5F
330
6F
100
AcDbEntity
  8
0
  6
Continuous
100
AcDbPoint
 10
4386.0
 20
1300.0
 30
0.0
  0
POINT
  5
A60
330
6F
100
AcDbEntity
  8
0
  6
Continuous
100
AcDbPoint
 10
4381.0
 20
1300.0
 30
0.0
  0
POINT
  5
A61
330
6F
100
AcDbEntity
  8
0
  6
Continuous
100
AcDbPoint
 10
4341.0
 20
1300.0
 30
0.0
  0
POINT
  5
A62
330
6F
100
AcDbEntity
  8
0
  6
Continuous
100
AcDbPoint
 10
4336.0
 20
1300.0
 30
0.0
  0
POINT
  5
A63
330
6F
100
AcDbEntity
  8
0
  6
Continuous
100
AcDbPoint
 10
4296.0
 20
1300.0
 30
0.0
  0
POINT
  5
A64
330
6F
100
AcDbEntity
  8
0
  6
Continuous
100
AcDbPoint
 10
4291.0
 20
1300.0
 30
0.0
  0
POINT
  5
A65
330
6F
100
AcDbEntity
  8
0
  6
Continuous
100
AcDbPoint
 10
4251.0
 20
1300.0
 30
0.0
  0
POINT
  5
A66
330
6F
100
AcDbEntity
  8
0
  6
Continuous
100
AcDbPoint
 10
4246.0
 20
1300.0
 30
0.0
  0
POINT
  5
A67
330
6F
100
AcDbEntity
  8
0
  6
Continuous
100
AcDbPoint
 10
4206.0
 20
1300.0
 30
0.0
  0
POINT
  5
A68
330
6F
100
AcDbEntity
  8
0
  6
Continuous
100
AcDbPoint
 10
4201.0
 20
1300.0
 30
0.0
  0
POINT
  5
A69
330
6F
100
AcDbEntity
  8
0
  6
Continuous
100
AcDbPoint
 10
4161.0
 20
1300.0
 30
0.0
  0
POINT
  5
A6A
330
6F
100
AcDbEntity
  8
0
  6
Continuous
100
AcDbPoint
 10
4156.0
 20
1300.0
 30
0.0
  0
POINT
  5
A6B
330
6F
100
AcDbEntity
  8
0
  6
Continuous
100
AcDbPoint
 10
4116.0
 20
1300.0
 30
0.0
  0
POINT
  5
A6C
330
6F
100
AcDbEntity
  8
0
  6
Continuous
100
AcDbPoint
 10
4111.0
 20
1300.0
 30
0.0
  0
POINT
  5
A6D
330
6F
100
AcDbEntity
  8
0
  6
Continuous
100
AcDbPoint
 10
4071.0
 20
1300.0
 30
0.0
  0
POINT
  5
A6E
330
6F
100
AcDbEntity
  8
0
  6
Continuous
100
AcDbPoint
 10
4066.0
 20
1300.0
 30
0.0
  0
POINT
  5
A6F
330
6F
100
AcDbEntity
  8
0
  6
Continuous
100
AcDbPoint
 10
4026.0
 20
1300.0
 30
0.0
  0
POINT
  5
A70
330
6F
100
AcDbEntity
  8
0
  6
Continuous
100
AcDbPoint
 10
4021.0
 20
1300.0
 30
0.0
  0
POINT
  5
A71
330
6F
100
AcDbEntity
  8
0
  6
Continuous
100
AcDbPoint
 10
3981.0
 20
1300.0
 30
0.0
  0
POINT
  5
A72
330
6F
100
AcDbEntity
  8
0
  6
Continuous
100
AcDbPoint
 10
3976.0
 20
1300.0
 30
0.0
  0
POINT
  5
A73
330
6F
100
AcDbEntity
  8
0
  6
Continuous
100
AcDbPoint
 10
3936.0
 20
1300.0
 30
0.0
  0
POINT
  5
A74
330
6F
100
AcDbEntity
  8
0
  6
Continuous
100
AcDbPoint
 10
3931.0
 20
1300.0
 30
0.0
  0
POINT
  5
A75
330
6F
100
AcDbEntity
  8
0
  6
Continuous
100
AcDbPoint
 10
3891.0
 20
1300.0
 30
0.0
  0
POINT
  5
A76
330
6F
100
AcDbEntity
  8
0
  6
Continuous
100
AcDbPoint
 10
3886.0
 20
1300.0
 30
0.0
  0
POINT
  5
A77
330
6F
100
AcDbEntity
  8
0
  6
Continuous
100
AcDbPoint
 10
3846.0
 20
1300.0
 30
0.0
  0
POINT
  5
A78
330
6F
100
AcDbEntity
  8
0
  6
Continuous
100
AcDbPoint
 10
3841.0
 20
1300.0
 30
0.0
  0
POINT
  5
A79
330
6F
100
AcDbEntity
  8
0
  6
Continuous
100
AcDbPoint
 10
3801.0
 20
1300.0
 30
0.0
  0
POINT
  5
A7A
330
6F
100
AcDbEntity
  8
0
  6
Continuous
100
AcDbPoint
 10
3796.0
 20
1300.0
 30
0.0
  0
POINT
  5
A7B
330
6F
100
AcDbEntity
  8
0
  6
Continuous
100
AcDbPoint
 10
3756.0
 20
1300.0
 30
0.0
  0
POINT
  5
A7C
330
6F
100
AcDbEntity
  8
0
  6
Continuous
100
AcDbPoint
 10
3751.0
 20
1300.0
 30
0.0
  0
POINT
  5
A7D
330
6F
100
AcDbEntity
  8
0
  6
Continuous
100
AcDbPoint
 10
3711.0
 20
1300.0
 30
0.0
  0
POINT
  5
A7E
330
6F
100
AcDbEntity
  8
0
  6
Continuous
100
AcDbPoint
 10
3706.0
 20
1300.0
 30
0.0
  0
POINT
  5
A7F
330
6F
100
AcDbEntity
  8
0
  6
Continuous
100
AcDbPoint
 10
3666.0
 20
1300.0
 30
0.0
  0
POINT
  5
A80
330
6F
100
AcDbEntity
  8
0
  6
Continuous
100
AcDbPoint
 10
3661.0
 20
1300.0
 30
0.0
  0
POINT
  5
A81
330
6F
100
AcDbEntity
  8
0
  6
Continuous
100
AcDbPoint
 10
3621.0
 20
1300.0
 30
0.0
  0
POINT
  5
A82
330
6F
100
AcDbEntity
  8
0
  6
Continuous
100
AcDbPoint
 10
3616.0
 20
1300.0
 30
0.0
  0
POINT
  5
A83
330
6F
100
AcDbEntity
  8
0
  6
Continuous
100
AcDbPoint
 10
3576.0
 20
1300.0
 30
0.0
  0
POINT
  5
A84
330
6F
100
AcDbEntity
  8
0
  6
Continuous
100
AcDbPoint
 10
3571.0
 20
1300.0
 30
0.0
  0
POINT
  5
A85
330
6F
100
AcDbEntity
  8
0
  6
Continuous
100
AcDbPoint
 10
3531.0
 20
1300.0
 30
0.0
  0
POINT
  5
A86
330
6F
100
AcDbEntity
  8
0
  6
Continuous
100
AcDbPoint
 10
3526.0
 20
1300.0
 30
0.0
  0
POINT
  5
A87
330
6F
100
AcDbEntity
  8
0
  6
Continuous
100
AcDbPoint
 10
3486.0
 20
1300.0
 30
0.0
  0
POINT
  5
A88
330
6F
100
AcDbEntity
  8
0
  6
Continuous
100
AcDbPoint
 10
3481.0
 20
1300.0
 30
0.0
  0
POINT
  5
A89
330
6F
100
AcDbEntity
  8
0
  6
Continuous
100
AcDbPoint
 10
3441.0
 20
1300.0
 30
0.0
  0
POINT
  5
A8A
330
6F
100
AcDbEntity
  8
0
  6
Continuous
100
AcDbPoint
 10
3436.0
 20
1300.0
 30
0.0
  0
POINT
  5
A8B
330
6F
100
AcDbEntity
  8
0
  6
Continuous
100
AcDbPoint
 10
3396.0
 20
1300.0
 30
0.0
  0
POINT
  5
A8C
330
6F
100
AcDbEntity
  8
0
  6
Continuous
100
AcDbPoint
 10
3391.0
 20
1300.0
 30
0.0
  0
POINT
  5
A8D
330
6F
100
AcDbEntity
  8
0
  6
Continuous
100
AcDbPoint
 10
3351.0
 20
1300.0
 30
0.0
  0
POINT
  5
A8E
330
6F
100
AcDbEntity
  8
0
  6
Continuous
100
AcDbPoint
 10
3346.0
 20
1300.0
 30
0.0
  0
POINT
  5
A8F
330
6F
100
AcDbEntity
  8
0
  6
Continuous
100
AcDbPoint
 10
3306.0
 20
1300.0
 30
0.0
  0
POINT
  5
A90
330
6F
100
AcDbEntity
  8
0
  6
Continuous
100
AcDbPoint
 10
3301.0
 20
1300.0
 30
0.0
  0
POINT
  5
A91
330
6F
100
AcDbEntity
  8
0
  6
Continuous
100
AcDbPoint
 10
3261.0
 20
1300.0
 30
0.0
  0
POINT
  5
A92
330
6F
100
AcDbEntity
  8
0
  6
Continuous
100
AcDbPoint
 10
3256.0
 20
1300.0
 30
0.0
  0
POINT
  5
A93
330
6F
100
AcDbEntity
  8
0
  6
Continuous
100
AcDbPoint
 10
3216.0
 20
1300.0
 30
0.0
  0
POINT
  5
A94
330
6F
100
AcDbEntity
  8
0
  6
Continuous
100
AcDbPoint
 10
3211.0
 20
1300.0
 30
0.0
  0
POINT
  5
A95
330
6F
100
AcDbEntity
  8
0
  6
Continuous
100
AcDbPoint
 10
3171.0
 20
1300.0
 30
0.0
  0
POINT
  5
A96
330
6F
100
AcDbEntity
  8
0
  6
Continuous
100
AcDbPoint
 10
3166.0
 20
1300.0
 30
0.0
  0
POINT
  5
A97
330
6F
100
AcDbEntity
  8
0
  6
Continuous
100
AcDbPoint
 10
3126.0
 20
1300.0
 30
0.0
  0
POINT
  5
A98
330
6F
100
AcDbEntity
  8
0
  6
Continuous
100
AcDbPoint
 10
3121.0
 20
1300.0
 30
0.0
  0
POINT
  5
A99
330
6F
100
AcDbEntity
  8
0
  6
Continuous
100
AcDbPoint
 10
3081.0
 20
1300.0
 30
0.0
  0
POINT
  5
A9A
330
6F
100
AcDbEntity
  8
0
  6
Continuous
100
AcDbPoint
 10
3076.0
 20
1300.0
 30
0.0
  0
POINT
  5
A9B
330
6F
100
AcDbEntity
  8
0
  6
Continuous
100
AcDbPoint
 10
3036.0
 20
1300.0
 30
0.0
  0
POINT
  5
A9C
330
6F
100
AcDbEntity
  8
0
  6
Continuous
100
AcDbPoint
 10
3031.0
 20
1300.0
 30
0.0
  0
POINT
  5
A9D
330
6F
100
AcDbEntity
  8
0
  6
Continuous
100
AcDbPoint
 10
2991.0
 20
1300.0
 30
0.0
  0
POINT
  5
A9E
330
6F
100
AcDbEntity
  8
0
  6
Continuous
100
AcDbPoint
 10
2986.0
 20
1300.0
 30
0.0
  0
POINT
  5
A9F
330
6F
100
AcDbEntity
  8
0
  6
Continuous
100
AcDbPoint
 10
2946.0
 20
1300.0
 30
0.0
  0
POINT
  5
AA0
330
6F
100
AcDbEntity
  8
0
  6
Continuous
100
AcDbPoint
 10
2941.0
 20
1300.0
 30
0.0
  0
POINT
  5
AA1
330
6F
100
AcDbEntity
  8
0
  6
Continuous
100
AcDbPoint
 10
2901.0
 20
1300.0
 30
0.0
  0
POINT
  5
AA2
330
6F
100
AcDbEntity
  8
0
  6
Continuous
100
AcDbPoint
 10
2896.0
 20
1300.0
 30
0.0
  0
POINT
  5
AA3
330
6F
100
AcDbEntity
  8
0
  6
Continuous
100
AcDbPoint
 10
4826.0
 20
1300.0
 30
0.0
  0
POINT
  5
AA4
330
6F
100
AcDbEntity
  8
0
  6
Continuous
100
AcDbPoint
 10
4806.0
 20
1300.0
 30
0.0
  0
POINT
  5
AA5
330
6F
100
AcDbEntity
  8
0
  6
Continuous
100
AcDbPoint
 10
4781.0
 20
1300.0
 30
0.0
  0
POINT
  5
AA6
330
6F
100
AcDbEntity
  8
0
  6
Continuous
100
AcDbPoint
 10
4761.0
 20
1300.0
 30
0.0
  0
POINT
  5
AA7
330
6F
100
AcDbEntity
  8
0
  6
Continuous
100
AcDbPoint
 10
4736.0
 20
1300.0
 30
0.0
  0
POINT
  5
AA8
330
6F
100
AcDbEntity
  8
0
  6
Continuous
100
AcDbPoint
 10
4716.0
 20
1300.0
 30
0.0
  0
POINT
  5
AA9
330
6F
100
AcDbEntity
  8
0
  6
Continuous
100
AcDbPoint
 10
4691.0
 20
1300.0
 30
0.0
  0
POINT
  5
AAA
330
6F
100
AcDbEntity
  8
0
  6
Continuous
100
AcDbPoint
 10
4671.0
 20
1300.0
 30
0.0
  0
POINT
  5
AAB
330
6F
100
AcDbEntity
  8
0
  6
Continuous
100
AcDbPoint
 10
4646.0
 20
1300.0
 30
0.0
  0
POINT
  5
AAC
330
6F
100
AcDbEntity
  8
0
  6
Continuous
100
AcDbPoint
 10
4626.0
 20
1300.0
 30
0.0
  0
POINT
  5
AAD
330
6F
100
AcDbEntity
  8
0
  6
Continuous
100
AcDbPoint
 10
4601.0
 20
1300.0
 30
0.0
  0
POINT
  5
AAE
330
6F
100
AcDbEntity
  8
0
  6
Continuous
100
AcDbPoint
 10
4581.0
 20
1300.0
 30
0.0
  0
POINT
  5
AAF
330
6F
100
AcDbEntity
  8
0
  6
Continuous
100
AcDbPoint
 10
4556.0
 20
1300.0
 30
0.0
  0
POINT
  5
AB0
330
6F
100
AcDbEntity
  8
0
  6
Continuous
100
AcDbPoint
 10
4536.0
 20
1300.0
 30
0.0
  0
POINT
  5
AB1
330
6F
100
AcDbEntity
  8
0
  6
Continuous
100
AcDbPoint
 10
4511.0
 20
1300.0
 30
0.0
  0
POINT
  5
AB2
330
6F
100
AcDbEntity
  8
0
  6
Continuous
100
AcDbPoint
 10
4491.0
 20
1300.0
 30
0.0
  0
POINT
  5
AB3
330
6F
100
AcDbEntity
  8
0
  6
Continuous
100
AcDbPoint
 10
4466.0
 20
1300.0
 30
0.0
  0
POINT
  5
AB4
330
6F
100
AcDbEntity
  8
0
  6
Continuous
100
AcDbPoint
 10
4446.0
 20
1300.0
 30
0.0
  0
POINT
  5
AB5
330
6F
100
AcDbEntity
  8
0
  6
Continuous
100
AcDbPoint
 10
4421.0
 20
1300.0
 30
0.0
  0
POINT
  5
AB6
330
6F
100
AcDbEntity
  8
0
  6
Continuous
100
AcDbPoint
 10
4401.0
 20
1300.0
 30
0.0
  0
POINT
  5
AB7
330
6F
100
AcDbEntity
  8
0
  6
Continuous
100
AcDbPoint
 10
4376.0
 20
1300.0
 30
0.0
  0
POINT
  5
AB8
330
6F
100
AcDbEntity
  8
0
  6
Continuous
100
AcDbPoint
 10
4356.0
 20
1300.0
 30
0.0
  0
POINT
  5
AB9
330
6F
100
AcDbEntity
  8
0
  6
Continuous
100
AcDbPoint
 10
4331.0
 20
1300.0
 30
0.0
  0
POINT
  5
ABA
330
6F
100
AcDbEntity
  8
0
  6
Continuous
100
AcDbPoint
 10
4311.0
 20
1300.0
 30
0.0
  0
POINT
  5
ABB
330
6F
100
AcDbEntity
  8
0
  6
Continuous
100
AcDbPoint
 10
4286.0
 20
1300.0
 30
0.0
  0
POINT
  5
ABC
330
6F
100
AcDbEntity
  8
0
  6
Continuous
100
AcDbPoint
 10
4266.0
 20
1300.0
 30
0.0
  0
POINT
  5
ABD
330
6F
100
AcDbEntity
  8
0
  6
Continuous
100
AcDbPoint
 10
4241.0
 20
1300.0
 30
0.0
  0
POINT
  5
ABE
330
6F
100
AcDbEntity
  8
0
  6
Continuous
100
AcDbPoint
 10
4221.0
 20
1300.0
 30
0.0
  0
POINT
  5
ABF
330
6F
100
AcDbEntity
  8
0
  6
Continuous
100
AcDbPoint
 10
4196.0
 20
1300.0
 30
0.0
  0
POINT
  5
AC0
330
6F
100
AcDbEntity
  8
0
  6
Continuous
100
AcDbPoint
 10
4176.0
 20
1300.0
 30
0.0
  0
POINT
  5
AC1
330
6F
100
AcDbEntity
  8
0
  6
Continuous
100
AcDbPoint
 10
4151.0
 20
1300.0
 30
0.0
  0
POINT
  5
AC2
330
6F
100
AcDbEntity
  8
0
  6
Continuous
100
AcDbPoint
 10
4131.0
 20
1300.0
 30
0.0
  0
POINT
  5
AC3
330
6F
100
AcDbEntity
  8
0
  6
Continuous
100
AcDbPoint
 10
4106.0
 20
1300.0
 30
0.0
  0
POINT
  5
AC4
330
6F
100
AcDbEntity
  8
0
  6
Continuous
100
AcDbPoint
 10
4086.0
 20
1300.0
 30
0.0
  0
POINT
  5
AC5
330
6F
100
AcDbEntity
  8
0
  6
Continuous
100
AcDbPoint
 10
4061.0
 20
1300.0
 30
0.0
  0
POINT
  5
AC6
330
6F
100
AcDbEntity
  8
0
  6
Continuous
100
AcDbPoint
 10
4041.0
 20
1300.0
 30
0.0
  0
POINT
  5
AC7
330
6F
100
AcDbEntity
  8
0
  6
Continuous
100
AcDbPoint
 10
4016.0
 20
1300.0
 30
0.0
  0
POINT
  5
AC8
330
6F
100
AcDbEntity
  8
0
  6
Continuous
100
AcDbPoint
 10
3996.0
 20
1300.0
 30
0.0
  0
POINT
  5
AC9
330
6F
100
AcDbEntity
  8
0
  6
Continuous
100
AcDbPoint
 10
3971.0
 20
1300.0
 30
0.0
  0
POINT
  5
ACA
330
6F
100
AcDbEntity
  8
0
  6
Continuous
100
AcDbPoint
 10
3951.0
 20
1300.0
 30
0.0
  0
POINT
  5
ACB
330
6F
100
AcDbEntity
  8
0
  6
Continuous
100
AcDbPoint
 10
3926.0
 20
1300.0
 30
0.0
  0
POINT
  5
ACC
330
6F
100
AcDbEntity
  8
0
  6
Continuous
100
AcDbPoint
 10
3906.0
 20
1300.0
 30
0.0
  0
POINT
  5
ACD
330
6F
100
AcDbEntity
  8
0
  6
Continuous
100
AcDbPoint
 10
3881.0
 20
1300.0
 30
0.0
  0
POINT
  5
ACE
330
6F
100
AcDbEntity
  8
0
  6
Continuous
100
AcDbPoint
 10
3861.0
 20
1300.0
 30
0.0
  0
POINT
  5
ACF
330
6F
100
AcDbEntity
  8
0
  6
Continuous
100
AcDbPoint
 10
3836.0
 20
1300.0
 30
0.0
  0
POINT
  5
AD0
330
6F
100
AcDbEntity
  8
0
  6
Continuous
100
AcDbPoint
 10
3816.0
 20
1300.0
 30
0.0
  0
POINT
  5
AD1
330
6F
100
AcDbEntity
  8
0
  6
Continuous
100
AcDbPoint
 10
3791.0
 20
1300.0
 30
0.0
  0
POINT
  5
AD2
330
6F
100
AcDbEntity
  8
0
  6
Continuous
100
AcDbPoint
 10
3771.0
 20
1300.0
 30
0.0
  0
POINT
  5
AD3
330
6F
100
AcDbEntity
  8
0
  6
Continuous
100
AcDbPoint
 10
3746.0
 20
1300.0
 30
0.0
  0
POINT
  5
AD4
330
6F
100
AcDbEntity
  8
0
  6
Continuous
100
AcDbPoint
 10
3726.0
 20
1300.0
 30
0.0
  0
POINT
  5
AD5
330
6F
100
AcDbEntity
  8
0
  6
Continuous
100
AcDbPoint
 10
3701.0
 20
1300.0
 30
0.0
  0
POINT
  5
AD6
330
6F
100
AcDbEntity
  8
0
  6
Continuous
100
AcDbPoint
 10
3681.0
 20
1300.0
 30
0.0
  0
POINT
  5
AD7
330
6F
100
AcDbEntity
  8
0
  6
Continuous
100
AcDbPoint
 10
3656.0
 20
1300.0
 30
0.0
  0
POINT
  5
AD8
330
6F
100
AcDbEntity
  8
0
  6
Continuous
100
AcDbPoint
 10
3636.0
 20
1300.0
 30
0.0
  0
POINT
  5
AD9
330
6F
100
AcDbEntity
  8
0
  6
Continuous
100
AcDbPoint
 10
3611.0
 20
1300.0
 30
0.0
  0
POINT
  5
ADA
330
6F
100
AcDbEntity
  8
0
  6
Continuous
100
AcDbPoint
 10
3591.0
 20
1300.0
 30
0.0
  0
POINT
  5
ADB
330
6F
100
AcDbEntity
  8
0
  6
Continuous
100
AcDbPoint
 10
3566.0
 20
1300.0
 30
0.0
  0
POINT
  5
ADC
330
6F
100
AcDbEntity
  8
0
  6
Continuous
100
AcDbPoint
 10
3546.0
 20
1300.0
 30
0.0
  0
POINT
  5
ADD
330
6F
100
AcDbEntity
  8
0
  6
Continuous
100
AcDbPoint
 10
3521.0
 20
1300.0
 30
0.0
  0
POINT
  5
ADE
330
6F
100
AcDbEntity
  8
0
  6
Continuous
100
AcDbPoint
 10
3501.0
 20
1300.0
 30
0.0
  0
POINT
  5
ADF
330
6F
100
AcDbEntity
  8
0
  6
Continuous
100
AcDbPoint
 10
3476.0
 20
1300.0
 30
0.0
  0
POINT
  5
AE0
330
6F
100
AcDbEntity
  8
0
  6
Continuous
100
AcDbPoint
 10
3456.0
 20
1300.0
 30
0.0
  0
POINT
  5
AE1
330
6F
100
AcDbEntity
  8
0
  6
Continuous
100
AcDbPoint
 10
3431.0
 20
1300.0
 30
0.0
  0
POINT
  5
AE2
330
6F
100
AcDbEntity
  8
0
  6
Continuous
100
AcDbPoint
 10
3411.0
 20
1300.0
 30
0.0
  0
POINT
  5
AE3
330
6F
100
AcDbEntity
  8
0
  6
Continuous
100
AcDbPoint
 10
3386.0
 20
1300.0
 30
0.0
  0
POINT
  5
AE4
330
6F
100
AcDbEntity
  8
0
  6
Continuous
100
AcDbPoint
 10
3366.0
 20
1300.0
 30
0.0
  0
POINT
  5
AE5
330
6F
100
AcDbEntity
  8
0
  6
Continuous
100
AcDbPoint
 10
3341.0
 20
1300.0
 30
0.0
  0
POINT
  5
AE6
330
6F
100
AcDbEntity
  8
0
  6
Continuous
100
AcDbPoint
 10
3321.0
 20
1300.0
 30
0.0
  0
POINT
  5
AE7
330
6F
100
AcDbEntity
  8
0
  6
Continuous
100
AcDbPoint
 10
3296.0
 20
1300.0
 30
0.0
  0
POINT
  5
AE8
330
6F
100
AcDbEntity
  8
0
  6
Continuous
100
AcDbPoint
 10
3276.0
 20
1300.0
 30
0.0
  0
POINT
  5
AE9
330
6F
100
AcDbEntity
  8
0
  6
Continuous
100
AcDbPoint
 10
3251.0
 20
1300.0
 30
0.0
  0
POINT
  5
AEA
330
6F
100
AcDbEntity
  8
0
  6
Continuous
100
AcDbPoint
 10
3231.0
 20
1300.0
 30
0.0
  0
POINT
  5
AEB
330
6F
100
AcDbEntity
  8
0
  6
Continuous
100
AcDbPoint
 10
3206.0
 20
1300.0
 30
0.0
  0
POINT
  5
AEC
330
6F
100
AcDbEntity
  8
0
  6
Continuous
100
AcDbPoint
 10
3186.0
 20
1300.0
 30
0.0
  0
POINT
  5
AED
330
6F
100
AcDbEntity
  8
0
  6
Continuous
100
AcDbPoint
 10
3161.0
 20
1300.0
 30
0.0
  0
POINT
  5
AEE
330
6F
100
AcDbEntity
  8
0
  6
Continuous
100
AcDbPoint
 10
3141.0
 20
1300.0
 30
0.0
  0
POINT
  5
AEF
330
6F
100
AcDbEntity
  8
0
  6
Continuous
100
AcDbPoint
 10
3116.0
 20
1300.0
 30
0.0
  0
POINT
  5
AF0
330
6F
100
AcDbEntity
  8
0
  6
Continuous
100
AcDbPoint
 10
3096.0
 20
1300.0
 30
0.0
  0
POINT
  5
AF1
330
6F
100
AcDbEntity
  8
0
  6
Continuous
100
AcDbPoint
 10
3071.0
 20
1300.0
 30
0.0
  0
POINT
  5
AF2
330
6F
100
AcDbEntity
  8
0
  6
Continuous
100
AcDbPoint
 10
3051.0
 20
1300.0
 30
0.0
  0
POINT
  5
AF3
330
6F
100
AcDbEntity
  8
0
  6
Continuous
100
AcDbPoint
 10
3026.0
 20
1300.0
 30
0.0
  0
POINT
  5
AF4
330
6F
100
AcDbEntity
  8
0
  6
Continuous
100
AcDbPoint
 10
3006.0
 20
1300.0
 30
0.0
  0
POINT
  5
AF5
330
6F
100
AcDbEntity
  8
0
  6
Continuous
100
AcDbPoint
 10
2981.0
 20
1300.0
 30
0.0
  0
POINT
  5
AF6
330
6F
100
AcDbEntity
  8
0
  6
Continuous
100
AcDbPoint
 10
2961.0
 20
1300.0
 30
0.0
  0
POINT
  5
AF7
330
6F
100
AcDbEntity
  8
0
  6
Continuous
100
AcDbPoint
 10
2936.0
 20
1300.0
 30
0.0
  0
POINT
  5
AF8
330
6F
100
AcDbEntity
  8
0
  6
Continuous
100
AcDbPoint
 10
2916.0
 20
1300.0
 30
0.0
  0
POINT
  5
AF9
330
6F
100
AcDbEntity
  8
0
  6
Continuous
100
AcDbPoint
 10
2891.0
 20
1300.0
 30
0.0
  0
POINT
  5
AFA
330
6F
100
AcDbEntity
  8
0
  6
Continuous
100
AcDbPoint
 10
2871.0
 20
1300.0
 30
0.0
  0
POINT
  5
AFB
330
6F
100
AcDbEntity
  8
0
  6
Continuous
100
AcDbPoint
 10
4836.0
 20
1300.0
 30
0.0
  0
POINT
  5
AFC
330
6F
100
AcDbEntity
  8
0
  6
Continuous
100
AcDbPoint
 10
4831.0
 20
1300.0
 30
0.0
  0
VIEWPORT
  5
592
102
{ACAD_XDICTIONARY
360
593
102
}
330
6B
100
AcDbEntity
 67
     1
  8
0
  6
Continuous
100
AcDbViewport
 10
4.170725214049295
 20
4.232487775893135
 30
0.0
 40
3.300644763387545
 41
1.340188920063657
 68
     2
 69
     1
 12
4.170725214049295
 22
4.232487775893135
 13
0.0
 23
0.0
 14
10.0
 24
10.0
 15
10.0
 25
10.0
 16
0.0
 26
0.0
 36
1.0
 17
0.0
 27
0.0
 37
0.0
 42
50.0
 43
0.0
 44
0.0
 45
1.340188920063657
 50
0.0
 51
0.0
 72
   100
 90
   819232
  1

281
     0
 71
     1
 74
     0
110
0.0
120
0.0
130
0.0
111
1.0
121
0.0
131
0.0
112
0.0
122
1.0
132
0.0
 79
     0
146
0.0
170
     0
 61
     5
348
2F
292
     1
282
     1
141
0.0
142
0.0
 63
   250
421
  3355443
  0
VIEWPORT
  5
597
102
{ACAD_XDICTIONARY
360
598
102
}
330
6B
100
AcDbEntity
 67
     1
  8
0
  6
Continuous
100
AcDbViewport
 10
5.722083505683057
 20
4.008333162059933
 30
0.0
 40
9.155333609092892
 41
6.413333059295894
 68
     1
 69
     2
 12
4564.273984484162
 22
465.4097613801969
 13
0.0
 23
0.0
 14
1.0
 24
1.0
 15
0.0
 25
0.0
 16
0.0
 26
0.0
 36
1.0
 17
0.0
 27
0.0
 37
0.0
 42
50.0
 43
0.0
 44
0.0
 45
9458.908033261831
 50
0.0
 51
0.0
 72
   100
 90
   819456
  1

281
     0
 71
     1
 74
     0
110
0.0
120
0.0
130
0.0
111
1.0
121
0.0
131
0.0
112
0.0
122
1.0
132
0.0
 79
     0
146
0.0
170
     0
 61
     5
348
2F
292
     1
282
     1
141
0.0
142
0.0
 63
   250
421
  3355443
  0
ENDSEC
  0
SECTION
  2
OBJECTS
  0
DICTIONARY
  5
C
330
0
100
AcDbDictionary
281
     1
  3
ACAD_CIP_PREVIOUS_PRODUCT_INFO
350
585
  3
ACAD_COLOR
350
62
  3
ACAD_DETAILVIEWSTYLE
350
69
  3
ACAD_GROUP
350
D
  3
ACAD_LAYOUT
350
61
  3
ACAD_MATERIAL
350
10
  3
ACAD_MLEADERSTYLE
350
65
  3
ACAD_MLINESTYLE
350
5E
  3
ACAD_PLOTSETTINGS
350
60
  3
ACAD_PLOTSTYLENAME
350
E
  3
ACAD_SCALELIST
350
42
  3
ACAD_SECTIONVIEWSTYLE
350
67
  3
ACAD_TABLESTYLE
350
63
  3
ACAD_VISUALSTYLE
350
29
  3
ACDB_RECOMPOSE_DATA
350
B06
  3
AcDbVariableDictionary
350
927
  0
DICTIONARY
  5
589
330
2
100
AcDbDictionary
280
     1
281
     1
  3
ACAD_LAYERSTATES
360
58A
  0
DICTIONARY
  5
8BC
330
54
100
AcDbDictionary
280
     1
281
     1
  3
ADSK_XREC_LAYER_RECONCILED
360
8BD
  0
DICTIONARY
  5
8BE
330
73
100
AcDbDictionary
280
     1
281
     1
  3
ADSK_XREC_LAYER_RECONCILED
360
8BF
  0
DICTIONARY
  5
8C0
330
74
100
AcDbDictionary
280
     1
281
     1
  3
ADSK_XREC_LAYER_RECONCILED
360
8C1
  0
DICTIONARY
  5
59A
330
6F
100
AcDbDictionary
280
     1
281
     1
  3
ACAD_SORTENTS
360
59B
  0
DICTIONARY
  5
593
330
592
100
AcDbDictionary
280
     1
281
     1
  3
ASDK_XREC_ANNOTATION_SCALE_INFO
360
594
  0
DICTIONARY
  5
598
330
597
100
AcDbDictionary
280
     1
281
     1
  3
ASDK_XREC_ANNOTATION_SCALE_INFO
360
599
  0
XRECORD
  5
585
102
{ACAD_REACTORS
330
C
102
}
330
C
100
AcDbXrecord
280
     1
300
ACD
300
2020
300
ACD_F_S
  0
DICTIONARY
  5
62
102
{ACAD_REACTORS
330
C
102
}
330
C
100
AcDbDictionary
281
     1
  0
DICTIONARY
  5
69
102
{ACAD_REACTORS
330
C
102
}
330
C
100
AcDbDictionary
281
     1
  3
Imperial24
350
6A
  0
DICTIONARY
  5
D
102
{ACAD_REACTORS
330
C
102
}
330
C
100
AcDbDictionary
281
     1
  0
DICTIONARY
  5
61
102
{ACAD_REACTORS
330
C
102
}
330
C
100
AcDbDictionary
281
     1
  3
Model
350
72
  3
1
350
6E
  0
DICTIONARY
  5
10
102
{ACAD_REACTORS
330
C
102
}
330
C
100
AcDbDictionary
281
     1
  3
ByBlock
350
19
  3
ByLayer
350
11
  3
Global
350
21
  0
DICTIONARY
  5
65
102
{ACAD_REACTORS
330
C
102
}
330
C
100
AcDbDictionary
281
     1
  3
Standard
350
66
  0
DICTIONARY
  5
5E
102
{ACAD_REACTORS
330
C
102
}
330
C
100
AcDbDictionary
281
     1
  3
Standard
350
5F
  0
DICTIONARY
  5
60
102
{ACAD_REACTORS
330
C
102
}
330
C
100
AcDbDictionary
281
     1
  0
ACDBDICTIONARYWDFLT
  5
E
102
{ACAD_REACTORS
330
C
102
}
330
C
100
AcDbDictionary
281
     1
  3
Normal
350
F
100
AcDbDictionaryWithDefault
340
F
  0
DICTIONARY
  5
42
102
{ACAD_REACTORS
330
C
102
}
330
C
100
AcDbDictionary
281
     1
  3
A0
350
43
  3
A1
350
44
  3
A2
350
45
  3
A3
350
46
  3
A4
350
47
  3
A5
350
48
  3
A6
350
49
  3
A7
350
4A
  3
A8
350
4B
  3
A9
350
4C
  3
B0
350
4D
  3
B1
350
4E
  3
B2
350
4F
  3
B3
350
50
  3
B4
350
51
  3
B5
350
52
  3
B6
350
53
  0
DICTIONARY
  5
67
102
{ACAD_REACTORS
330
C
102
}
330
C
100
AcDbDictionary
281
     1
  3
Imperial24
350
68
  0
DICTIONARY
  5
63
102
{ACAD_REACTORS
330
C
102
}
330
C
100
AcDbDictionary
281
     1
  3
Standard
350
64
  0
DICTIONARY
  5
29
102
{ACAD_REACTORS
330
C
102
}
330
C
100
AcDbDictionary
281
     1
  3
2dWireframe
350
2F
  3
Basic
350
2E
  3
Brighten
350
35
  3
ColorChange
350
39
  3
Conceptual
350
32
  3
Dim
350
34
  3
EdgeColorOff
350
41
  3
Facepattern
350
38
  3
Flat
350
2A
  3
FlatWithEdges
350
2B
  3
Gouraud
350
2C
  3
GouraudWithEdges
350
2D
  3
Hidden
350
31
  3
JitterOff
350
3F
  3
Linepattern
350
37
  3
OverhangOff
350
40
  3
Realistic
350
33
  3
Shaded
350
3E
  3
Shaded with edges
350
3D
  3
Shades of Gray
350
3A
  3
Sketchy
350
3B
  3
Thicken
350
36
  3
Wireframe
350
30
  3
X-Ray
350
3C
  0
XRECORD
  5
B06
102
{ACAD_REACTORS
330
C
102
}
330
C
100
AcDbXrecord
280
     1
 90
        1
330
64
  0
DICTIONARY
  5
927
102
{ACAD_REACTORS
330
C
102
}
330
C
100
AcDbDictionary
281
     1
  3
CANNOSCALE
350
92D
  3
CMLEADERSTYLE
350
929
  3
CTABLESTYLE
350
928
  3
CVIEWDETAILSTYLE
350
92A
  3
CVIEWSECTIONSTYLE
350
92B
  3
HPCOLOR
350
93B
  3
HPTRANSPARENCY
350
93A
  3
LAYEREVAL
350
92F
  3
LAYERNOTIFY
350
930
  3
LIGHTINGUNITS
350
92E
  3
MSLTSCALE
350
92C
  0
DICTIONARY
  5
58A
102
{ACAD_REACTORS
330
589
102
}
330
589
100
AcDbDictionary
281
     1
  0
XRECORD
  5
8BD
102
{ACAD_REACTORS
330
8BC
102
}
330
8BC
100
AcDbXrecord
280
     1
290
     1
  0
XRECORD
  5
8BF
102
{ACAD_REACTORS
330
8BE
102
}
330
8BE
100
AcDbXrecord
280
     1
290
     1
  0
XRECORD
  5
8C1
102
{ACAD_REACTORS
330
8C0
102
}
330
8C0
100
AcDbXrecord
280
     1
290
     1
  0
SORTENTSTABLE
  5
59B
102
{ACAD_REACTORS
330
59A
102
}
330
59A
100
AcDbSortentsTable
330
6F
331
90C
  5
5C7
331
94A
  5
95C
  0
XRECORD
  5
594
102
{ACAD_REACTORS
330
593
102
}
330
593
100
AcDbXrecord
280
     1
 90
        1
340
43
  0
XRECORD
  5
599
102
{ACAD_REACTORS
330
598
102
}
330
598
100
AcDbXrecord
280
     1
 90
        1
340
43
  0
ACDBDETAILVIEWSTYLE
  5
6A
102
{ACAD_REACTORS
330
69
102
}
330
69
100
AcDbModelDocViewStyle
 70
     0
  3
Imperial24
290
     0
300
Imperial24
 90
        0
100
AcDbDetailViewStyle
 70
     0
 71
     0
 90
        3
 71
     1
340
55
 62
   256
 40
0.24
340
0
 62
   256
 40
0.24
300

 40
0.36
280
     3
 71
     2
340
5C
 90
       25
 62
   256
 71
     3
340
55
 62
   256
 40
0.24
 90
        1
 40
0.75
 90
        1
300
%<\AcVar ViewType \f "%tc1">% %<\AcVar ViewDetailId>%\PSCALE %<\AcVar ViewScale \f "%sn">%
 71
     4
340
5C
 90
       25
 62
   256
340
5C
 90
       25
 62
   256
280
     0
  0
LAYOUT
  5
72
102
{ACAD_REACTORS
330
61
102
}
330
61
100
AcDbPlotSettings
  1

  2
Adobe PDF
  4

  6

 40
0.0
 41
0.0
 42
0.0
 43
0.0
 44
0.0
 45
0.0
 46
0.0
 47
0.0
 48
0.0
 49
0.0
140
0.0
141
0.0
142
1.0
143
1.0
 70
  1712
 72
     0
 73
     0
 74
     0
  7

 75
     0
147
1.0
 76
     0
 77
     2
 78
   300
148
0.0
149
0.0
100
AcDbLayout
  1
Model
 70
     1
 71
     0
 10
0.0
 20
0.0
 11
12.0
 21
9.0
 12
0.0
 22
0.0
 32
0.0
 14
0.0
 24
0.0
 34
0.0
 15
0.0
 25
0.0
 35
0.0
146
0.0
 13
0.0
 23
0.0
 33
0.0
 16
1.0
 26
0.0
 36
0.0
 17
0.0
 27
1.0
 37
0.0
 76
     0
330
6F
  0
LAYOUT
  5
6E
102
{ACAD_REACTORS
330
61
102
}
330
61
100
AcDbPlotSettings
  1

  2
Adobe PDF
  4
A4
  6

 40
3.174999952316284
 41
3.174999952316284
 42
3.175003051757812
 43
3.17498779296875
 44
209.9733276367187
 45
297.0318298339844
 46
0.0
 47
0.0
 48
0.0
 49
0.0
140
0.0
141
0.0
142
1.0
143
1.0
 70
   688
 72
     0
 73
     1
 74
     5
  7

 75
    16
147
1.0
 76
     0
 77
     2
 78
   300
148
0.0
149
0.0
100
AcDbLayout
  1
1
 70
     1
 71
     1
 10
-0.1249995194082185
 20
-0.1249999981226884
 11
11.5691670094888
 21
8.141666444267812
 12
0.0
 22
0.0
 32
0.0
 14
1.144416701136611
 24
0.8016666324119867
 34
0.0
 15
10.2997503102295
 25
7.21499969170788
 35
0.0
146
0.0
 13
0.0
 23
0.0
 33
0.0
 16
1.0
 26
0.0
 36
0.0
 17
0.0
 27
1.0
 37
0.0
 76
     0
330
6B
331
597
1001
ACAD_PSEXT
1000
Adobe PDF
1000
Adobe PDF Converter
1000
Documents\*.pdf
1000

1070
     0
  0
MATERIAL
  5
19
102
{ACAD_XDICTIONARY
360
1A
102
}
102
{ACAD_REACTORS
330
10
102
}
330
10
100
AcDbMaterial
  1
ByBlock
 72
     0
 43
0.0208333333333333
 43
0.0
 43
0.0
 43
0.0
 43
0.0
 43
0.0208333333333333
 43
0.0
 43
0.0
 43
0.0
 43
0.0
 43
1.0
 43
0.0
 43
0.0
 43
0.0
 43
0.0
 43
1.0
 77
     0
 47
0.0208333333333333
 47
0.0
 47
0.0
 47
0.0
 47
0.0
 47
0.0208333333333333
 47
0.0
 47
0.0
 47
0.0
 47
0.0
 47
1.0
 47
0.0
 47
0.0
 47
0.0
 47
0.0
 47
1.0
171
     0
 49
0.0208333333333333
 49
0.0
 49
0.0
 49
0.0
 49
0.0
 49
0.0208333333333333
 49
0.0
 49
0.0
 49
0.0
 49
0.0
 49
1.0
 49
0.0
 49
0.0
 49
0.0
 49
0.0
 49
1.0
175
     0
142
0.0208333333333333
142
0.0
142
0.0
142
0.0
142
0.0
142
0.0208333333333333
142
0.0
142
0.0
142
0.0
142
0.0
142
1.0
142
0.0
142
0.0
142
0.0
142
0.0
142
1.0
179
     0
144
0.0208333333333333
144
0.0
144
0.0
144
0.0
144
0.0
144
0.0208333333333333
144
0.0
144
0.0
144
0.0
144
0.0
144
1.0
144
0.0
144
0.0
144
0.0
144
0.0
144
1.0
147
0.0208333333333333
147
0.0
147
0.0
147
0.0
147
0.0
147
0.0208333333333333
147
0.0
147
0.0
147
0.0
147
0.0
147
1.0
147
0.0
147
0.0
147
0.0
147
0.0
147
1.0
  0
MATERIAL
  5
11
102
{ACAD_XDICTIONARY
360
12
102
}
102
{ACAD_REACTORS
330
10
102
}
330
10
100
AcDbMaterial
  1
ByLayer
 72
     0
 43
0.0208333333333333
 43
0.0
 43
0.0
 43
0.0
 43
0.0
 43
0.0208333333333333
 43
0.0
 43
0.0
 43
0.0
 43
0.0
 43
1.0
 43
0.0
 43
0.0
 43
0.0
 43
0.0
 43
1.0
 77
     0
 47
0.0208333333333333
 47
0.0
 47
0.0
 47
0.0
 47
0.0
 47
0.0208333333333333
 47
0.0
 47
0.0
 47
0.0
 47
0.0
 47
1.0
 47
0.0
 47
0.0
 47
0.0
 47
0.0
 47
1.0
171
     0
 49
0.0208333333333333
 49
0.0
 49
0.0
 49
0.0
 49
0.0
 49
0.0208333333333333
 49
0.0
 49
0.0
 49
0.0
 49
0.0
 49
1.0
 49
0.0
 49
0.0
 49
0.0
 49
0.0
 49
1.0
175
     0
142
0.0208333333333333
142
0.0
142
0.0
142
0.0
142
0.0
142
0.0208333333333333
142
0.0
142
0.0
142
0.0
142
0.0
142
1.0
142
0.0
142
0.0
142
0.0
142
0.0
142
1.0
179
     0
144
0.0208333333333333
144
0.0
144
0.0
144
0.0
144
0.0
144
0.0208333333333333
144
0.0
144
0.0
144
0.0
144
0.0
144
1.0
144
0.0
144
0.0
144
0.0
144
0.0
144
1.0
147
0.0208333333333333
147
0.0
147
0.0
147
0.0
147
0.0
147
0.0208333333333333
147
0.0
147
0.0
147
0.0
147
0.0
147
1.0
147
0.0
147
0.0
147
0.0
147
0.0
147
1.0
  0
MATERIAL
  5
21
102
{ACAD_XDICTIONARY
360
22
102
}
102
{ACAD_REACTORS
330
10
102
}
330
10
100
AcDbMaterial
  1
Global
 72
     0
 43
0.0208333333333333
 43
0.0
 43
0.0
 43
0.0
 43
0.0
 43
0.0208333333333333
 43
0.0
 43
0.0
 43
0.0
 43
0.0
 43
1.0
 43
0.0
 43
0.0
 43
0.0
 43
0.0
 43
1.0
 77
     0
 47
0.0208333333333333
 47
0.0
 47
0.0
 47
0.0
 47
0.0
 47
0.0208333333333333
 47
0.0
 47
0.0
 47
0.0
 47
0.0
 47
1.0
 47
0.0
 47
0.0
 47
0.0
 47
0.0
 47
1.0
171
     0
 49
0.0208333333333333
 49
0.0
 49
0.0
 49
0.0
 49
0.0
 49
0.0208333333333333
 49
0.0
 49
0.0
 49
0.0
 49
0.0
 49
1.0
 49
0.0
 49
0.0
 49
0.0
 49
0.0
 49
1.0
175
     0
142
0.0208333333333333
142
0.0
142
0.0
142
0.0
142
0.0
142
0.0208333333333333
142
0.0
142
0.0
142
0.0
142
0.0
142
1.0
142
0.0
142
0.0
142
0.0
142
0.0
142
1.0
179
     0
144
0.0208333333333333
144
0.0
144
0.0
144
0.0
144
0.0
144
0.0208333333333333
144
0.0
144
0.0
144
0.0
144
0.0
144
1.0
144
0.0
144
0.0
144
0.0
144
0.0
144
1.0
147
0.0208333333333333
147
0.0
147
0.0
147
0.0
147
0.0
147
0.0208333333333333
147
0.0
147
0.0
147
0.0
147
0.0
147
1.0
147
0.0
147
0.0
147
0.0
147
0.0
147
1.0
  0
MLEADERSTYLE
  5
66
102
{ACAD_REACTORS
330
65
102
}
330
65
100
AcDbMLeaderStyle
179
     2
170
     2
171
     1
172
     0
 90
        2
 40
0.0
 41
0.0
173
     1
 91
-1056964608
340
5A
 92
       -2
290
     1
 42
0.09
291
     1
 43
0.36
  3
Standard
 44
0.18
300

342
55
174
     1
178
     6
175
     1
176
     0
 93
-1056964608
 45
0.18
292
     0
297
     0
 46
0.18
 94
-1056964608
 47
1.0
 49
1.0
140
1.0
293
     1
141
0.0
294
     1
177
     0
142
1.0
295
     0
296
     0
143
0.125
271
     0
272
     9
273
     9
298
     0
  0
MLINESTYLE
  5
5F
102
{ACAD_REACTORS
330
5E
102
}
330
5E
100
AcDbMlineStyle
  2
STANDARD
 70
     0
  3

 62
   256
 51
90.0
 52
90.0
 71
     2
 49
0.5
 62
   256
  6
BYLAYER
 49
-0.5
 62
   256
  6
BYLAYER
  0
ACDBPLACEHOLDER
  5
F
102
{ACAD_REACTORS
330
E
102
}
330
E
  0
SCALE
  5
43
102
{ACAD_REACTORS
330
42
102
}
330
42
100
AcDbScale
 70
     0
300
1:1
140
1.0
141
1.0
290
     1
  0
SCALE
  5
44
102
{ACAD_REACTORS
330
42
102
}
330
42
100
AcDbScale
 70
     0
300
1/128" = 1'-0"
140
0.0078125
141
12.0
290
     0
  0
SCALE
  5
45
102
{ACAD_REACTORS
330
42
102
}
330
42
100
AcDbScale
 70
     0
300
1/64" = 1'-0"
140
0.015625
141
12.0
290
     0
  0
SCALE
  5
46
102
{ACAD_REACTORS
330
42
102
}
330
42
100
AcDbScale
 70
     0
300
1/32" = 1'-0"
140
0.03125
141
12.0
290
     0
  0
SCALE
  5
47
102
{ACAD_REACTORS
330
42
102
}
330
42
100
AcDbScale
 70
     0
300
1/16" = 1'-0"
140
0.0625
141
12.0
290
     0
  0
SCALE
  5
48
102
{ACAD_REACTORS
330
42
102
}
330
42
100
AcDbScale
 70
     0
300
3/32" = 1'-0"
140
0.09375
141
12.0
290
     0
  0
SCALE
  5
49
102
{ACAD_REACTORS
330
42
102
}
330
42
100
AcDbScale
 70
     0
300
1/8" = 1'-0"
140
0.125
141
12.0
290
     0
  0
SCALE
  5
4A
102
{ACAD_REACTORS
330
42
102
}
330
42
100
AcDbScale
 70
     0
300
3/16" = 1'-0"
140
0.1875
141
12.0
290
     0
  0
SCALE
  5
4B
102
{ACAD_REACTORS
330
42
102
}
330
42
100
AcDbScale
 70
     0
300
1/4" = 1'-0"
140
0.25
141
12.0
290
     0
  0
SCALE
  5
4C
102
{ACAD_REACTORS
330
42
102
}
330
42
100
AcDbScale
 70
     0
300
3/8" = 1'-0"
140
0.375
141
12.0
290
     0
  0
SCALE
  5
4D
102
{ACAD_REACTORS
330
42
102
}
330
42
100
AcDbScale
 70
     0
300
1/2" = 1'-0"
140
0.5
141
12.0
290
     0
  0
SCALE
  5
4E
102
{ACAD_REACTORS
330
42
102
}
330
42
100
AcDbScale
 70
     0
300
3/4" = 1'-0"
140
0.75
141
12.0
290
     0
  0
SCALE
  5
4F
102
{ACAD_REACTORS
330
42
102
}
330
42
100
AcDbScale
 70
     0
300
1" = 1'-0"
140
1.0
141
12.0
290
     0
  0
SCALE
  5
50
102
{ACAD_REACTORS
330
42
102
}
330
42
100
AcDbScale
 70
     0
300
1-1/2" = 1'-0"
140
1.5
141
12.0
290
     0
  0
SCALE
  5
51
102
{ACAD_REACTORS
330
42
102
}
330
42
100
AcDbScale
 70
     0
300
3" = 1'-0"
140
3.0
141
12.0
290
     0
  0
SCALE
  5
52
102
{ACAD_REACTORS
330
42
102
}
330
42
100
AcDbScale
 70
     0
300
6" = 1'-0"
140
6.0
141
12.0
290
     0
  0
SCALE
  5
53
102
{ACAD_REACTORS
330
42
102
}
330
42
100
AcDbScale
 70
     0
300
1'-0" = 1'-0"
140
12.0
141
12.0
290
     0
  0
ACDBSECTIONVIEWSTYLE
  5
68
102
{ACAD_REACTORS
330
67
102
}
330
67
100
AcDbModelDocViewStyle
 70
     0
  3
Imperial24
290
     0
300
Imperial24
 90
        0
100
AcDbSectionViewStyle
 70
     0
 71
     0
 90
       78
 71
     1
340
55
 62
   256
 40
0.24
340
0
340
0
 62
   256
 40
0.24
300
I, O, Q, S, X, Z
 40
0.48
 90
        3
 40
0.18
 90
        1
 71
     2
340
5C
 90
       25
 62
   256
340
5C
 90
       50
 62
   256
 40
0.24
 40
0.0
 40
0.24
 71
     3
340
55
 62
   256
 40
0.24
 90
        1
 40
0.75
 90
        1
300
%<\AcVar ViewType \f "%tc1">% %<\AcVar ViewSectionStartId>%-%<\AcVar ViewSectionEndId>%\PSCALE %<\AcVar ViewScale \f "%sn">%
 71
     4
 62
   256
 62
   257
300
ANSI31
 40
1.0
 90
        0
290
     0
290
     0
 90
        6
 40
0.0
 40
1.570796326794896
 40
0.2617993877991494
 40
1.308996938995747
 40
-0.2617993877991494
 40
1.832595714594046
  0
TABLESTYLE
  5
64
102
{ACAD_XDICTIONARY
360
B04
102
}
102
{ACAD_REACTORS
330
63
102
}
330
63
100
AcDbTableStyle
280
     0
  3
Standard
 70
     0
 71
     0
 40
0.06
 41
0.06
280
     0
281
     0
  7
Standard
140
0.18
170
     2
 62
     0
 63
     7
283
     0
 90
      512
 91
        0
  1

274
    -2
284
     1
 64
     0
275
    -2
285
     1
 65
     0
276
    -2
286
     1
 66
     0
277
    -2
287
     1
 67
     0
278
    -2
288
     1
 68
     0
279
    -2
289
     1
 69
     0
  7
Standard
140
0.25
170
     5
 62
     0
 63
     7
283
     0
 90
      512
 91
        0
  1

274
    -2
284
     1
 64
     0
275
    -2
285
     1
 65
     0
276
    -2
286
     1
 66
     0
277
    -2
287
     1
 67
     0
278
    -2
288
     1
 68
     0
279
    -2
289
     1
 69
     0
  7
Standard
140
0.18
170
     5
 62
     0
 63
     7
283
     0
 90
      512
 91
        0
  1

274
    -2
284
     1
 64
     0
275
    -2
285
     1
 65
     0
276
    -2
286
     1
 66
     0
277
    -2
287
     1
 67
     0
278
    -2
288
     1
 68
     0
279
    -2
289
     1
 69
     0
  0
VISUALSTYLE
  5
2F
102
{ACAD_REACTORS
330
29
102
}
330
29
100
AcDbVisualStyle
  2
2dWireframe
 70
     4
177
     3
291
     0
 70
    58
 90
        0
176
     1
 90
        2
176
     1
 90
        0
176
     1
 90
        0
176
     1
 40
0.6
176
     1
 40
30.0
176
     1
 62
     7
420
 16777215
176
     1
 90
        1
176
     1
 90
        4
176
     1
 62
     7
176
     1
 62
   257
176
     1
 90
        1
176
     1
 90
        1
176
     1
 40
1.0
176
     1
 90
        0
176
     1
 62
   257
176
     1
 40
1.0
176
     1
 90
        1
176
     1
 90
        6
176
     1
 90
        2
176
     1
 62
     7
176
     1
 90
        5
176
     1
 90
        0
176
     1
 90
        0
176
     1
290
     0
176
     1
 90
        1
176
     1
 40
0.0
176
     1
 90
        0
176
     1
290
     1
176
     1
290
     1
176
     1
290
     0
176
     1
290
     0
176
     1
290
     0
176
     1
290
     0
176
     1
290
     0
176
     1
290
     0
176
     1
290
     0
176
     1
 90
       50
176
     1
 40
0.0
176
     1
 40
1.0
176
     1
 90
        0
176
     1
 62
    18
420
        0
176
     1
 90
       50
176
     1
 90
        3
176
     1
 62
     5
420
      255
176
     1
290
     0
176
     1
 90
       50
176
     1
 90
       50
176
     1
 90
       50
176
     1
290
     0
176
     1
 90
       50
176
     1
 62
   256
176
     0
 40
1.0
176
     0
 90
        2
176
     1
  1
strokes_ogs.tif
176
     1
290
     0
176
     1
 40
1.0
176
     1
 40
1.0
176
     1
  0
VISUALSTYLE
  5
2E
102
{ACAD_REACTORS
330
29
102
}
330
29
100
AcDbVisualStyle
  2
Basic
 70
     7
177
     3
291
     1
 70
    58
 90
        1
176
     1
 90
        0
176
     1
 90
        1
176
     1
 90
        0
176
     1
 40
0.6
176
     1
 40
30.0
176
     1
 62
     7
420
 16777215
176
     1
 90
        0
176
     1
 90
        4
176
     1
 62
     7
176
     1
 62
   257
176
     1
 90
        1
176
     1
 90
        1
176
     1
 40
1.0
176
     1
 90
        8
176
     1
 62
     7
176
     1
 40
1.0
176
     1
 90
        1
176
     1
 90
        6
176
     1
 90
        2
176
     1
 62
     7
176
     1
 90
        5
176
     1
 90
        0
176
     1
 90
        0
176
     1
290
     0
176
     1
 90
        1
176
     1
 40
0.0
176
     1
 90
        0
176
     1
290
     0
176
     1
290
     1
176
     1
290
     1
176
     1
290
     0
176
     1
290
     0
176
     1
290
     0
176
     1
290
     0
176
     1
290
     0
176
     1
290
     0
176
     1
 90
       50
176
     1
 40
0.0
176
     1
 40
1.0
176
     1
 90
        0
176
     1
 62
    18
420
        0
176
     1
 90
       50
176
     1
 90
        3
176
     1
 62
     5
420
      255
176
     1
290
     0
176
     1
 90
       50
176
     1
 90
       50
176
     1
 90
       50
176
     1
290
     0
176
     1
 90
       50
176
     1
 62
   256
176
     0
 40
1.0
176
     0
 90
        2
176
     1
  1
strokes_ogs.tif
176
     1
290
     0
176
     1
 40
1.0
176
     1
 40
1.0
176
     1
  0
VISUALSTYLE
  5
35
102
{ACAD_REACTORS
330
29
102
}
330
29
100
AcDbVisualStyle
  2
Brighten
 70
    12
177
     3
291
     1
 70
    58
 90
        2
176
     1
 90
        2
176
     1
 90
        0
176
     1
 90
        0
176
     1
 40
0.6
176
     1
 40
30.0
176
     1
 62
     7
420
 16777215
176
     1
 90
        1
176
     1
 90
        4
176
     1
 62
     7
176
     1
 62
   257
176
     1
 90
        1
176
     1
 90
        1
176
     1
 40
1.0
176
     1
 90
        8
176
     1
 62
     7
176
     1
 40
1.0
176
     1
 90
        1
176
     1
 90
        6
176
     1
 90
        2
176
     1
 62
     7
176
     1
 90
        5
176
     1
 90
        0
176
     1
 90
        0
176
     1
290
     0
176
     1
 90
        1
176
     1
 40
50.0
176
     1
 90
        0
176
     1
290
     0
176
     1
290
     1
176
     1
290
     1
176
     1
290
     0
176
     1
290
     0
176
     1
290
     0
176
     1
290
     0
176
     1
290
     0
176
     1
290
     0
176
     1
 90
       50
176
     1
 40
0.0
176
     1
 40
1.0
176
     1
 90
        0
176
     1
 62
    18
420
        0
176
     1
 90
       50
176
     1
 90
        3
176
     1
 62
     5
420
      255
176
     1
290
     0
176
     1
 90
       50
176
     1
 90
       50
176
     1
 90
       50
176
     1
290
     0
176
     1
 90
       50
176
     1
 62
   256
176
     0
 40
1.0
176
     0
 90
        2
176
     1
  1
strokes_ogs.tif
176
     1
290
     0
176
     1
 40
1.0
176
     1
 40
1.0
176
     1
  0
VISUALSTYLE
  5
39
102
{ACAD_REACTORS
330
29
102
}
330
29
100
AcDbVisualStyle
  2
ColorChange
 70
    16
177
     3
291
     1
 70
    58
 90
        2
176
     1
 90
        2
176
     1
 90
        3
176
     1
 90
        0
176
     1
 40
0.6
176
     1
 40
30.0
176
     1
 62
     8
420
  8421504
176
     1
 90
        1
176
     1
 90
        4
176
     1
 62
     7
176
     1
 62
   257
176
     1
 90
        1
176
     1
 90
        1
176
     1
 40
1.0
176
     1
 90
        8
176
     1
 62
     8
420
  8421504
176
     1
 40
1.0
176
     1
 90
        1
176
     1
 90
        6
176
     1
 90
        2
176
     1
 62
     7
176
     1
 90
        5
176
     1
 90
        0
176
     1
 90
        0
176
     1
290
     0
176
     1
 90
        1
176
     1
 40
0.0
176
     1
 90
        0
176
     1
290
     0
176
     1
290
     1
176
     1
290
     1
176
     1
290
     0
176
     1
290
     0
176
     1
290
     0
176
     1
290
     0
176
     1
290
     0
176
     1
290
     0
176
     1
 90
       50
176
     1
 40
0.0
176
     1
 40
1.0
176
     1
 90
        0
176
     1
 62
    18
420
        0
176
     1
 90
       50
176
     1
 90
        3
176
     1
 62
     5
420
      255
176
     1
290
     0
176
     1
 90
       50
176
     1
 90
       50
176
     1
 90
       50
176
     1
290
     0
176
     1
 90
       50
176
     1
 62
   256
176
     0
 40
1.0
176
     0
 90
        2
176
     1
  1
strokes_ogs.tif
176
     1
290
     0
176
     1
 40
1.0
176
     1
 40
1.0
176
     1
  0
VISUALSTYLE
  5
32
102
{ACAD_REACTORS
330
29
102
}
330
29
100
AcDbVisualStyle
  2
Conceptual
 70
     9
177
     3
291
     0
 70
    58
 90
        3
176
     1
 90
        2
176
     1
 90
        0
176
     1
 90
        0
176
     1
 40
0.6
176
     1
 40
30.0
176
     1
 62
     7
420
 16777215
176
     1
 90
        2
176
     1
 90
        2
176
     1
 62
     7
176
     1
 62
   257
176
     1
 90
        1
176
     1
 90
        1
176
     1
 40
179.0
176
     1
 90
        8
176
     1
 62
     7
176
     1
 40
1.0
176
     1
 90
        1
176
     1
 90
        6
176
     1
 90
        2
176
     1
 62
     7
176
     1
 90
        3
176
     1
 90
        0
176
     1
 90
        0
176
     1
290
     0
176
     1
 90
        1
176
     1
 40
0.0
176
     1
 90
        0
176
     1
290
     0
176
     1
290
     1
176
     1
290
     1
176
     1
290
     0
176
     1
290
     0
176
     1
290
     0
176
     1
290
     0
176
     1
290
     0
176
     1
290
     0
176
     1
 90
       50
176
     1
 40
0.0
176
     1
 40
1.0
176
     1
 90
        0
176
     1
 62
    18
420
        0
176
     1
 90
       50
176
     1
 90
        3
176
     1
 62
     5
420
      255
176
     1
290
     0
176
     1
 90
       50
176
     1
 90
       50
176
     1
 90
       50
176
     1
290
     0
176
     1
 90
       50
176
     1
 62
   256
176
     0
 40
1.0
176
     0
 90
        2
176
     1
  1
strokes_ogs.tif
176
     1
290
     0
176
     1
 40
1.0
176
     1
 40
1.0
176
     1
  0
VISUALSTYLE
  5
34
102
{ACAD_REACTORS
330
29
102
}
330
29
100
AcDbVisualStyle
  2
Dim
 70
    11
177
     3
291
     1
 70
    58
 90
        2
176
     1
 90
        2
176
     1
 90
        0
176
     1
 90
        0
176
     1
 40
0.6
176
     1
 40
30.0
176
     1
 62
     7
420
 16777215
176
     1
 90
        1
176
     1
 90
        4
176
     1
 62
     7
176
     1
 62
   257
176
     1
 90
        1
176
     1
 90
        1
176
     1
 40
1.0
176
     1
 90
        8
176
     1
 62
     7
176
     1
 40
1.0
176
     1
 90
        1
176
     1
 90
        6
176
     1
 90
        2
176
     1
 62
     7
176
     1
 90
        5
176
     1
 90
        0
176
     1
 90
        0
176
     1
290
     0
176
     1
 90
        1
176
     1
 40
-50.0
176
     1
 90
        0
176
     1
290
     0
176
     1
290
     1
176
     1
290
     1
176
     1
290
     0
176
     1
290
     0
176
     1
290
     0
176
     1
290
     0
176
     1
290
     0
176
     1
290
     0
176
     1
 90
       50
176
     1
 40
0.0
176
     1
 40
1.0
176
     1
 90
        0
176
     1
 62
    18
420
        0
176
     1
 90
       50
176
     1
 90
        3
176
     1
 62
     5
420
      255
176
     1
290
     0
176
     1
 90
       50
176
     1
 90
       50
176
     1
 90
       50
176
     1
290
     0
176
     1
 90
       50
176
     1
 62
   256
176
     0
 40
1.0
176
     0
 90
        2
176
     1
  1
strokes_ogs.tif
176
     1
290
     0
176
     1
 40
1.0
176
     1
 40
1.0
176
     1
  0
VISUALSTYLE
  5
41
102
{ACAD_REACTORS
330
29
102
}
330
29
100
AcDbVisualStyle
  2
EdgeColorOff
 70
    22
177
     3
291
     1
 70
    58
 90
        2
176
     0
 90
        2
176
     0
 90
        0
176
     0
 90
        0
176
     0
 40
0.6
176
     0
 40
30.0
176
     0
 62
     7
420
 16777215
176
     0
 90
        1
176
     0
 90
        4
176
     0
 62
     7
176
     0
 62
   257
176
     0
 90
        1
176
     0
 90
        1
176
     0
 40
1.0
176
     0
 90
        8
176
     2
 62
     7
176
     0
 40
1.0
176
     0
 90
        1
176
     0
 90
        6
176
     0
 90
        2
176
     0
 62
     7
176
     0
 90
        5
176
     0
 90
        0
176
     0
 90
        0
176
     0
290
     0
176
     0
 90
        1
176
     0
 40
0.0
176
     0
 90
        0
176
     0
290
     0
176
     1
290
     1
176
     1
290
     1
176
     1
290
     0
176
     1
290
     0
176
     1
290
     0
176
     1
290
     0
176
     1
290
     0
176
     1
290
     0
176
     1
 90
       50
176
     0
 40
0.0
176
     0
 40
1.0
176
     0
 90
        0
176
     0
 62
    18
420
        0
176
     0
 90
       50
176
     0
 90
        3
176
     0
 62
     5
420
      255
176
     0
290
     0
176
     1
 90
       50
176
     0
 90
       50
176
     0
 90
       50
176
     0
290
     0
176
     1
 90
       50
176
     0
 62
   256
176
     0
 40
1.0
176
     0
 90
        2
176
     0
  1
strokes_ogs.tif
176
     0
290
     0
176
     1
 40
1.0
176
     0
 40
1.0
176
     0
  0
VISUALSTYLE
  5
38
102
{ACAD_REACTORS
330
29
102
}
330
29
100
AcDbVisualStyle
  2
Facepattern
 70
    15
177
     3
291
     1
 70
    58
 90
        2
176
     1
 90
        2
176
     1
 90
        0
176
     1
 90
        0
176
     1
 40
0.6
176
     1
 40
30.0
176
     1
 62
     7
420
 16777215
176
     1
 90
        1
176
     1
 90
        4
176
     1
 62
     7
176
     1
 62
   257
176
     1
 90
        1
176
     1
 90
        1
176
     1
 40
1.0
176
     1
 90
        8
176
     1
 62
     7
176
     1
 40
1.0
176
     1
 90
        1
176
     1
 90
        6
176
     1
 90
        2
176
     1
 62
     7
176
     1
 90
        5
176
     1
 90
        0
176
     1
 90
        0
176
     1
290
     0
176
     1
 90
        1
176
     1
 40
0.0
176
     1
 90
        0
176
     1
290
     0
176
     1
290
     1
176
     1
290
     1
176
     1
290
     0
176
     1
290
     0
176
     1
290
     0
176
     1
290
     0
176
     1
290
     0
176
     1
290
     0
176
     1
 90
       50
176
     1
 40
0.0
176
     1
 40
1.0
176
     1
 90
        0
176
     1
 62
    18
420
        0
176
     1
 90
       50
176
     1
 90
        3
176
     1
 62
     5
420
      255
176
     1
290
     0
176
     1
 90
       50
176
     1
 90
       50
176
     1
 90
       50
176
     1
290
     0
176
     1
 90
       50
176
     1
 62
   256
176
     0
 40
1.0
176
     0
 90
        2
176
     1
  1
strokes_ogs.tif
176
     1
290
     0
176
     1
 40
1.0
176
     1
 40
1.0
176
     1
  0
VISUALSTYLE
  5
2A
102
{ACAD_REACTORS
330
29
102
}
330
29
100
AcDbVisualStyle
  2
Flat
 70
     0
177
     3
291
     1
 70
    58
 90
        2
176
     1
 90
        1
176
     1
 90
        1
176
     1
 90
        2
176
     1
 40
0.6
176
     1
 40
30.0
176
     1
 62
     7
420
 16777215
176
     1
 90
        0
176
     1
 90
        0
176
     1
 62
     7
176
     1
 62
   257
176
     1
 90
        1
176
     1
 90
        1
176
     1
 40
1.0
176
     1
 90
        8
176
     1
 62
     7
176
     1
 40
1.0
176
     1
 90
        1
176
     1
 90
        6
176
     1
 90
        2
176
     1
 62
     7
176
     1
 90
        5
176
     1
 90
        0
176
     1
 90
        0
176
     1
290
     0
176
     1
 90
       13
176
     1
 40
0.0
176
     1
 90
        0
176
     1
290
     0
176
     1
290
     1
176
     1
290
     1
176
     1
290
     0
176
     1
290
     0
176
     1
290
     0
176
     1
290
     0
176
     1
290
     0
176
     1
290
     0
176
     1
 90
       50
176
     1
 40
0.0
176
     1
 40
1.0
176
     1
 90
        0
176
     1
 62
    18
420
        0
176
     1
 90
       50
176
     1
 90
        3
176
     1
 62
     5
420
      255
176
     1
290
     0
176
     1
 90
       50
176
     1
 90
       50
176
     1
 90
       50
176
     1
290
     0
176
     1
 90
       50
176
     1
 62
   256
176
     0
 40
1.0
176
     0
 90
        2
176
     1
  1
strokes_ogs.tif
176
     1
290
     0
176
     1
 40
1.0
176
     1
 40
1.0
176
     1
  0
VISUALSTYLE
  5
2B
102
{ACAD_REACTORS
330
29
102
}
330
29
100
AcDbVisualStyle
  2
FlatWithEdges
 70
     1
177
     3
291
     1
 70
    58
 90
        2
176
     1
 90
        1
176
     1
 90
        1
176
     1
 90
        2
176
     1
 40
0.6
176
     1
 40
30.0
176
     1
 62
     7
420
 16777215
176
     1
 90
        1
176
     1
 90
        0
176
     1
 62
     7
176
     1
 62
   257
176
     1
 90
        1
176
     1
 90
        1
176
     1
 40
1.0
176
     1
 90
        0
176
     1
 62
   257
176
     1
 40
1.0
176
     1
 90
        1
176
     1
 90
        6
176
     1
 90
        2
176
     1
 62
     7
176
     1
 90
        5
176
     1
 90
        0
176
     1
 90
        0
176
     1
290
     0
176
     1
 90
       13
176
     1
 40
0.0
176
     1
 90
        0
176
     1
290
     0
176
     1
290
     1
176
     1
290
     1
176
     1
290
     0
176
     1
290
     0
176
     1
290
     0
176
     1
290
     0
176
     1
290
     0
176
     1
290
     0
176
     1
 90
       50
176
     1
 40
0.0
176
     1
 40
1.0
176
     1
 90
        0
176
     1
 62
    18
420
        0
176
     1
 90
       50
176
     1
 90
        3
176
     1
 62
     5
420
      255
176
     1
290
     0
176
     1
 90
       50
176
     1
 90
       50
176
     1
 90
       50
176
     1
290
     0
176
     1
 90
       50
176
     1
 62
   256
176
     0
 40
1.0
176
     0
 90
        2
176
     1
  1
strokes_ogs.tif
176
     1
290
     0
176
     1
 40
1.0
176
     1
 40
1.0
176
     1
  0
VISUALSTYLE
  5
2C
102
{ACAD_REACTORS
330
29
102
}
330
29
100
AcDbVisualStyle
  2
Gouraud
 70
     2
177
     3
291
     1
 70
    58
 90
        2
176
     1
 90
        2
176
     1
 90
        1
176
     1
 90
        2
176
     1
 40
0.6
176
     1
 40
30.0
176
     1
 62
     7
420
 16777215
176
     1
 90
        0
176
     1
 90
        0
176
     1
 62
     7
176
     1
 62
   257
176
     1
 90
        1
176
     1
 90
        1
176
     1
 40
1.0
176
     1
 90
        0
176
     1
 62
     7
176
     1
 40
1.0
176
     1
 90
        1
176
     1
 90
        6
176
     1
 90
        2
176
     1
 62
     7
176
     1
 90
        5
176
     1
 90
        0
176
     1
 90
        0
176
     1
290
     0
176
     1
 90
       13
176
     1
 40
0.0
176
     1
 90
        0
176
     1
290
     0
176
     1
290
     1
176
     1
290
     1
176
     1
290
     0
176
     1
290
     0
176
     1
290
     0
176
     1
290
     0
176
     1
290
     0
176
     1
290
     0
176
     1
 90
       50
176
     1
 40
0.0
176
     1
 40
1.0
176
     1
 90
        0
176
     1
 62
    18
420
        0
176
     1
 90
       50
176
     1
 90
        3
176
     1
 62
     5
420
      255
176
     1
290
     0
176
     1
 90
       50
176
     1
 90
       50
176
     1
 90
       50
176
     1
290
     0
176
     1
 90
       50
176
     1
 62
   256
176
     0
 40
1.0
176
     0
 90
        2
176
     1
  1
strokes_ogs.tif
176
     1
290
     0
176
     1
 40
1.0
176
     1
 40
1.0
176
     1
  0
VISUALSTYLE
  5
2D
102
{ACAD_REACTORS
330
29
102
}
330
29
100
AcDbVisualStyle
  2
GouraudWithEdges
 70
     3
177
     3
291
     1
 70
    58
 90
        2
176
     1
 90
        2
176
     1
 90
        1
176
     1
 90
        2
176
     1
 40
0.6
176
     1
 40
30.0
176
     1
 62
     7
420
 16777215
176
     1
 90
        1
176
     1
 90
        0
176
     1
 62
     7
176
     1
 62
   257
176
     1
 90
        1
176
     1
 90
        1
176
     1
 40
1.0
176
     1
 90
        0
176
     1
 62
   257
176
     1
 40
1.0
176
     1
 90
        1
176
     1
 90
        6
176
     1
 90
        2
176
     1
 62
     7
176
     1
 90
        5
176
     1
 90
        0
176
     1
 90
        0
176
     1
290
     0
176
     1
 90
       13
176
     1
 40
0.0
176
     1
 90
        0
176
     1
290
     0
176
     1
290
     1
176
     1
290
     1
176
     1
290
     0
176
     1
290
     0
176
     1
290
     0
176
     1
290
     0
176
     1
290
     0
176
     1
290
     0
176
     1
 90
       50
176
     1
 40
0.0
176
     1
 40
1.0
176
     1
 90
        0
176
     1
 62
    18
420
        0
176
     1
 90
       50
176
     1
 90
        3
176
     1
 62
     5
420
      255
176
     1
290
     0
176
     1
 90
       50
176
     1
 90
       50
176
     1
 90
       50
176
     1
290
     0
176
     1
 90
       50
176
     1
 62
   256
176
     0
 40
1.0
176
     0
 90
        2
176
     1
  1
strokes_ogs.tif
176
     1
290
     0
176
     1
 40
1.0
176
     1
 40
1.0
176
     1
  0
VISUALSTYLE
  5
31
102
{ACAD_REACTORS
330
29
102
}
330
29
100
AcDbVisualStyle
  2
Hidden
 70
     6
177
     3
291
     0
 70
    58
 90
        1
176
     1
 90
        2
176
     1
 90
        2
176
     1
 90
        0
176
     1
 40
0.6
176
     1
 40
30.0
176
     1
 62
     7
420
 16777215
176
     1
 90
        2
176
     1
 90
        2
176
     1
 62
     7
176
     1
 62
   257
176
     1
 90
        2
176
     1
 90
        1
176
     1
 40
40.0
176
     1
 90
        0
176
     1
 62
   257
176
     1
 40
1.0
176
     1
 90
        1
176
     1
 90
        6
176
     1
 90
        2
176
     1
 62
     7
176
     1
 90
        3
176
     1
 90
        0
176
     1
 90
        0
176
     1
290
     0
176
     1
 90
        1
176
     1
 40
0.0
176
     1
 90
        0
176
     1
290
     0
176
     1
290
     1
176
     1
290
     1
176
     1
290
     0
176
     1
290
     0
176
     1
290
     0
176
     1
290
     0
176
     1
290
     0
176
     1
290
     0
176
     1
 90
       50
176
     1
 40
0.0
176
     1
 40
1.0
176
     1
 90
        0
176
     1
 62
    18
420
        0
176
     1
 90
       50
176
     1
 90
        3
176
     1
 62
     5
420
      255
176
     1
290
     0
176
     1
 90
       50
176
     1
 90
       50
176
     1
 90
       50
176
     1
290
     0
176
     1
 90
       50
176
     1
 62
   256
176
     0
 40
1.0
176
     0
 90
        2
176
     1
  1
strokes_ogs.tif
176
     1
290
     0
176
     1
 40
1.0
176
     1
 40
1.0
176
     1
  0
VISUALSTYLE
  5
3F
102
{ACAD_REACTORS
330
29
102
}
330
29
100
AcDbVisualStyle
  2
JitterOff
 70
    20
177
     3
291
     1
 70
    58
 90
        2
176
     0
 90
        2
176
     0
 90
        0
176
     0
 90
        0
176
     0
 40
0.6
176
     0
 40
30.0
176
     0
 62
     7
420
 16777215
176
     0
 90
        1
176
     0
 90
        4
176
     0
 62
     7
176
     0
 62
   257
176
     0
 90
        1
176
     0
 90
        1
176
     0
 40
1.0
176
     0
 90
       10
176
     2
 62
     7
176
     0
 40
1.0
176
     0
 90
        1
176
     0
 90
        6
176
     0
 90
        2
176
     0
 62
     7
176
     0
 90
        5
176
     0
 90
        0
176
     0
 90
        0
176
     0
290
     0
176
     0
 90
        1
176
     0
 40
0.0
176
     0
 90
        0
176
     0
290
     0
176
     1
290
     1
176
     1
290
     1
176
     1
290
     0
176
     1
290
     0
176
     1
290
     0
176
     1
290
     0
176
     1
290
     0
176
     1
290
     0
176
     1
 90
       50
176
     0
 40
0.0
176
     0
 40
1.0
176
     0
 90
        0
176
     0
 62
    18
420
        0
176
     0
 90
       50
176
     0
 90
        3
176
     0
 62
     5
420
      255
176
     0
290
     0
176
     1
 90
       50
176
     0
 90
       50
176
     0
 90
       50
176
     0
290
     0
176
     1
 90
       50
176
     0
 62
   256
176
     0
 40
1.0
176
     0
 90
        2
176
     0
  1
strokes_ogs.tif
176
     0
290
     0
176
     1
 40
1.0
176
     0
 40
1.0
176
     0
  0
VISUALSTYLE
  5
37
102
{ACAD_REACTORS
330
29
102
}
330
29
100
AcDbVisualStyle
  2
Linepattern
 70
    14
177
     3
291
     1
 70
    58
 90
        2
176
     1
 90
        2
176
     1
 90
        0
176
     1
 90
        0
176
     1
 40
0.6
176
     1
 40
30.0
176
     1
 62
     7
420
 16777215
176
     1
 90
        1
176
     1
 90
        4
176
     1
 62
     7
176
     1
 62
   257
176
     1
 90
        7
176
     1
 90
        7
176
     1
 40
1.0
176
     1
 90
        8
176
     1
 62
     7
176
     1
 40
1.0
176
     1
 90
        1
176
     1
 90
        6
176
     1
 90
        2
176
     1
 62
     7
176
     1
 90
        5
176
     1
 90
        0
176
     1
 90
        0
176
     1
290
     0
176
     1
 90
        1
176
     1
 40
0.0
176
     1
 90
        0
176
     1
290
     0
176
     1
290
     1
176
     1
290
     1
176
     1
290
     0
176
     1
290
     0
176
     1
290
     0
176
     1
290
     0
176
     1
290
     0
176
     1
290
     0
176
     1
 90
       50
176
     1
 40
0.0
176
     1
 40
1.0
176
     1
 90
        0
176
     1
 62
    18
420
        0
176
     1
 90
       50
176
     1
 90
        3
176
     1
 62
     5
420
      255
176
     1
290
     0
176
     1
 90
       50
176
     1
 90
       50
176
     1
 90
       50
176
     1
290
     0
176
     1
 90
       50
176
     1
 62
   256
176
     0
 40
1.0
176
     0
 90
        2
176
     1
  1
strokes_ogs.tif
176
     1
290
     0
176
     1
 40
1.0
176
     1
 40
1.0
176
     1
  0
VISUALSTYLE
  5
40
102
{ACAD_REACTORS
330
29
102
}
330
29
100
AcDbVisualStyle
  2
OverhangOff
 70
    21
177
     3
291
     1
 70
    58
 90
        2
176
     0
 90
        2
176
     0
 90
        0
176
     0
 90
        0
176
     0
 40
0.6
176
     0
 40
30.0
176
     0
 62
     7
420
 16777215
176
     0
 90
        1
176
     0
 90
        4
176
     0
 62
     7
176
     0
 62
   257
176
     0
 90
        1
176
     0
 90
        1
176
     0
 40
1.0
176
     0
 90
        9
176
     2
 62
     7
176
     0
 40
1.0
176
     0
 90
        1
176
     0
 90
        6
176
     0
 90
        2
176
     0
 62
     7
176
     0
 90
        5
176
     0
 90
        0
176
     0
 90
        0
176
     0
290
     0
176
     0
 90
        1
176
     0
 40
0.0
176
     0
 90
        0
176
     0
290
     0
176
     1
290
     1
176
     1
290
     1
176
     1
290
     0
176
     1
290
     0
176
     1
290
     0
176
     1
290
     0
176
     1
290
     0
176
     1
290
     0
176
     1
 90
       50
176
     0
 40
0.0
176
     0
 40
1.0
176
     0
 90
        0
176
     0
 62
    18
420
        0
176
     0
 90
       50
176
     0
 90
        3
176
     0
 62
     5
420
      255
176
     0
290
     0
176
     1
 90
       50
176
     0
 90
       50
176
     0
 90
       50
176
     0
290
     0
176
     1
 90
       50
176
     0
 62
   256
176
     0
 40
1.0
176
     0
 90
        2
176
     0
  1
strokes_ogs.tif
176
     0
290
     0
176
     1
 40
1.0
176
     0
 40
1.0
176
     0
  0
VISUALSTYLE
  5
33
102
{ACAD_REACTORS
330
29
102
}
330
29
100
AcDbVisualStyle
  2
Realistic
 70
     8
177
     3
291
     0
 70
    58
 90
        2
176
     1
 90
        3
176
     1
 90
        0
176
     1
 90
        2
176
     1
 40
0.6
176
     1
 40
30.0
176
     1
 62
     7
420
 16777215
176
     1
 90
        0
176
     1
 90
        0
176
     1
 62
     7
176
     1
 62
   257
176
     1
 90
        1
176
     1
 90
        1
176
     1
 40
1.0
176
     1
 90
        8
176
     1
 62
   257
176
     1
 40
1.0
176
     1
 90
        1
176
     1
 90
        6
176
     1
 90
        2
176
     1
 62
     7
176
     1
 90
        3
176
     1
 90
        0
176
     1
 90
        0
176
     1
290
     0
176
     1
 90
       13
176
     1
 40
0.0
176
     1
 90
        0
176
     1
290
     0
176
     1
290
     1
176
     1
290
     1
176
     1
290
     0
176
     1
290
     0
176
     1
290
     0
176
     1
290
     0
176
     1
290
     0
176
     1
290
     0
176
     1
 90
       50
176
     1
 40
0.0
176
     1
 40
1.0
176
     1
 90
        0
176
     1
 62
    18
420
        0
176
     1
 90
       50
176
     1
 90
        3
176
     1
 62
     5
420
      255
176
     1
290
     0
176
     1
 90
       50
176
     1
 90
       50
176
     1
 90
       50
176
     1
290
     0
176
     1
 90
       50
176
     1
 62
   256
176
     0
 40
1.0
176
     0
 90
        2
176
     1
  1
strokes_ogs.tif
176
     1
290
     0
176
     1
 40
1.0
176
     1
 40
1.0
176
     1
  0
VISUALSTYLE
  5
3E
102
{ACAD_REACTORS
330
29
102
}
330
29
100
AcDbVisualStyle
  2
Shaded
 70
    27
177
     3
291
     0
 70
    58
 90
        2
176
     1
 90
        2
176
     1
 90
        1
176
     1
 90
        2
176
     1
 40
0.6
176
     1
 40
30.0
176
     1
 62
     7
420
 16777215
176
     1
 90
        0
176
     1
 90
        4
176
     1
 62
     7
176
     1
 62
   257
176
     1
 90
        1
176
     1
 90
        1
176
     1
 40
1.0
176
     1
 90
        8
176
     1
 62
   257
176
     1
 40
1.0
176
     1
 90
        1
176
     1
 90
        6
176
     1
 90
        2
176
     1
 62
     8
420
  7895160
176
     1
 90
        3
176
     1
 90
        0
176
     1
 90
        0
176
     1
290
     0
176
     1
 90
        5
176
     1
 40
0.0
176
     1
 90
        0
176
     1
290
     0
176
     1
290
     1
176
     1
290
     1
176
     1
290
     0
176
     1
290
     0
176
     1
290
     0
176
     1
290
     0
176
     1
290
     0
176
     1
290
     0
176
     1
 90
       50
176
     1
 40
0.0
176
     1
 40
1.0
176
     1
 90
        0
176
     1
 62
    18
420
        0
176
     1
 90
       50
176
     1
 90
        3
176
     1
 62
     5
420
      255
176
     1
290
     0
176
     1
 90
       50
176
     1
 90
       50
176
     1
 90
       50
176
     1
290
     0
176
     1
 90
       50
176
     1
 62
   256
176
     0
 40
1.0
176
     0
 90
        2
176
     1
  1
strokes_ogs.tif
176
     1
290
     0
176
     1
 40
1.0
176
     1
 40
1.0
176
     1
  0
VISUALSTYLE
  5
3D
102
{ACAD_REACTORS
330
29
102
}
330
29
100
AcDbVisualStyle
  2
Shaded with edges
 70
    26
177
     3
291
     0
 70
    58
 90
        2
176
     1
 90
        2
176
     1
 90
        1
176
     1
 90
        2
176
     1
 40
0.6
176
     1
 40
30.0
176
     1
 62
     7
420
 16777215
176
     1
 90
        1
176
     1
 90
        2
176
     1
 62
     7
176
     1
 62
   257
176
     1
 90
        2
176
     1
 90
        1
176
     1
 40
1.0
176
     1
 90
        8
176
     1
 62
   257
176
     1
 40
1.0
176
     1
 90
        1
176
     1
 90
        6
176
     1
 90
        2
176
     1
 62
     7
176
     1
 90
        3
176
     1
 90
        0
176
     1
 90
        0
176
     1
290
     0
176
     1
 90
        5
176
     1
 40
0.0
176
     1
 90
        0
176
     1
290
     0
176
     1
290
     1
176
     1
290
     1
176
     1
290
     0
176
     1
290
     0
176
     1
290
     0
176
     1
290
     0
176
     1
290
     0
176
     1
290
     0
176
     1
 90
       50
176
     1
 40
0.0
176
     1
 40
1.0
176
     1
 90
        0
176
     1
 62
    18
420
        0
176
     1
 90
       50
176
     1
 90
        3
176
     1
 62
     5
420
      255
176
     1
290
     0
176
     1
 90
       50
176
     1
 90
       50
176
     1
 90
       50
176
     1
290
     0
176
     1
 90
       50
176
     1
 62
   256
176
     0
 40
1.0
176
     0
 90
        2
176
     1
  1
strokes_ogs.tif
176
     1
290
     0
176
     1
 40
1.0
176
     1
 40
1.0
176
     1
  0
VISUALSTYLE
  5
3A
102
{ACAD_REACTORS
330
29
102
}
330
29
100
AcDbVisualStyle
  2
Shades of Gray
 70
    23
177
     3
291
     0
 70
    58
 90
        2
176
     1
 90
        2
176
     1
 90
        3
176
     1
 90
        0
176
     1
 40
0.6
176
     1
 40
30.0
176
     1
 62
     7
420
 16777215
176
     1
 90
        2
176
     1
 90
        2
176
     1
 62
     7
176
     1
 62
     7
176
     1
 90
        1
176
     1
 90
        1
176
     1
 40
40.0
176
     1
 90
        8
176
     1
 62
     7
176
     1
 40
1.0
176
     1
 90
        1
176
     1
 90
        6
176
     1
 90
        2
176
     1
 62
     7
176
     1
 90
        3
176
     1
 90
        0
176
     1
 90
        0
176
     1
290
     0
176
     1
 90
        1
176
     1
 40
0.0
176
     1
 90
        0
176
     1
290
     0
176
     1
290
     1
176
     1
290
     1
176
     1
290
     0
176
     1
290
     0
176
     1
290
     0
176
     1
290
     0
176
     1
290
     0
176
     1
290
     0
176
     1
 90
       50
176
     1
 40
0.0
176
     1
 40
1.0
176
     1
 90
        0
176
     1
 62
    18
420
        0
176
     1
 90
       50
176
     1
 90
        3
176
     1
 62
     5
420
      255
176
     1
290
     0
176
     1
 90
       50
176
     1
 90
       50
176
     1
 90
       50
176
     1
290
     0
176
     1
 90
       50
176
     1
 62
   256
176
     0
 40
1.0
176
     0
 90
        2
176
     1
  1
strokes_ogs.tif
176
     1
290
     0
176
     1
 40
1.0
176
     1
 40
1.0
176
     1
  0
VISUALSTYLE
  5
3B
102
{ACAD_REACTORS
330
29
102
}
330
29
100
AcDbVisualStyle
  2
Sketchy
 70
    24
177
     3
291
     0
 70
    58
 90
        1
176
     1
 90
        2
176
     1
 90
        2
176
     1
 90
        0
176
     1
 40
0.6
176
     1
 40
30.0
176
     1
 62
     7
420
 16777215
176
     1
 90
        2
176
     1
 90
        2
176
     1
 62
     7
176
     1
 62
     7
176
     1
 90
        1
176
     1
 90
        1
176
     1
 40
40.0
176
     1
 90
       11
176
     1
 62
     7
176
     1
 40
1.0
176
     1
 90
        1
176
     1
 90
        6
176
     1
 90
        2
176
     1
 62
     7
176
     1
 90
        6
176
     1
 90
        0
176
     1
 90
        0
176
     1
290
     0
176
     1
 90
        1
176
     1
 40
0.0
176
     1
 90
        0
176
     1
290
     0
176
     1
290
     1
176
     1
290
     1
176
     1
290
     0
176
     1
290
     0
176
     1
290
     0
176
     1
290
     0
176
     1
290
     0
176
     1
290
     0
176
     1
 90
       50
176
     1
 40
0.0
176
     1
 40
1.0
176
     1
 90
        0
176
     1
 62
    18
420
        0
176
     1
 90
       50
176
     1
 90
        3
176
     1
 62
     5
420
      255
176
     1
290
     0
176
     1
 90
       50
176
     1
 90
       50
176
     1
 90
       50
176
     1
290
     0
176
     1
 90
       50
176
     1
 62
   256
176
     0
 40
1.0
176
     0
 90
        2
176
     1
  1
strokes_ogs.tif
176
     1
290
     0
176
     1
 40
1.0
176
     1
 40
1.0
176
     1
  0
VISUALSTYLE
  5
36
102
{ACAD_REACTORS
330
29
102
}
330
29
100
AcDbVisualStyle
  2
Thicken
 70
    13
177
     3
291
     1
 70
    58
 90
        2
176
     1
 90
        2
176
     1
 90
        0
176
     1
 90
        0
176
     1
 40
0.6
176
     1
 40
30.0
176
     1
 62
     7
420
 16777215
176
     1
 90
        1
176
     1
 90
        4
176
     1
 62
     7
176
     1
 62
   257
176
     1
 90
        1
176
     1
 90
        1
176
     1
 40
1.0
176
     1
 90
       12
176
     1
 62
     7
176
     1
 40
1.0
176
     1
 90
        1
176
     1
 90
        6
176
     1
 90
        2
176
     1
 62
     7
176
     1
 90
        5
176
     1
 90
        0
176
     1
 90
        0
176
     1
290
     0
176
     1
 90
        1
176
     1
 40
0.0
176
     1
 90
        0
176
     1
290
     0
176
     1
290
     1
176
     1
290
     1
176
     1
290
     0
176
     1
290
     0
176
     1
290
     0
176
     1
290
     0
176
     1
290
     0
176
     1
290
     0
176
     1
 90
       50
176
     1
 40
0.0
176
     1
 40
1.0
176
     1
 90
        0
176
     1
 62
    18
420
        0
176
     1
 90
       50
176
     1
 90
        3
176
     1
 62
     5
420
      255
176
     1
290
     0
176
     1
 90
       50
176
     1
 90
       50
176
     1
 90
       50
176
     1
290
     0
176
     1
 90
       50
176
     1
 62
   256
176
     0
 40
1.0
176
     0
 90
        2
176
     1
  1
strokes_ogs.tif
176
     1
290
     0
176
     1
 40
1.0
176
     1
 40
1.0
176
     1
  0
VISUALSTYLE
  5
30
102
{ACAD_REACTORS
330
29
102
}
330
29
100
AcDbVisualStyle
  2
Wireframe
 70
     5
177
     3
291
     0
 70
    58
 90
        0
176
     1
 90
        2
176
     1
 90
        0
176
     1
 90
        0
176
     1
 40
0.6
176
     1
 40
30.0
176
     1
 62
     7
420
 16777215
176
     1
 90
        1
176
     1
 90
        4
176
     1
 62
     7
176
     1
 62
   257
176
     1
 90
        1
176
     1
 90
        1
176
     1
 40
1.0
176
     1
 90
        0
176
     1
 62
   257
176
     1
 40
1.0
176
     1
 90
        1
176
     1
 90
        6
176
     1
 90
        2
176
     1
 62
     7
176
     1
 90
        3
176
     1
 90
        0
176
     1
 90
        0
176
     1
290
     0
176
     1
 90
        1
176
     1
 40
0.0
176
     1
 90
        0
176
     1
290
     0
176
     1
290
     1
176
     1
290
     1
176
     1
290
     0
176
     1
290
     0
176
     1
290
     0
176
     1
290
     0
176
     1
290
     0
176
     1
290
     0
176
     1
 90
       50
176
     1
 40
0.0
176
     1
 40
1.0
176
     1
 90
        0
176
     1
 62
    18
420
        0
176
     1
 90
       50
176
     1
 90
        3
176
     1
 62
     5
420
      255
176
     1
290
     0
176
     1
 90
       50
176
     1
 90
       50
176
     1
 90
       50
176
     1
290
     0
176
     1
 90
       50
176
     1
 62
   256
176
     0
 40
1.0
176
     0
 90
        2
176
     1
  1
strokes_ogs.tif
176
     1
290
     0
176
     1
 40
1.0
176
     1
 40
1.0
176
     1
  0
VISUALSTYLE
  5
3C
102
{ACAD_REACTORS
330
29
102
}
330
29
100
AcDbVisualStyle
  2
X-Ray
 70
    25
177
     3
291
     0
 70
    58
 90
        2
176
     1
 90
        2
176
     1
 90
        1
176
     1
 90
        1
176
     1
 40
0.5
176
     1
 40
30.0
176
     1
 62
     7
420
 16777215
176
     1
 90
        1
176
     1
 90
        0
176
     1
 62
     7
176
     1
 62
   257
176
     1
 90
        1
176
     1
 90
        1
176
     1
 40
1.0
176
     1
 90
        8
176
     1
 62
     7
176
     1
 40
1.0
176
     1
 90
        1
176
     1
 90
        6
176
     1
 90
        2
176
     1
 62
     7
176
     1
 90
        3
176
     1
 90
        0
176
     1
 90
        0
176
     1
290
     0
176
     1
 90
       13
176
     1
 40
0.0
176
     1
 90
        0
176
     1
290
     0
176
     1
290
     1
176
     1
290
     1
176
     1
290
     0
176
     1
290
     0
176
     1
290
     0
176
     1
290
     0
176
     1
290
     0
176
     1
290
     0
176
     1
 90
       50
176
     1
 40
0.0
176
     1
 40
1.0
176
     1
 90
        0
176
     1
 62
    18
420
        0
176
     1
 90
       50
176
     1
 90
        3
176
     1
 62
     5
420
      255
176
     1
290
     0
176
     1
 90
       50
176
     1
 90
       50
176
     1
 90
       50
176
     1
290
     0
176
     1
 90
       50
176
     1
 62
   256
176
     0
 40
1.0
176
     0
 90
        2
176
     1
  1
strokes_ogs.tif
176
     1
290
     0
176
     1
 40
1.0
176
     1
 40
1.0
176
     1
  0
DICTIONARYVAR
  5
92D
102
{ACAD_REACTORS
330
927
102
}
330
927
100
DictionaryVariables
280
     0
  1
1:1
  0
DICTIONARYVAR
  5
929
102
{ACAD_REACTORS
330
927
102
}
330
927
100
DictionaryVariables
280
     0
  1
STANDARD
  0
DICTIONARYVAR
  5
928
102
{ACAD_REACTORS
330
927
102
}
330
927
100
DictionaryVariables
280
     0
  1
STANDARD
  0
DICTIONARYVAR
  5
92A
102
{ACAD_REACTORS
330
927
102
}
330
927
100
DictionaryVariables
280
     0
  1
Imperial24
  0
DICTIONARYVAR
  5
92B
102
{ACAD_REACTORS
330
927
102
}
330
927
100
DictionaryVariables
280
     0
  1
Imperial24
  0
DICTIONARYVAR
  5
93B
102
{ACAD_REACTORS
330
927
102
}
330
927
100
DictionaryVariables
280
     0
  1
BYLAYER
  0
DICTIONARYVAR
  5
93A
102
{ACAD_REACTORS
330
927
102
}
330
927
100
DictionaryVariables
280
     0
  1
ByLayer
  0
DICTIONARYVAR
  5
92F
102
{ACAD_REACTORS
330
927
102
}
330
927
100
DictionaryVariables
280
     0
  1
1
  0
DICTIONARYVAR
  5
930
102
{ACAD_REACTORS
330
927
102
}
330
927
100
DictionaryVariables
280
     0
  1
15
  0
DICTIONARYVAR
  5
92E
102
{ACAD_REACTORS
330
927
102
}
330
927
100
DictionaryVariables
280
     0
  1
0
  0
DICTIONARYVAR
  5
92C
102
{ACAD_REACTORS
330
927
102
}
330
927
100
DictionaryVariables
280
     0
  1
0
  0
DICTIONARY
  5
1A
330
19
100
AcDbDictionary
280
     1
281
     1
  3
BUMPTILE
360
1C
  3
DIFFUSETILE
360
1B
  3
OPACITYTILE
360
1F
  3
REFLECTIONTILE
360
1E
  3
REFRACTIONTILE
360
20
  3
SPECULARTILE
360
1D
  0
DICTIONARY
  5
12
330
11
100
AcDbDictionary
280
     1
281
     1
  3
BUMPTILE
360
14
  3
DIFFUSETILE
360
13
  3
OPACITYTILE
360
17
  3
REFLECTIONTILE
360
16
  3
REFRACTIONTILE
360
18
  3
SPECULARTILE
360
15
  0
DICTIONARY
  5
22
330
21
100
AcDbDictionary
280
     1
281
     1
  3
BUMPTILE
360
24
  3
DIFFUSETILE
360
23
  3
OPACITYTILE
360
27
  3
REFLECTIONTILE
360
26
  3
REFRACTIONTILE
360
28
  3
SPECULARTILE
360
25
  0
DICTIONARY
  5
B04
330
64
100
AcDbDictionary
280
     1
281
     1
  3
ACAD_ROUNDTRIP_2008_TABLESTYLE_CELLSTYLEMAP
360
B05
  0
XRECORD
  5
1C
102
{ACAD_REACTORS
330
1A
102
}
330
1A
100
AcDbXrecord
280
     1
270
     1
271
     1
  0
XRECORD
  5
1B
102
{ACAD_REACTORS
330
1A
102
}
330
1A
100
AcDbXrecord
280
     1
270
     1
271
     1
  0
XRECORD
  5
1F
102
{ACAD_REACTORS
330
1A
102
}
330
1A
100
AcDbXrecord
280
     1
270
     1
271
     1
  0
XRECORD
  5
1E
102
{ACAD_REACTORS
330
1A
102
}
330
1A
100
AcDbXrecord
280
     1
270
     1
271
     1
  0
XRECORD
  5
20
102
{ACAD_REACTORS
330
1A
102
}
330
1A
100
AcDbXrecord
280
     1
270
     1
271
     1
  0
XRECORD
  5
1D
102
{ACAD_REACTORS
330
1A
102
}
330
1A
100
AcDbXrecord
280
     1
270
     1
271
     1
  0
XRECORD
  5
14
102
{ACAD_REACTORS
330
12
102
}
330
12
100
AcDbXrecord
280
     1
270
     1
271
     1
  0
XRECORD
  5
13
102
{ACAD_REACTORS
330
12
102
}
330
12
100
AcDbXrecord
280
     1
270
     1
271
     1
  0
XRECORD
  5
17
102
{ACAD_REACTORS
330
12
102
}
330
12
100
AcDbXrecord
280
     1
270
     1
271
     1
  0
XRECORD
  5
16
102
{ACAD_REACTORS
330
12
102
}
330
12
100
AcDbXrecord
280
     1
270
     1
271
     1
  0
XRECORD
  5
18
102
{ACAD_REACTORS
330
12
102
}
330
12
100
AcDbXrecord
280
     1
270
     1
271
     1
  0
XRECORD
  5
15
102
{ACAD_REACTORS
330
12
102
}
330
12
100
AcDbXrecord
280
     1
270
     1
271
     1
  0
XRECORD
  5
24
102
{ACAD_REACTORS
330
22
102
}
330
22
100
AcDbXrecord
280
     1
270
     1
271
     1
  0
XRECORD
  5
23
102
{ACAD_REACTORS
330
22
102
}
330
22
100
AcDbXrecord
280
     1
270
     1
271
     1
  0
XRECORD
  5
27
102
{ACAD_REACTORS
330
22
102
}
330
22
100
AcDbXrecord
280
     1
270
     1
271
     1
  0
XRECORD
  5
26
102
{ACAD_REACTORS
330
22
102
}
330
22
100
AcDbXrecord
280
     1
270
     1
271
     1
  0
XRECORD
  5
28
102
{ACAD_REACTORS
330
22
102
}
330
22
100
AcDbXrecord
280
     1
270
     1
271
     1
  0
XRECORD
  5
25
102
{ACAD_REACTORS
330
22
102
}
330
22
100
AcDbXrecord
280
     1
270
     1
271
     1
  0
CELLSTYLEMAP
  5
B05
102
{ACAD_REACTORS
330
B04
102
}
330
B04
100
AcDbCellStyleMap
 90
        3
300
CELLSTYLE
  1
TABLEFORMAT_BEGIN
 90
        5
170
     1
 91
        0
 92
    32768
 62
   257
 93
        1
300
CONTENTFORMAT
  1
CONTENTFORMAT_BEGIN
 90
        0
 91
        0
 92
      512
 93
        0
300

 40
0.0
140
1.0
 94
        5
 62
     0
340
55
144
0.25
309
CONTENTFORMAT_END
171
     0
 94
        0
309
TABLEFORMAT_END
  1
CELLSTYLE_BEGIN
 90
        1
 91
        1
300
_TITLE
309
CELLSTYLE_END
300
CELLSTYLE
  1
TABLEFORMAT_BEGIN
 90
        5
170
     1
 91
        0
 92
        0
 62
   257
 93
        1
300
CONTENTFORMAT
  1
CONTENTFORMAT_BEGIN
 90
        0
 91
        0
 92
      512
 93
        0
300

 40
0.0
140
1.0
 94
        5
 62
     0
340
55
144
0.18
309
CONTENTFORMAT_END
171
     0
 94
        0
309
TABLEFORMAT_END
  1
CELLSTYLE_BEGIN
 90
        2
 91
        1
300
_HEADER
309
CELLSTYLE_END
300
CELLSTYLE
  1
TABLEFORMAT_BEGIN
 90
        5
170
     1
 91
        0
 92
        0
 62
   257
 93
        1
300
CONTENTFORMAT
  1
CONTENTFORMAT_BEGIN
 90
        0
 91
        0
 92
      512
 93
        0
300

 40
0.0
140
1.0
 94
        2
 62
     0
340
55
144
0.18
309
CONTENTFORMAT_END
171
     0
 94
        0
309
TABLEFORMAT_END
  1
CELLSTYLE_BEGIN
 90
        3
 91
        2
300
_DATA
309
CELLSTYLE_END
  0
ENDSEC
  0
SECTION
  2
ACDSDATA
 70
     2
 71
     8
  0
ACDSSCHEMA
 90
        0
  1
AcDb_Thumbnail_Schema
  2
AcDbDs::ID
280
    10
 91
        8
  2
Thumbnail_Data
280
    15
 91
        0
101
ACDSRECORD
 95
        0
 90
        1
  2
AcDbDs::TreatedAsObjectData
280
     1
291
     1
101
ACDSRECORD
 95
        0
 90
        2
  2
AcDbDs::Legacy
280
     1
291
     1
101
ACDSRECORD
  1
AcDbDs::ID
 90
        3
  2
AcDs:Indexable
280
     1
291
     1
101
ACDSRECORD
  1
AcDbDs::ID
 90
        4
  2
AcDbDs::HandleAttribute
280
     7
282
     1
  0
ACDSSCHEMA
 90
        1
  1
AcDbDs::TreatedAsObjectDataSchema
  2
AcDbDs::TreatedAsObjectData
280
     1
 91
        0
  0
ACDSSCHEMA
 90
        2
  1
AcDbDs::LegacySchema
  2
AcDbDs::Legacy
280
     1
 91
        0
  0
ACDSSCHEMA
 90
        3
  1
AcDbDs::IndexedPropertySchema
  2
AcDs:Indexable
280
     1
 91
        0
  0
ACDSSCHEMA
 90
        4
  1
AcDbDs::HandleAttributeSchema
  2
AcDbDs::HandleAttribute
280
     7
 91
        1
284
     1
  0
ACDSRECORD
 90
        0
  2
AcDbDs::ID
280
    10
320
72
  2
Thumbnail_Data
280
    15
 94
      886
310
89504E470D0A1A0A0000000D4948445200000100000000680803000000297CDED700000300504C5445212830FFFFFF2128300000000000000000000000000000000000000000000000000000330000660000990000CC0000FF0033000033330033660033990033CC0033FF0066000066330066660066990066CC0066FF0099
310
000099330099660099990099CC0099FF00CC0000CC3300CC6600CC9900CCCC00CCFF00FF0000FF3300FF6600FF9900FFCC00FFFF3300003300333300663300993300CC3300FF3333003333333333663333993333CC3333FF3366003366333366663366993366CC3366FF3399003399333399663399993399CC3399FF33CC00
310
33CC3333CC6633CC9933CCCC33CCFF33FF0033FF3333FF6633FF9933FFCC33FFFF6600006600336600666600996600CC6600FF6633006633336633666633996633CC6633FF6666006666336666666666996666CC6666FF6699006699336699666699996699CC6699FF66CC0066CC3366CC6666CC9966CCCC66CCFF66FF0066
310
FF3366FF6666FF9966FFCC66FFFF9900009900339900669900999900CC9900FF9933009933339933669933999933CC9933FF9966009966339966669966999966CC9966FF9999009999339999669999999999CC9999FF99CC0099CC3399CC6699CC9999CCCC99CCFF99FF0099FF3399FF6699FF9999FFCC99FFFFCC0000CC00
310
33CC0066CC0099CC00CCCC00FFCC3300CC3333CC3366CC3399CC33CCCC33FFCC6600CC6633CC6666CC6699CC66CCCC66FFCC9900CC9933CC9966CC9999CC99CCCC99FFCCCC00CCCC33CCCC66CCCC99CCCCCCCCCCFFCCFF00CCFF33CCFF66CCFF99CCFFCCCCFFFFFF0000FF0033FF0066FF0099FF00CCFF00FFFF3300FF3333
310
FF3366FF3399FF33CCFF33FFFF6600FF6633FF6666FF6699FF66CCFF66FFFF9900FF9933FF9966FF9999FF99CCFF99FFFFCC00FFCC33FFCC66FFCC99FFCCCCFFCCFFFFFF00FFFF33FFFF66FFFF99FFFFCCFFFFFF0000000D0D0D1A1A1A2828283535354343435050505D5D5D6B6B6B787878868686939393A1A1A1AEAEAEBB
310
BBBBC9C9C9D6D6D6E4E4E4F1F1F1FFFFFF0000000000000000000000000000000000000000000000000000000000002E4550F1000000314944415478DAEDC13101000000C2A0F54F6D0D0FA000000000000000000000000000000000000000000000000000805703686800019479F9D50000000049454E44AE426082
  0
ACDSRECORD
 90
        0
  2
AcDbDs::ID
280
    10
320
6E
  2
Thumbnail_Data
280
    15
 94
     1264
310
89504E470D0A1A0A0000000D4948445200000100000000B408030000004C80028300000300504C5445FFFFFFFFFFFFFFFFFF0000000000000000000000000000000000000000000000000000330000660000990000CC0000FF0033000033330033660033990033CC0033FF0066000066330066660066990066CC0066FF0099
310
000099330099660099990099CC0099FF00CC0000CC3300CC6600CC9900CCCC00CCFF00FF0000FF3300FF6600FF9900FFCC00FFFF3300003300333300663300993300CC3300FF3333003333333333663333993333CC3333FF3366003366333366663366993366CC3366FF3399003399333399663399993399CC3399FF33CC00
310
33CC3333CC6633CC9933CCCC33CCFF33FF0033FF3333FF6633FF9933FFCC33FFFF6600006600336600666600996600CC6600FF6633006633336633666633996633CC6633FF6666006666336666666666996666CC6666FF6699006699336699666699996699CC6699FF66CC0066CC3366CC6666CC9966CCCC66CCFF66FF0066
310
FF3366FF6666FF9966FFCC66FFFF9900009900339900669900999900CC9900FF9933009933339933669933999933CC9933FF9966009966339966669966999966CC9966FF9999009999339999669999999999CC9999FF99CC0099CC3399CC6699CC9999CCCC99CCFF99FF0099FF3399FF6699FF9999FFCC99FFFFCC0000CC00
310
33CC0066CC0099CC00CCCC00FFCC3300CC3333CC3366CC3399CC33CCCC33FFCC6600CC6633CC6666CC6699CC66CCCC66FFCC9900CC9933CC9966CC9999CC99CCCC99FFCCCC00CCCC33CCCC66CCCC99CCCCCCCCCCFFCCFF00CCFF33CCFF66CCFF99CCFFCCCCFFFFFF0000FF0033FF0066FF0099FF00CCFF00FFFF3300FF3333
310
FF3366FF3399FF33CCFF33FFFF6600FF6633FF6666FF6699FF66CCFF66FFFF9900FF9933FF9966FF9999FF99CCFF99FFFFCC00FFCC33FFCC66FFCC99FFCCCCFFCCFFFFFF00FFFF33FFFF66FFFF99FFFFCCFFFFFF0000000D0D0D1A1A1A2828283535354343435050505D5D5D6B6B6B787878868686939393A1A1A1AEAEAEBB
310
BBBBC9C9C9D6D6D6E4E4E4F1F1F1FFFFFF000000000000000000000000000000000000000000000000000000000000AD4AB4E4000001744944415478DAEDDB4B0AC2401045D1DEFFA27A3119865E841F4240110C6D4052EFD4202347C7D4ED10B18D3579C668A325CF06B0DC27F1BA0384CE0EB000086F0080F41568004410
310
800802104100220840040188E0CB276ACC0F0055BEE8D90802A80DD00058011104600544108015700A882000110420820044108008021041002208400401882000110420820044108008021041002208400401882000110420820044108008A603F44BCE8911ECE9A740FF740F9CF0CFC63FDD016D0620FB14280630114100
310
3D3E82004410405204DF9F29D24F811617C1903B40040138050078140620820044F00040C9D7E2C701D27F17B8E600382F82008AAE400320820044108008021041002208400401882000110420820044108008021041002208400401882000110420820044108008021041002208400401882000110420820044104044046B
310
CC3C40F1F91E4100E50780151041005640040188200011042082008257E0F9D624F09A7E0A6C2BB026CF03207C6E1B614592EDB2580E0000000049454E44AE42608220004B40040188200011042082001A2F81EF5D93869FDDAF02EB1238769E3340F3F902210C6FE08DEA65200000000049454E44AE426082
  0
ENDSEC
  0
EOF
