0
SECTION
2
HEADER
9
$ACADVER
1
AC1006
0
ENDSEC
0
SECTION
2
TABLES
0
TABLE
2
LAYER
70
2
0
LAYER
70
0
62
1
6
CONTINUOUS
2
L8D0
0
LAYER
70
0
62
2
6
CONTINUOUS
2
L1D0
0
ENDTAB
0
ENDSEC
0
SECTION
2
BLOCKS
0
BLOCK
2
CIRCLE$2
70
0
10
0
20
0
0
POLYLINE
8
L8D0
70
1
40
0
41
0
66
1
0
VERTEX
8
L8D0
10
-9.825
20
-200
0
VERTEX
8
L8D0
10
-29.381
20
-198.074
0
VERTEX
8
L8D0
10
-48.655
20
-194.24
0
VERTEX
8
L8D0
10
-67.459
20
-188.536
0
VERTEX
8
L8D0
10
-85.614
20
-181.016
0
VERTEX
8
L8D0
10
-102.945
20
-171.753
0
VERTEX
8
L8D0
10
-119.284
20
-160.835
0
VERTEX
8
L8D0
10
-134.474
20
-148.369
0
VERTEX
8
L8D0
10
-148.369
20
-134.474
0
VERTEX
8
L8D0
10
-160.835
20
-119.284
0
VERTEX
8
L8D0
10
-171.753
20
-102.945
0
VERTEX
8
L8D0
10
-181.016
20
-85.614
0
VERTEX
8
L8D0
10
-188.536
20
-67.459
0
VERTEX
8
L8D0
10
-194.24
20
-48.655
0
VERTEX
8
L8D0
10
-198.074
20
-29.381
0
VERTEX
8
L8D0
10
-200
20
-9.825
0
VERTEX
8
L8D0
10
-200
20
9.825
0
VERTEX
8
L8D0
10
-198.074
20
29.381
0
VERTEX
8
L8D0
10
-194.24
20
48.655
0
VERTEX
8
L8D0
10
-188.536
20
67.459
0
VERTEX
8
L8D0
10
-181.016
20
85.614
0
VERTEX
8
L8D0
10
-171.753
20
102.945
0
VERTEX
8
L8D0
10
-160.835
20
119.284
0
VERTEX
8
L8D0
10
-148.369
20
134.474
0
VERTEX
8
L8D0
10
-134.474
20
148.369
0
VERTEX
8
L8D0
10
-119.284
20
160.835
0
VERTEX
8
L8D0
10
-102.945
20
171.753
0
VERTEX
8
L8D0
10
-85.614
20
181.016
0
VERTEX
8
L8D0
10
-67.459
20
188.536
0
VERTEX
8
L8D0
10
-48.655
20
194.24
0
VERTEX
8
L8D0
10
-29.381
20
198.074
0
VERTEX
8
L8D0
10
-9.825
20
200
0
VERTEX
8
L8D0
10
9.825
20
200
0
VERTEX
8
L8D0
10
29.381
20
198.074
0
VERTEX
8
L8D0
10
48.655
20
194.24
0
VERTEX
8
L8D0
10
67.459
20
188.536
0
VERTEX
8
L8D0
10
85.614
20
181.016
0
VERTEX
8
L8D0
10
102.945
20
171.753
0
VERTEX
8
L8D0
10
119.284
20
160.835
0
VERTEX
8
L8D0
10
134.474
20
148.369
0
VERTEX
8
L8D0
10
148.369
20
134.474
0
VERTEX
8
L8D0
10
160.835
20
119.284
0
VERTEX
8
L8D0
10
171.753
20
102.945
0
VERTEX
8
L8D0
10
181.016
20
85.614
0
VERTEX
8
L8D0
10
188.536
20
67.459
0
VERTEX
8
L8D0
10
194.24
20
48.655
0
VERTEX
8
L8D0
10
198.074
20
29.381
0
VERTEX
8
L8D0
10
200
20
9.825
0
VERTEX
8
L8D0
10
200
20
-9.825
0
VERTEX
8
L8D0
10
198.074
20
-29.381
0
VERTEX
8
L8D0
10
194.24
20
-48.655
0
VERTEX
8
L8D0
10
188.536
20
-67.459
0
VERTEX
8
L8D0
10
181.016
20
-85.614
0
VERTEX
8
L8D0
10
171.753
20
-102.945
0
VERTEX
8
L8D0
10
160.835
20
-119.284
0
VERTEX
8
L8D0
10
148.369
20
-134.474
0
VERTEX
8
L8D0
10
134.474
20
-148.369
0
VERTEX
8
L8D0
10
119.284
20
-160.835
0
VERTEX
8
L8D0
10
102.945
20
-171.753
0
VERTEX
8
L8D0
10
85.614
20
-181.016
0
VERTEX
8
L8D0
10
67.459
20
-188.536
0
VERTEX
8
L8D0
10
48.655
20
-194.24
0
VERTEX
8
L8D0
10
29.381
20
-198.074
0
VERTEX
8
L8D0
10
9.825
20
-200
0
SEQEND
0
ENDBLK
0
ENDSEC
0
SECTION
2
ENTITIES
0
INSERT
8
0
2
CIRCLE$2
10
-3000
20
600
41
1
42
1
50
0
0
INSERT
8
0
2
CIRCLE$2
10
13950
20
600
41
1
42
1
50
0
0
POLYLINE
8
L8D0
70
1
40
0
41
0
66
1
0
VERTEX
8
L8D0
10
-1050
20
-250
0
VERTEX
8
L8D0
10
-1050
20
550
0
VERTEX
8
L8D0
10
-3000
20
550
0
VERTEX
8
L8D0
10
-3000
20
650
0
VERTEX
8
L8D0
10
-1050
20
650
0
VERTEX
8
L8D0
10
-1050
20
1300
0
VERTEX
8
L8D0
10
-950
20
1300
0
VERTEX
8
L8D0
10
-950
20
-152
0
VERTEX
8
L8D0
10
6550
20
-152
0
VERTEX
8
L8D0
10
6550
20
-150
0
VERTEX
8
L8D0
10
11950
20
-150
0
VERTEX
8
L8D0
10
11950
20
1300
0
VERTEX
8
L8D0
10
-1050
20
1300
0
VERTEX
8
L8D0
10
-1050
20
1400
0
VERTEX
8
L8D0
10
12050
20
1400
0
VERTEX
8
L8D0
10
12050
20
650
0
VERTEX
8
L8D0
10
13950
20
650
0
VERTEX
8
L8D0
10
13950
20
550
0
VERTEX
8
L8D0
10
12050
20
550
0
VERTEX
8
L8D0
10
12050
20
-250
0
SEQEND
0
POLYLINE
8
L1D0
70
1
40
0
41
0
66
1
0
VERTEX
8
L1D0
10
4831
20
1300
0
VERTEX
8
L1D0
10
4831
20
1400
0
VERTEX
8
L1D0
10
4836
20
1400
0
VERTEX
8
L1D0
10
4836
20
1300
0
SEQEND
0
POLYLINE
8
L1D0
70
1
40
0
41
0
66
1
0
VERTEX
8
L1D0
10
2871
20
1300
0
VERTEX
8
L1D0
10
2871
20
1400
0
VERTEX
8
L1D0
10
2891
20
1400
0
VERTEX
8
L1D0
10
2891
20
1300
0
SEQEND
0
POLYLINE
8
L1D0
70
1
40
0
41
0
66
1
0
VERTEX
8
L1D0
10
2916
20
1300
0
VERTEX
8
L1D0
10
2916
20
1400
0
VERTEX
8
L1D0
10
2936
20
1400
0
VERTEX
8
L1D0
10
2936
20
1300
0
SEQEND
0
POLYLINE
8
L1D0
70
1
40
0
41
0
66
1
0
VERTEX
8
L1D0
10
2961
20
1300
0
VERTEX
8
L1D0
10
2961
20
1400
0
VERTEX
8
L1D0
10
2981
20
1400
0
VERTEX
8
L1D0
10
2981
20
1300
0
SEQEND
0
POLYLINE
8
L1D0
70
1
40
0
41
0
66
1
0
VERTEX
8
L1D0
10
3006
20
1300
0
VERTEX
8
L1D0
10
3006
20
1400
0
VERTEX
8
L1D0
10
3026
20
1400
0
VERTEX
8
L1D0
10
3026
20
1300
0
SEQEND
0
POLYLINE
8
L1D0
70
1
40
0
41
0
66
1
0
VERTEX
8
L1D0
10
3051
20
1300
0
VERTEX
8
L1D0
10
3051
20
1400
0
VERTEX
8
L1D0
10
3071
20
1400
0
VERTEX
8
L1D0
10
3071
20
1300
0
SEQEND
0
POLYLINE
8
L1D0
70
1
40
0
41
0
66
1
0
VERTEX
8
L1D0
10
3096
20
1300
0
VERTEX
8
L1D0
10
3096
20
1400
0
VERTEX
8
L1D0
10
3116
20
1400
0
VERTEX
8
L1D0
10
3116
20
1300
0
SEQEND
0
POLYLINE
8
L1D0
70
1
40
0
41
0
66
1
0
VERTEX
8
L1D0
10
3141
20
1300
0
VERTEX
8
L1D0
10
3141
20
1400
0
VERTEX
8
L1D0
10
3161
20
1400
0
VERTEX
8
L1D0
10
3161
20
1300
0
SEQEND
0
POLYLINE
8
L1D0
70
1
40
0
41
0
66
1
0
VERTEX
8
L1D0
10
3186
20
1300
0
VERTEX
8
L1D0
10
3186
20
1400
0
VERTEX
8
L1D0
10
3206
20
1400
0
VERTEX
8
L1D0
10
3206
20
1300
0
SEQEND
0
POLYLINE
8
L1D0
70
1
40
0
41
0
66
1
0
VERTEX
8
L1D0
10
3231
20
1300
0
VERTEX
8
L1D0
10
3231
20
1400
0
VERTEX
8
L1D0
10
3251
20
1400
0
VERTEX
8
L1D0
10
3251
20
1300
0
SEQEND
0
POLYLINE
8
L1D0
70
1
40
0
41
0
66
1
0
VERTEX
8
L1D0
10
3276
20
1300
0
VERTEX
8
L1D0
10
3276
20
1400
0
VERTEX
8
L1D0
10
3296
20
1400
0
VERTEX
8
L1D0
10
3296
20
1300
0
SEQEND
0
POLYLINE
8
L1D0
70
1
40
0
41
0
66
1
0
VERTEX
8
L1D0
10
3321
20
1300
0
VERTEX
8
L1D0
10
3321
20
1400
0
VERTEX
8
L1D0
10
3341
20
1400
0
VERTEX
8
L1D0
10
3341
20
1300
0
SEQEND
0
POLYLINE
8
L1D0
70
1
40
0
41
0
66
1
0
VERTEX
8
L1D0
10
3366
20
1300
0
VERTEX
8
L1D0
10
3366
20
1400
0
VERTEX
8
L1D0
10
3386
20
1400
0
VERTEX
8
L1D0
10
3386
20
1300
0
SEQEND
0
POLYLINE
8
L1D0
70
1
40
0
41
0
66
1
0
VERTEX
8
L1D0
10
3411
20
1300
0
VERTEX
8
L1D0
10
3411
20
1400
0
VERTEX
8
L1D0
10
3431
20
1400
0
VERTEX
8
L1D0
10
3431
20
1300
0
SEQEND
0
POLYLINE
8
L1D0
70
1
40
0
41
0
66
1
0
VERTEX
8
L1D0
10
3456
20
1300
0
VERTEX
8
L1D0
10
3456
20
1400
0
VERTEX
8
L1D0
10
3476
20
1400
0
VERTEX
8
L1D0
10
3476
20
1300
0
SEQEND
0
POLYLINE
8
L1D0
70
1
40
0
41
0
66
1
0
VERTEX
8
L1D0
10
3501
20
1300
0
VERTEX
8
L1D0
10
3501
20
1400
0
VERTEX
8
L1D0
10
3521
20
1400
0
VERTEX
8
L1D0
10
3521
20
1300
0
SEQEND
0
POLYLINE
8
L1D0
70
1
40
0
41
0
66
1
0
VERTEX
8
L1D0
10
3546
20
1300
0
VERTEX
8
L1D0
10
3546
20
1400
0
VERTEX
8
L1D0
10
3566
20
1400
0
VERTEX
8
L1D0
10
3566
20
1300
0
SEQEND
0
POLYLINE
8
L1D0
70
1
40
0
41
0
66
1
0
VERTEX
8
L1D0
10
3591
20
1300
0
VERTEX
8
L1D0
10
3591
20
1400
0
VERTEX
8
L1D0
10
3611
20
1400
0
VERTEX
8
L1D0
10
3611
20
1300
0
SEQEND
0
POLYLINE
8
L1D0
70
1
40
0
41
0
66
1
0
VERTEX
8
L1D0
10
3636
20
1300
0
VERTEX
8
L1D0
10
3636
20
1400
0
VERTEX
8
L1D0
10
3656
20
1400
0
VERTEX
8
L1D0
10
3656
20
1300
0
SEQEND
0
POLYLINE
8
L1D0
70
1
40
0
41
0
66
1
0
VERTEX
8
L1D0
10
3681
20
1300
0
VERTEX
8
L1D0
10
3681
20
1400
0
VERTEX
8
L1D0
10
3701
20
1400
0
VERTEX
8
L1D0
10
3701
20
1300
0
SEQEND
0
POLYLINE
8
L1D0
70
1
40
0
41
0
66
1
0
VERTEX
8
L1D0
10
3726
20
1300
0
VERTEX
8
L1D0
10
3726
20
1400
0
VERTEX
8
L1D0
10
3746
20
1400
0
VERTEX
8
L1D0
10
3746
20
1300
0
SEQEND
0
POLYLINE
8
L1D0
70
1
40
0
41
0
66
1
0
VERTEX
8
L1D0
10
3771
20
1300
0
VERTEX
8
L1D0
10
3771
20
1400
0
VERTEX
8
L1D0
10
3791
20
1400
0
VERTEX
8
L1D0
10
3791
20
1300
0
SEQEND
0
POLYLINE
8
L1D0
70
1
40
0
41
0
66
1
0
VERTEX
8
L1D0
10
3816
20
1300
0
VERTEX
8
L1D0
10
3816
20
1400
0
VERTEX
8
L1D0
10
3836
20
1400
0
VERTEX
8
L1D0
10
3836
20
1300
0
SEQEND
0
POLYLINE
8
L1D0
70
1
40
0
41
0
66
1
0
VERTEX
8
L1D0
10
3861
20
1300
0
VERTEX
8
L1D0
10
3861
20
1400
0
VERTEX
8
L1D0
10
3881
20
1400
0
VERTEX
8
L1D0
10
3881
20
1300
0
SEQEND
0
POLYLINE
8
L1D0
70
1
40
0
41
0
66
1
0
VERTEX
8
L1D0
10
3906
20
1300
0
VERTEX
8
L1D0
10
3906
20
1400
0
VERTEX
8
L1D0
10
3926
20
1400
0
VERTEX
8
L1D0
10
3926
20
1300
0
SEQEND
0
POLYLINE
8
L1D0
70
1
40
0
41
0
66
1
0
VERTEX
8
L1D0
10
3951
20
1300
0
VERTEX
8
L1D0
10
3951
20
1400
0
VERTEX
8
L1D0
10
3971
20
1400
0
VERTEX
8
L1D0
10
3971
20
1300
0
SEQEND
0
POLYLINE
8
L1D0
70
1
40
0
41
0
66
1
0
VERTEX
8
L1D0
10
3996
20
1300
0
VERTEX
8
L1D0
10
3996
20
1400
0
VERTEX
8
L1D0
10
4016
20
1400
0
VERTEX
8
L1D0
10
4016
20
1300
0
SEQEND
0
POLYLINE
8
L1D0
70
1
40
0
41
0
66
1
0
VERTEX
8
L1D0
10
4041
20
1300
0
VERTEX
8
L1D0
10
4041
20
1400
0
VERTEX
8
L1D0
10
4061
20
1400
0
VERTEX
8
L1D0
10
4061
20
1300
0
SEQEND
0
POLYLINE
8
L1D0
70
1
40
0
41
0
66
1
0
VERTEX
8
L1D0
10
4086
20
1300
0
VERTEX
8
L1D0
10
4086
20
1400
0
VERTEX
8
L1D0
10
4106
20
1400
0
VERTEX
8
L1D0
10
4106
20
1300
0
SEQEND
0
POLYLINE
8
L1D0
70
1
40
0
41
0
66
1
0
VERTEX
8
L1D0
10
4131
20
1300
0
VERTEX
8
L1D0
10
4131
20
1400
0
VERTEX
8
L1D0
10
4151
20
1400
0
VERTEX
8
L1D0
10
4151
20
1300
0
SEQEND
0
POLYLINE
8
L1D0
70
1
40
0
41
0
66
1
0
VERTEX
8
L1D0
10
4176
20
1300
0
VERTEX
8
L1D0
10
4176
20
1400
0
VERTEX
8
L1D0
10
4196
20
1400
0
VERTEX
8
L1D0
10
4196
20
1300
0
SEQEND
0
POLYLINE
8
L1D0
70
1
40
0
41
0
66
1
0
VERTEX
8
L1D0
10
4221
20
1300
0
VERTEX
8
L1D0
10
4221
20
1400
0
VERTEX
8
L1D0
10
4241
20
1400
0
VERTEX
8
L1D0
10
4241
20
1300
0
SEQEND
0
POLYLINE
8
L1D0
70
1
40
0
41
0
66
1
0
VERTEX
8
L1D0
10
4266
20
1300
0
VERTEX
8
L1D0
10
4266
20
1400
0
VERTEX
8
L1D0
10
4286
20
1400
0
VERTEX
8
L1D0
10
4286
20
1300
0
SEQEND
0
POLYLINE
8
L1D0
70
1
40
0
41
0
66
1
0
VERTEX
8
L1D0
10
4311
20
1300
0
VERTEX
8
L1D0
10
4311
20
1400
0
VERTEX
8
L1D0
10
4331
20
1400
0
VERTEX
8
L1D0
10
4331
20
1300
0
SEQEND
0
POLYLINE
8
L1D0
70
1
40
0
41
0
66
1
0
VERTEX
8
L1D0
10
4356
20
1300
0
VERTEX
8
L1D0
10
4356
20
1400
0
VERTEX
8
L1D0
10
4376
20
1400
0
VERTEX
8
L1D0
10
4376
20
1300
0
SEQEND
0
POLYLINE
8
L1D0
70
1
40
0
41
0
66
1
0
VERTEX
8
L1D0
10
4401
20
1300
0
VERTEX
8
L1D0
10
4401
20
1400
0
VERTEX
8
L1D0
10
4421
20
1400
0
VERTEX
8
L1D0
10
4421
20
1300
0
SEQEND
0
POLYLINE
8
L1D0
70
1
40
0
41
0
66
1
0
VERTEX
8
L1D0
10
4446
20
1300
0
VERTEX
8
L1D0
10
4446
20
1400
0
VERTEX
8
L1D0
10
4466
20
1400
0
VERTEX
8
L1D0
10
4466
20
1300
0
SEQEND
0
POLYLINE
8
L1D0
70
1
40
0
41
0
66
1
0
VERTEX
8
L1D0
10
4491
20
1300
0
VERTEX
8
L1D0
10
4491
20
1400
0
VERTEX
8
L1D0
10
4511
20
1400
0
VERTEX
8
L1D0
10
4511
20
1300
0
SEQEND
0
POLYLINE
8
L1D0
70
1
40
0
41
0
66
1
0
VERTEX
8
L1D0
10
4536
20
1300
0
VERTEX
8
L1D0
10
4536
20
1400
0
VERTEX
8
L1D0
10
4556
20
1400
0
VERTEX
8
L1D0
10
4556
20
1300
0
SEQEND
0
POLYLINE
8
L1D0
70
1
40
0
41
0
66
1
0
VERTEX
8
L1D0
10
4581
20
1300
0
VERTEX
8
L1D0
10
4581
20
1400
0
VERTEX
8
L1D0
10
4601
20
1400
0
VERTEX
8
L1D0
10
4601
20
1300
0
SEQEND
0
POLYLINE
8
L1D0
70
1
40
0
41
0
66
1
0
VERTEX
8
L1D0
10
4626
20
1300
0
VERTEX
8
L1D0
10
4626
20
1400
0
VERTEX
8
L1D0
10
4646
20
1400
0
VERTEX
8
L1D0
10
4646
20
1300
0
SEQEND
0
POLYLINE
8
L1D0
70
1
40
0
41
0
66
1
0
VERTEX
8
L1D0
10
4671
20
1300
0
VERTEX
8
L1D0
10
4671
20
1400
0
VERTEX
8
L1D0
10
4691
20
1400
0
VERTEX
8
L1D0
10
4691
20
1300
0
SEQEND
0
POLYLINE
8
L1D0
70
1
40
0
41
0
66
1
0
VERTEX
8
L1D0
10
4716
20
1300
0
VERTEX
8
L1D0
10
4716
20
1400
0
VERTEX
8
L1D0
10
4736
20
1400
0
VERTEX
8
L1D0
10
4736
20
1300
0
SEQEND
0
POLYLINE
8
L1D0
70
1
40
0
41
0
66
1
0
VERTEX
8
L1D0
10
4761
20
1300
0
VERTEX
8
L1D0
10
4761
20
1400
0
VERTEX
8
L1D0
10
4781
20
1400
0
VERTEX
8
L1D0
10
4781
20
1300
0
SEQEND
0
POLYLINE
8
L1D0
70
1
40
0
41
0
66
1
0
VERTEX
8
L1D0
10
4806
20
1300
0
VERTEX
8
L1D0
10
4806
20
1400
0
VERTEX
8
L1D0
10
4826
20
1400
0
VERTEX
8
L1D0
10
4826
20
1300
0
SEQEND
0
POLYLINE
8
L1D0
70
1
40
0
41
0
66
1
0
VERTEX
8
L1D0
10
2896
20
1300
0
VERTEX
8
L1D0
10
2896
20
1400
0
VERTEX
8
L1D0
10
2901
20
1400
0
VERTEX
8
L1D0
10
2901
20
1300
0
SEQEND
0
POLYLINE
8
L1D0
70
1
40
0
41
0
66
1
0
VERTEX
8
L1D0
10
2941
20
1300
0
VERTEX
8
L1D0
10
2941
20
1400
0
VERTEX
8
L1D0
10
2946
20
1400
0
VERTEX
8
L1D0
10
2946
20
1300
0
SEQEND
0
POLYLINE
8
L1D0
70
1
40
0
41
0
66
1
0
VERTEX
8
L1D0
10
2986
20
1300
0
VERTEX
8
L1D0
10
2986
20
1400
0
VERTEX
8
L1D0
10
2991
20
1400
0
VERTEX
8
L1D0
10
2991
20
1300
0
SEQEND
0
POLYLINE
8
L1D0
70
1
40
0
41
0
66
1
0
VERTEX
8
L1D0
10
3031
20
1300
0
VERTEX
8
L1D0
10
3031
20
1400
0
VERTEX
8
L1D0
10
3036
20
1400
0
VERTEX
8
L1D0
10
3036
20
1300
0
SEQEND
0
POLYLINE
8
L1D0
70
1
40
0
41
0
66
1
0
VERTEX
8
L1D0
10
3076
20
1300
0
VERTEX
8
L1D0
10
3076
20
1400
0
VERTEX
8
L1D0
10
3081
20
1400
0
VERTEX
8
L1D0
10
3081
20
1300
0
SEQEND
0
POLYLINE
8
L1D0
70
1
40
0
41
0
66
1
0
VERTEX
8
L1D0
10
3121
20
1300
0
VERTEX
8
L1D0
10
3121
20
1400
0
VERTEX
8
L1D0
10
3126
20
1400
0
VERTEX
8
L1D0
10
3126
20
1300
0
SEQEND
0
POLYLINE
8
L1D0
70
1
40
0
41
0
66
1
0
VERTEX
8
L1D0
10
3166
20
1300
0
VERTEX
8
L1D0
10
3166
20
1400
0
VERTEX
8
L1D0
10
3171
20
1400
0
VERTEX
8
L1D0
10
3171
20
1300
0
SEQEND
0
POLYLINE
8
L1D0
70
1
40
0
41
0
66
1
0
VERTEX
8
L1D0
10
3211
20
1300
0
VERTEX
8
L1D0
10
3211
20
1400
0
VERTEX
8
L1D0
10
3216
20
1400
0
VERTEX
8
L1D0
10
3216
20
1300
0
SEQEND
0
POLYLINE
8
L1D0
70
1
40
0
41
0
66
1
0
VERTEX
8
L1D0
10
3256
20
1300
0
VERTEX
8
L1D0
10
3256
20
1400
0
VERTEX
8
L1D0
10
3261
20
1400
0
VERTEX
8
L1D0
10
3261
20
1300
0
SEQEND
0
POLYLINE
8
L1D0
70
1
40
0
41
0
66
1
0
VERTEX
8
L1D0
10
3301
20
1300
0
VERTEX
8
L1D0
10
3301
20
1400
0
VERTEX
8
L1D0
10
3306
20
1400
0
VERTEX
8
L1D0
10
3306
20
1300
0
SEQEND
0
POLYLINE
8
L1D0
70
1
40
0
41
0
66
1
0
VERTEX
8
L1D0
10
3346
20
1300
0
VERTEX
8
L1D0
10
3346
20
1400
0
VERTEX
8
L1D0
10
3351
20
1400
0
VERTEX
8
L1D0
10
3351
20
1300
0
SEQEND
0
POLYLINE
8
L1D0
70
1
40
0
41
0
66
1
0
VERTEX
8
L1D0
10
3391
20
1300
0
VERTEX
8
L1D0
10
3391
20
1400
0
VERTEX
8
L1D0
10
3396
20
1400
0
VERTEX
8
L1D0
10
3396
20
1300
0
SEQEND
0
POLYLINE
8
L1D0
70
1
40
0
41
0
66
1
0
VERTEX
8
L1D0
10
3436
20
1300
0
VERTEX
8
L1D0
10
3436
20
1400
0
VERTEX
8
L1D0
10
3441
20
1400
0
VERTEX
8
L1D0
10
3441
20
1300
0
SEQEND
0
POLYLINE
8
L1D0
70
1
40
0
41
0
66
1
0
VERTEX
8
L1D0
10
3481
20
1300
0
VERTEX
8
L1D0
10
3481
20
1400
0
VERTEX
8
L1D0
10
3486
20
1400
0
VERTEX
8
L1D0
10
3486
20
1300
0
SEQEND
0
POLYLINE
8
L1D0
70
1
40
0
41
0
66
1
0
VERTEX
8
L1D0
10
3526
20
1300
0
VERTEX
8
L1D0
10
3526
20
1400
0
VERTEX
8
L1D0
10
3531
20
1400
0
VERTEX
8
L1D0
10
3531
20
1300
0
SEQEND
0
POLYLINE
8
L1D0
70
1
40
0
41
0
66
1
0
VERTEX
8
L1D0
10
3571
20
1300
0
VERTEX
8
L1D0
10
3571
20
1400
0
VERTEX
8
L1D0
10
3576
20
1400
0
VERTEX
8
L1D0
10
3576
20
1300
0
SEQEND
0
POLYLINE
8
L1D0
70
1
40
0
41
0
66
1
0
VERTEX
8
L1D0
10
3616
20
1300
0
VERTEX
8
L1D0
10
3616
20
1400
0
VERTEX
8
L1D0
10
3621
20
1400
0
VERTEX
8
L1D0
10
3621
20
1300
0
SEQEND
0
POLYLINE
8
L1D0
70
1
40
0
41
0
66
1
0
VERTEX
8
L1D0
10
3661
20
1300
0
VERTEX
8
L1D0
10
3661
20
1400
0
VERTEX
8
L1D0
10
3666
20
1400
0
VERTEX
8
L1D0
10
3666
20
1300
0
SEQEND
0
POLYLINE
8
L1D0
70
1
40
0
41
0
66
1
0
VERTEX
8
L1D0
10
3706
20
1300
0
VERTEX
8
L1D0
10
3706
20
1400
0
VERTEX
8
L1D0
10
3711
20
1400
0
VERTEX
8
L1D0
10
3711
20
1300
0
SEQEND
0
POLYLINE
8
L1D0
70
1
40
0
41
0
66
1
0
VERTEX
8
L1D0
10
3751
20
1300
0
VERTEX
8
L1D0
10
3751
20
1400
0
VERTEX
8
L1D0
10
3756
20
1400
0
VERTEX
8
L1D0
10
3756
20
1300
0
SEQEND
0
POLYLINE
8
L1D0
70
1
40
0
41
0
66
1
0
VERTEX
8
L1D0
10
3796
20
1300
0
VERTEX
8
L1D0
10
3796
20
1400
0
VERTEX
8
L1D0
10
3801
20
1400
0
VERTEX
8
L1D0
10
3801
20
1300
0
SEQEND
0
POLYLINE
8
L1D0
70
1
40
0
41
0
66
1
0
VERTEX
8
L1D0
10
3841
20
1300
0
VERTEX
8
L1D0
10
3841
20
1400
0
VERTEX
8
L1D0
10
3846
20
1400
0
VERTEX
8
L1D0
10
3846
20
1300
0
SEQEND
0
POLYLINE
8
L1D0
70
1
40
0
41
0
66
1
0
VERTEX
8
L1D0
10
3886
20
1300
0
VERTEX
8
L1D0
10
3886
20
1400
0
VERTEX
8
L1D0
10
3891
20
1400
0
VERTEX
8
L1D0
10
3891
20
1300
0
SEQEND
0
POLYLINE
8
L1D0
70
1
40
0
41
0
66
1
0
VERTEX
8
L1D0
10
3931
20
1300
0
VERTEX
8
L1D0
10
3931
20
1400
0
VERTEX
8
L1D0
10
3936
20
1400
0
VERTEX
8
L1D0
10
3936
20
1300
0
SEQEND
0
POLYLINE
8
L1D0
70
1
40
0
41
0
66
1
0
VERTEX
8
L1D0
10
3976
20
1300
0
VERTEX
8
L1D0
10
3976
20
1400
0
VERTEX
8
L1D0
10
3981
20
1400
0
VERTEX
8
L1D0
10
3981
20
1300
0
SEQEND
0
POLYLINE
8
L1D0
70
1
40
0
41
0
66
1
0
VERTEX
8
L1D0
10
4021
20
1300
0
VERTEX
8
L1D0
10
4021
20
1400
0
VERTEX
8
L1D0
10
4026
20
1400
0
VERTEX
8
L1D0
10
4026
20
1300
0
SEQEND
0
POLYLINE
8
L1D0
70
1
40
0
41
0
66
1
0
VERTEX
8
L1D0
10
4066
20
1300
0
VERTEX
8
L1D0
10
4066
20
1400
0
VERTEX
8
L1D0
10
4071
20
1400
0
VERTEX
8
L1D0
10
4071
20
1300
0
SEQEND
0
POLYLINE
8
L1D0
70
1
40
0
41
0
66
1
0
VERTEX
8
L1D0
10
4111
20
1300
0
VERTEX
8
L1D0
10
4111
20
1400
0
VERTEX
8
L1D0
10
4116
20
1400
0
VERTEX
8
L1D0
10
4116
20
1300
0
SEQEND
0
POLYLINE
8
L1D0
70
1
40
0
41
0
66
1
0
VERTEX
8
L1D0
10
4156
20
1300
0
VERTEX
8
L1D0
10
4156
20
1400
0
VERTEX
8
L1D0
10
4161
20
1400
0
VERTEX
8
L1D0
10
4161
20
1300
0
SEQEND
0
POLYLINE
8
L1D0
70
1
40
0
41
0
66
1
0
VERTEX
8
L1D0
10
4201
20
1300
0
VERTEX
8
L1D0
10
4201
20
1400
0
VERTEX
8
L1D0
10
4206
20
1400
0
VERTEX
8
L1D0
10
4206
20
1300
0
SEQEND
0
POLYLINE
8
L1D0
70
1
40
0
41
0
66
1
0
VERTEX
8
L1D0
10
4246
20
1300
0
VERTEX
8
L1D0
10
4246
20
1400
0
VERTEX
8
L1D0
10
4251
20
1400
0
VERTEX
8
L1D0
10
4251
20
1300
0
SEQEND
0
POLYLINE
8
L1D0
70
1
40
0
41
0
66
1
0
VERTEX
8
L1D0
10
4291
20
1300
0
VERTEX
8
L1D0
10
4291
20
1400
0
VERTEX
8
L1D0
10
4296
20
1400
0
VERTEX
8
L1D0
10
4296
20
1300
0
SEQEND
0
POLYLINE
8
L1D0
70
1
40
0
41
0
66
1
0
VERTEX
8
L1D0
10
4336
20
1300
0
VERTEX
8
L1D0
10
4336
20
1400
0
VERTEX
8
L1D0
10
4341
20
1400
0
VERTEX
8
L1D0
10
4341
20
1300
0
SEQEND
0
POLYLINE
8
L1D0
70
1
40
0
41
0
66
1
0
VERTEX
8
L1D0
10
4381
20
1300
0
VERTEX
8
L1D0
10
4381
20
1400
0
VERTEX
8
L1D0
10
4386
20
1400
0
VERTEX
8
L1D0
10
4386
20
1300
0
SEQEND
0
POLYLINE
8
L1D0
70
1
40
0
41
0
66
1
0
VERTEX
8
L1D0
10
4426
20
1300
0
VERTEX
8
L1D0
10
4426
20
1400
0
VERTEX
8
L1D0
10
4431
20
1400
0
VERTEX
8
L1D0
10
4431
20
1300
0
SEQEND
0
POLYLINE
8
L1D0
70
1
40
0
41
0
66
1
0
VERTEX
8
L1D0
10
4471
20
1300
0
VERTEX
8
L1D0
10
4471
20
1400
0
VERTEX
8
L1D0
10
4476
20
1400
0
VERTEX
8
L1D0
10
4476
20
1300
0
SEQEND
0
POLYLINE
8
L1D0
70
1
40
0
41
0
66
1
0
VERTEX
8
L1D0
10
4516
20
1300
0
VERTEX
8
L1D0
10
4516
20
1400
0
VERTEX
8
L1D0
10
4521
20
1400
0
VERTEX
8
L1D0
10
4521
20
1300
0
SEQEND
0
POLYLINE
8
L1D0
70
1
40
0
41
0
66
1
0
VERTEX
8
L1D0
10
4561
20
1300
0
VERTEX
8
L1D0
10
4561
20
1400
0
VERTEX
8
L1D0
10
4566
20
1400
0
VERTEX
8
L1D0
10
4566
20
1300
0
SEQEND
0
POLYLINE
8
L1D0
70
1
40
0
41
0
66
1
0
VERTEX
8
L1D0
10
4606
20
1300
0
VERTEX
8
L1D0
10
4606
20
1400
0
VERTEX
8
L1D0
10
4611
20
1400
0
VERTEX
8
L1D0
10
4611
20
1300
0
SEQEND
0
POLYLINE
8
L1D0
70
1
40
0
41
0
66
1
0
VERTEX
8
L1D0
10
4651
20
1300
0
VERTEX
8
L1D0
10
4651
20
1400
0
VERTEX
8
L1D0
10
4656
20
1400
0
VERTEX
8
L1D0
10
4656
20
1300
0
SEQEND
0
POLYLINE
8
L1D0
70
1
40
0
41
0
66
1
0
VERTEX
8
L1D0
10
4696
20
1300
0
VERTEX
8
L1D0
10
4696
20
1400
0
VERTEX
8
L1D0
10
4701
20
1400
0
VERTEX
8
L1D0
10
4701
20
1300
0
SEQEND
0
POLYLINE
8
L1D0
70
1
40
0
41
0
66
1
0
VERTEX
8
L1D0
10
4741
20
1300
0
VERTEX
8
L1D0
10
4741
20
1400
0
VERTEX
8
L1D0
10
4746
20
1400
0
VERTEX
8
L1D0
10
4746
20
1300
0
SEQEND
0
POLYLINE
8
L1D0
70
1
40
0
41
0
66
1
0
VERTEX
8
L1D0
10
4786
20
1300
0
VERTEX
8
L1D0
10
4786
20
1400
0
VERTEX
8
L1D0
10
4791
20
1400
0
VERTEX
8
L1D0
10
4791
20
1300
0
SEQEND
0
POLYLINE
8
L1D0
70
1
40
0
41
0
66
1
0
VERTEX
8
L1D0
10
2851
20
1300
0
VERTEX
8
L1D0
10
2851
20
1400
0
VERTEX
8
L1D0
10
2856
20
1400
0
VERTEX
8
L1D0
10
2856
20
1300
0
SEQEND
0
POLYLINE
8
L1D0
70
1
40
0
41
0
66
1
0
VERTEX
8
L1D0
10
2691
20
1300
0
VERTEX
8
L1D0
10
2691
20
1400
0
VERTEX
8
L1D0
10
2711
20
1400
0
VERTEX
8
L1D0
10
2711
20
1300
0
SEQEND
0
POLYLINE
8
L1D0
70
1
40
0
41
0
66
1
0
VERTEX
8
L1D0
10
2736
20
1300
0
VERTEX
8
L1D0
10
2736
20
1400
0
VERTEX
8
L1D0
10
2756
20
1400
0
VERTEX
8
L1D0
10
2756
20
1300
0
SEQEND
0
POLYLINE
8
L1D0
70
1
40
0
41
0
66
1
0
VERTEX
8
L1D0
10
2781
20
1300
0
VERTEX
8
L1D0
10
2781
20
1400
0
VERTEX
8
L1D0
10
2801
20
1400
0
VERTEX
8
L1D0
10
2801
20
1300
0
SEQEND
0
POLYLINE
8
L1D0
70
1
40
0
41
0
66
1
0
VERTEX
8
L1D0
10
2826
20
1300
0
VERTEX
8
L1D0
10
2826
20
1400
0
VERTEX
8
L1D0
10
2846
20
1400
0
VERTEX
8
L1D0
10
2846
20
1300
0
SEQEND
0
POLYLINE
8
L1D0
70
1
40
0
41
0
66
1
0
VERTEX
8
L1D0
10
2761
20
1300
0
VERTEX
8
L1D0
10
2761
20
1400
0
VERTEX
8
L1D0
10
2766
20
1400
0
VERTEX
8
L1D0
10
2766
20
1300
0
SEQEND
0
POLYLINE
8
L1D0
70
1
40
0
41
0
66
1
0
VERTEX
8
L1D0
10
2671
20
1300
0
VERTEX
8
L1D0
10
2671
20
1400
0
VERTEX
8
L1D0
10
2676
20
1400
0
VERTEX
8
L1D0
10
2676
20
1300
0
SEQEND
0
POLYLINE
8
L1D0
70
1
40
0
41
0
66
1
0
VERTEX
8
L1D0
10
2716
20
1300
0
VERTEX
8
L1D0
10
2716
20
1400
0
VERTEX
8
L1D0
10
2721
20
1400
0
VERTEX
8
L1D0
10
2721
20
1300
0
SEQEND
0
POLYLINE
8
L1D0
70
1
40
0
41
0
66
1
0
VERTEX
8
L1D0
10
2806
20
1300
0
VERTEX
8
L1D0
10
2806
20
1400
0
VERTEX
8
L1D0
10
2811
20
1400
0
VERTEX
8
L1D0
10
2811
20
1300
0
SEQEND
0
POLYLINE
8
L1D0
70
1
40
0
41
0
66
1
0
VERTEX
8
L1D0
10
2511
20
1300
0
VERTEX
8
L1D0
10
2511
20
1400
0
VERTEX
8
L1D0
10
2531
20
1400
0
VERTEX
8
L1D0
10
2531
20
1300
0
SEQEND
0
POLYLINE
8
L1D0
70
1
40
0
41
0
66
1
0
VERTEX
8
L1D0
10
2556
20
1300
0
VERTEX
8
L1D0
10
2556
20
1400
0
VERTEX
8
L1D0
10
2576
20
1400
0
VERTEX
8
L1D0
10
2576
20
1300
0
SEQEND
0
POLYLINE
8
L1D0
70
1
40
0
41
0
66
1
0
VERTEX
8
L1D0
10
1636
20
1300
0
VERTEX
8
L1D0
10
1636
20
1400
0
VERTEX
8
L1D0
10
1641
20
1400
0
VERTEX
8
L1D0
10
1641
20
1300
0
SEQEND
0
POLYLINE
8
L1D0
70
1
40
0
41
0
66
1
0
VERTEX
8
L1D0
10
1681
20
1300
0
VERTEX
8
L1D0
10
1681
20
1400
0
VERTEX
8
L1D0
10
1686
20
1400
0
VERTEX
8
L1D0
10
1686
20
1300
0
SEQEND
0
POLYLINE
8
L1D0
70
1
40
0
41
0
66
1
0
VERTEX
8
L1D0
10
1726
20
1300
0
VERTEX
8
L1D0
10
1726
20
1400
0
VERTEX
8
L1D0
10
1731
20
1400
0
VERTEX
8
L1D0
10
1731
20
1300
0
SEQEND
0
POLYLINE
8
L1D0
70
1
40
0
41
0
66
1
0
VERTEX
8
L1D0
10
1771
20
1300
0
VERTEX
8
L1D0
10
1771
20
1400
0
VERTEX
8
L1D0
10
1776
20
1400
0
VERTEX
8
L1D0
10
1776
20
1300
0
SEQEND
0
POLYLINE
8
L1D0
70
1
40
0
41
0
66
1
0
VERTEX
8
L1D0
10
1816
20
1300
0
VERTEX
8
L1D0
10
1816
20
1400
0
VERTEX
8
L1D0
10
1821
20
1400
0
VERTEX
8
L1D0
10
1821
20
1300
0
SEQEND
0
POLYLINE
8
L1D0
70
1
40
0
41
0
66
1
0
VERTEX
8
L1D0
10
1861
20
1300
0
VERTEX
8
L1D0
10
1861
20
1400
0
VERTEX
8
L1D0
10
1866
20
1400
0
VERTEX
8
L1D0
10
1866
20
1300
0
SEQEND
0
POLYLINE
8
L1D0
70
1
40
0
41
0
66
1
0
VERTEX
8
L1D0
10
1906
20
1300
0
VERTEX
8
L1D0
10
1906
20
1400
0
VERTEX
8
L1D0
10
1911
20
1400
0
VERTEX
8
L1D0
10
1911
20
1300
0
SEQEND
0
POLYLINE
8
L1D0
70
1
40
0
41
0
66
1
0
VERTEX
8
L1D0
10
1951
20
1300
0
VERTEX
8
L1D0
10
1951
20
1400
0
VERTEX
8
L1D0
10
1956
20
1400
0
VERTEX
8
L1D0
10
1956
20
1300
0
SEQEND
0
POLYLINE
8
L1D0
70
1
40
0
41
0
66
1
0
VERTEX
8
L1D0
10
1996
20
1300
0
VERTEX
8
L1D0
10
1996
20
1400
0
VERTEX
8
L1D0
10
2001
20
1400
0
VERTEX
8
L1D0
10
2001
20
1300
0
SEQEND
0
POLYLINE
8
L1D0
70
1
40
0
41
0
66
1
0
VERTEX
8
L1D0
10
2041
20
1300
0
VERTEX
8
L1D0
10
2041
20
1400
0
VERTEX
8
L1D0
10
2046
20
1400
0
VERTEX
8
L1D0
10
2046
20
1300
0
SEQEND
0
POLYLINE
8
L1D0
70
1
40
0
41
0
66
1
0
VERTEX
8
L1D0
10
2086
20
1300
0
VERTEX
8
L1D0
10
2086
20
1400
0
VERTEX
8
L1D0
10
2091
20
1400
0
VERTEX
8
L1D0
10
2091
20
1300
0
SEQEND
0
POLYLINE
8
L1D0
70
1
40
0
41
0
66
1
0
VERTEX
8
L1D0
10
2131
20
1300
0
VERTEX
8
L1D0
10
2131
20
1400
0
VERTEX
8
L1D0
10
2136
20
1400
0
VERTEX
8
L1D0
10
2136
20
1300
0
SEQEND
0
POLYLINE
8
L1D0
70
1
40
0
41
0
66
1
0
VERTEX
8
L1D0
10
2176
20
1300
0
VERTEX
8
L1D0
10
2176
20
1400
0
VERTEX
8
L1D0
10
2181
20
1400
0
VERTEX
8
L1D0
10
2181
20
1300
0
SEQEND
0
POLYLINE
8
L1D0
70
1
40
0
41
0
66
1
0
VERTEX
8
L1D0
10
2221
20
1300
0
VERTEX
8
L1D0
10
2221
20
1400
0
VERTEX
8
L1D0
10
2226
20
1400
0
VERTEX
8
L1D0
10
2226
20
1300
0
SEQEND
0
POLYLINE
8
L1D0
70
1
40
0
41
0
66
1
0
VERTEX
8
L1D0
10
2266
20
1300
0
VERTEX
8
L1D0
10
2266
20
1400
0
VERTEX
8
L1D0
10
2271
20
1400
0
VERTEX
8
L1D0
10
2271
20
1300
0
SEQEND
0
POLYLINE
8
L1D0
70
1
40
0
41
0
66
1
0
VERTEX
8
L1D0
10
2311
20
1300
0
VERTEX
8
L1D0
10
2311
20
1400
0
VERTEX
8
L1D0
10
2316
20
1400
0
VERTEX
8
L1D0
10
2316
20
1300
0
SEQEND
0
POLYLINE
8
L1D0
70
1
40
0
41
0
66
1
0
VERTEX
8
L1D0
10
2356
20
1300
0
VERTEX
8
L1D0
10
2356
20
1400
0
VERTEX
8
L1D0
10
2361
20
1400
0
VERTEX
8
L1D0
10
2361
20
1300
0
SEQEND
0
POLYLINE
8
L1D0
70
1
40
0
41
0
66
1
0
VERTEX
8
L1D0
10
2401
20
1300
0
VERTEX
8
L1D0
10
2401
20
1400
0
VERTEX
8
L1D0
10
2406
20
1400
0
VERTEX
8
L1D0
10
2406
20
1300
0
SEQEND
0
POLYLINE
8
L1D0
70
1
40
0
41
0
66
1
0
VERTEX
8
L1D0
10
2446
20
1300
0
VERTEX
8
L1D0
10
2446
20
1400
0
VERTEX
8
L1D0
10
2451
20
1400
0
VERTEX
8
L1D0
10
2451
20
1300
0
SEQEND
0
POLYLINE
8
L1D0
70
1
40
0
41
0
66
1
0
VERTEX
8
L1D0
10
2491
20
1300
0
VERTEX
8
L1D0
10
2491
20
1400
0
VERTEX
8
L1D0
10
2496
20
1400
0
VERTEX
8
L1D0
10
2496
20
1300
0
SEQEND
0
POLYLINE
8
L1D0
70
1
40
0
41
0
66
1
0
VERTEX
8
L1D0
10
2536
20
1300
0
VERTEX
8
L1D0
10
2536
20
1400
0
VERTEX
8
L1D0
10
2541
20
1400
0
VERTEX
8
L1D0
10
2541
20
1300
0
SEQEND
0
POLYLINE
8
L1D0
70
1
40
0
41
0
66
1
0
VERTEX
8
L1D0
10
2581
20
1300
0
VERTEX
8
L1D0
10
2581
20
1400
0
VERTEX
8
L1D0
10
2586
20
1400
0
VERTEX
8
L1D0
10
2586
20
1300
0
SEQEND
0
POLYLINE
8
L1D0
70
1
40
0
41
0
66
1
0
VERTEX
8
L1D0
10
2626
20
1300
0
VERTEX
8
L1D0
10
2626
20
1400
0
VERTEX
8
L1D0
10
2631
20
1400
0
VERTEX
8
L1D0
10
2631
20
1300
0
SEQEND
0
POLYLINE
8
L1D0
70
1
40
0
41
0
66
1
0
VERTEX
8
L1D0
10
2601
20
1300
0
VERTEX
8
L1D0
10
2601
20
1400
0
VERTEX
8
L1D0
10
2621
20
1400
0
VERTEX
8
L1D0
10
2621
20
1300
0
SEQEND
0
POLYLINE
8
L1D0
70
1
40
0
41
0
66
1
0
VERTEX
8
L1D0
10
2466
20
1300
0
VERTEX
8
L1D0
10
2466
20
1400
0
VERTEX
8
L1D0
10
2486
20
1400
0
VERTEX
8
L1D0
10
2486
20
1300
0
SEQEND
0
POLYLINE
8
L1D0
70
1
40
0
41
0
66
1
0
VERTEX
8
L1D0
10
1611
20
1300
0
VERTEX
8
L1D0
10
1611
20
1400
0
VERTEX
8
L1D0
10
1631
20
1400
0
VERTEX
8
L1D0
10
1631
20
1300
0
SEQEND
0
POLYLINE
8
L1D0
70
1
40
0
41
0
66
1
0
VERTEX
8
L1D0
10
1656
20
1300
0
VERTEX
8
L1D0
10
1656
20
1400
0
VERTEX
8
L1D0
10
1676
20
1400
0
VERTEX
8
L1D0
10
1676
20
1300
0
SEQEND
0
POLYLINE
8
L1D0
70
1
40
0
41
0
66
1
0
VERTEX
8
L1D0
10
1701
20
1300
0
VERTEX
8
L1D0
10
1701
20
1400
0
VERTEX
8
L1D0
10
1721
20
1400
0
VERTEX
8
L1D0
10
1721
20
1300
0
SEQEND
0
POLYLINE
8
L1D0
70
1
40
0
41
0
66
1
0
VERTEX
8
L1D0
10
1746
20
1300
0
VERTEX
8
L1D0
10
1746
20
1400
0
VERTEX
8
L1D0
10
1766
20
1400
0
VERTEX
8
L1D0
10
1766
20
1300
0
SEQEND
0
POLYLINE
8
L1D0
70
1
40
0
41
0
66
1
0
VERTEX
8
L1D0
10
1791
20
1300
0
VERTEX
8
L1D0
10
1791
20
1400
0
VERTEX
8
L1D0
10
1811
20
1400
0
VERTEX
8
L1D0
10
1811
20
1300
0
SEQEND
0
POLYLINE
8
L1D0
70
1
40
0
41
0
66
1
0
VERTEX
8
L1D0
10
1836
20
1300
0
VERTEX
8
L1D0
10
1836
20
1400
0
VERTEX
8
L1D0
10
1856
20
1400
0
VERTEX
8
L1D0
10
1856
20
1300
0
SEQEND
0
POLYLINE
8
L1D0
70
1
40
0
41
0
66
1
0
VERTEX
8
L1D0
10
1881
20
1300
0
VERTEX
8
L1D0
10
1881
20
1400
0
VERTEX
8
L1D0
10
1901
20
1400
0
VERTEX
8
L1D0
10
1901
20
1300
0
SEQEND
0
POLYLINE
8
L1D0
70
1
40
0
41
0
66
1
0
VERTEX
8
L1D0
10
1926
20
1300
0
VERTEX
8
L1D0
10
1926
20
1400
0
VERTEX
8
L1D0
10
1946
20
1400
0
VERTEX
8
L1D0
10
1946
20
1300
0
SEQEND
0
POLYLINE
8
L1D0
70
1
40
0
41
0
66
1
0
VERTEX
8
L1D0
10
1971
20
1300
0
VERTEX
8
L1D0
10
1971
20
1400
0
VERTEX
8
L1D0
10
1991
20
1400
0
VERTEX
8
L1D0
10
1991
20
1300
0
SEQEND
0
POLYLINE
8
L1D0
70
1
40
0
41
0
66
1
0
VERTEX
8
L1D0
10
2016
20
1300
0
VERTEX
8
L1D0
10
2016
20
1400
0
VERTEX
8
L1D0
10
2036
20
1400
0
VERTEX
8
L1D0
10
2036
20
1300
0
SEQEND
0
POLYLINE
8
L1D0
70
1
40
0
41
0
66
1
0
VERTEX
8
L1D0
10
2061
20
1300
0
VERTEX
8
L1D0
10
2061
20
1400
0
VERTEX
8
L1D0
10
2081
20
1400
0
VERTEX
8
L1D0
10
2081
20
1300
0
SEQEND
0
POLYLINE
8
L1D0
70
1
40
0
41
0
66
1
0
VERTEX
8
L1D0
10
2106
20
1300
0
VERTEX
8
L1D0
10
2106
20
1400
0
VERTEX
8
L1D0
10
2126
20
1400
0
VERTEX
8
L1D0
10
2126
20
1300
0
SEQEND
0
POLYLINE
8
L1D0
70
1
40
0
41
0
66
1
0
VERTEX
8
L1D0
10
2151
20
1300
0
VERTEX
8
L1D0
10
2151
20
1400
0
VERTEX
8
L1D0
10
2171
20
1400
0
VERTEX
8
L1D0
10
2171
20
1300
0
SEQEND
0
POLYLINE
8
L1D0
70
1
40
0
41
0
66
1
0
VERTEX
8
L1D0
10
2196
20
1300
0
VERTEX
8
L1D0
10
2196
20
1400
0
VERTEX
8
L1D0
10
2216
20
1400
0
VERTEX
8
L1D0
10
2216
20
1300
0
SEQEND
0
POLYLINE
8
L1D0
70
1
40
0
41
0
66
1
0
VERTEX
8
L1D0
10
2241
20
1300
0
VERTEX
8
L1D0
10
2241
20
1400
0
VERTEX
8
L1D0
10
2261
20
1400
0
VERTEX
8
L1D0
10
2261
20
1300
0
SEQEND
0
POLYLINE
8
L1D0
70
1
40
0
41
0
66
1
0
VERTEX
8
L1D0
10
2286
20
1300
0
VERTEX
8
L1D0
10
2286
20
1400
0
VERTEX
8
L1D0
10
2306
20
1400
0
VERTEX
8
L1D0
10
2306
20
1300
0
SEQEND
0
POLYLINE
8
L1D0
70
1
40
0
41
0
66
1
0
VERTEX
8
L1D0
10
2646
20
1300
0
VERTEX
8
L1D0
10
2646
20
1400
0
VERTEX
8
L1D0
10
2666
20
1400
0
VERTEX
8
L1D0
10
2666
20
1300
0
SEQEND
0
POLYLINE
8
L1D0
70
1
40
0
41
0
66
1
0
VERTEX
8
L1D0
10
2331
20
1300
0
VERTEX
8
L1D0
10
2331
20
1400
0
VERTEX
8
L1D0
10
2351
20
1400
0
VERTEX
8
L1D0
10
2351
20
1300
0
SEQEND
0
POLYLINE
8
L1D0
70
1
40
0
41
0
66
1
0
VERTEX
8
L1D0
10
2376
20
1300
0
VERTEX
8
L1D0
10
2376
20
1400
0
VERTEX
8
L1D0
10
2396
20
1400
0
VERTEX
8
L1D0
10
2396
20
1300
0
SEQEND
0
POLYLINE
8
L1D0
70
1
40
0
41
0
66
1
0
VERTEX
8
L1D0
10
2421
20
1300
0
VERTEX
8
L1D0
10
2421
20
1400
0
VERTEX
8
L1D0
10
2441
20
1400
0
VERTEX
8
L1D0
10
2441
20
1300
0
SEQEND
0
POLYLINE
8
L1D0
70
1
40
0
41
0
66
1
0
VERTEX
8
L1D0
10
1411
20
1300
0
VERTEX
8
L1D0
10
1411
20
1400
0
VERTEX
8
L1D0
10
1416
20
1400
0
VERTEX
8
L1D0
10
1416
20
1300
0
SEQEND
0
POLYLINE
8
L1D0
70
1
40
0
41
0
66
1
0
VERTEX
8
L1D0
10
1456
20
1300
0
VERTEX
8
L1D0
10
1456
20
1400
0
VERTEX
8
L1D0
10
1461
20
1400
0
VERTEX
8
L1D0
10
1461
20
1300
0
SEQEND
0
POLYLINE
8
L1D0
70
1
40
0
41
0
66
1
0
VERTEX
8
L1D0
10
1501
20
1300
0
VERTEX
8
L1D0
10
1501
20
1400
0
VERTEX
8
L1D0
10
1506
20
1400
0
VERTEX
8
L1D0
10
1506
20
1300
0
SEQEND
0
POLYLINE
8
L1D0
70
1
40
0
41
0
66
1
0
VERTEX
8
L1D0
10
1386
20
1300
0
VERTEX
8
L1D0
10
1386
20
1400
0
VERTEX
8
L1D0
10
1406
20
1400
0
VERTEX
8
L1D0
10
1406
20
1300
0
SEQEND
0
POLYLINE
8
L1D0
70
1
40
0
41
0
66
1
0
VERTEX
8
L1D0
10
1431
20
1300
0
VERTEX
8
L1D0
10
1431
20
1400
0
VERTEX
8
L1D0
10
1451
20
1400
0
VERTEX
8
L1D0
10
1451
20
1300
0
SEQEND
0
POLYLINE
8
L1D0
70
1
40
0
41
0
66
1
0
VERTEX
8
L1D0
10
1476
20
1300
0
VERTEX
8
L1D0
10
1476
20
1400
0
VERTEX
8
L1D0
10
1496
20
1400
0
VERTEX
8
L1D0
10
1496
20
1300
0
SEQEND
0
POLYLINE
8
L1D0
70
1
40
0
41
0
66
1
0
VERTEX
8
L1D0
10
1521
20
1300
0
VERTEX
8
L1D0
10
1521
20
1400
0
VERTEX
8
L1D0
10
1541
20
1400
0
VERTEX
8
L1D0
10
1541
20
1300
0
SEQEND
0
POLYLINE
8
L1D0
70
1
40
0
41
0
66
1
0
VERTEX
8
L1D0
10
1566
20
1300
0
VERTEX
8
L1D0
10
1566
20
1400
0
VERTEX
8
L1D0
10
1586
20
1400
0
VERTEX
8
L1D0
10
1586
20
1300
0
SEQEND
0
POLYLINE
8
L1D0
70
1
40
0
41
0
66
1
0
VERTEX
8
L1D0
10
1546
20
1300
0
VERTEX
8
L1D0
10
1546
20
1400
0
VERTEX
8
L1D0
10
1551
20
1400
0
VERTEX
8
L1D0
10
1551
20
1300
0
SEQEND
0
POLYLINE
8
L1D0
70
1
40
0
41
0
66
1
0
VERTEX
8
L1D0
10
1591
20
1300
0
VERTEX
8
L1D0
10
1591
20
1400
0
VERTEX
8
L1D0
10
1596
20
1400
0
VERTEX
8
L1D0
10
1596
20
1300
0
SEQEND
0
POLYLINE
8
L1D0
70
1
40
0
41
0
66
1
0
VERTEX
8
L1D0
10
1341
20
1300
0
VERTEX
8
L1D0
10
1341
20
1400
0
VERTEX
8
L1D0
10
1361
20
1400
0
VERTEX
8
L1D0
10
1361
20
1300
0
SEQEND
0
POLYLINE
8
L1D0
70
1
40
0
41
0
66
1
0
VERTEX
8
L1D0
10
396
20
1300
0
VERTEX
8
L1D0
10
396
20
1400
0
VERTEX
8
L1D0
10
416
20
1400
0
VERTEX
8
L1D0
10
416
20
1300
0
SEQEND
0
POLYLINE
8
L1D0
70
1
40
0
41
0
66
1
0
VERTEX
8
L1D0
10
486
20
1300
0
VERTEX
8
L1D0
10
486
20
1400
0
VERTEX
8
L1D0
10
506
20
1400
0
VERTEX
8
L1D0
10
506
20
1300
0
SEQEND
0
POLYLINE
8
L1D0
70
1
40
0
41
0
66
1
0
VERTEX
8
L1D0
10
1366
20
1300
0
VERTEX
8
L1D0
10
1366
20
1400
0
VERTEX
8
L1D0
10
1371
20
1400
0
VERTEX
8
L1D0
10
1371
20
1300
0
SEQEND
0
POLYLINE
8
L1D0
70
1
40
0
41
0
66
1
0
VERTEX
8
L1D0
10
351
20
1300
0
VERTEX
8
L1D0
10
351
20
1400
0
VERTEX
8
L1D0
10
371
20
1400
0
VERTEX
8
L1D0
10
371
20
1300
0
SEQEND
0
POLYLINE
8
L1D0
70
1
40
0
41
0
66
1
0
VERTEX
8
L1D0
10
531
20
1300
0
VERTEX
8
L1D0
10
531
20
1400
0
VERTEX
8
L1D0
10
551
20
1400
0
VERTEX
8
L1D0
10
551
20
1300
0
SEQEND
0
POLYLINE
8
L1D0
70
1
40
0
41
0
66
1
0
VERTEX
8
L1D0
10
576
20
1300
0
VERTEX
8
L1D0
10
576
20
1400
0
VERTEX
8
L1D0
10
596
20
1400
0
VERTEX
8
L1D0
10
596
20
1300
0
SEQEND
0
POLYLINE
8
L1D0
70
1
40
0
41
0
66
1
0
VERTEX
8
L1D0
10
621
20
1300
0
VERTEX
8
L1D0
10
621
20
1400
0
VERTEX
8
L1D0
10
641
20
1400
0
VERTEX
8
L1D0
10
641
20
1300
0
SEQEND
0
POLYLINE
8
L1D0
70
1
40
0
41
0
66
1
0
VERTEX
8
L1D0
10
666
20
1300
0
VERTEX
8
L1D0
10
666
20
1400
0
VERTEX
8
L1D0
10
686
20
1400
0
VERTEX
8
L1D0
10
686
20
1300
0
SEQEND
0
POLYLINE
8
L1D0
70
1
40
0
41
0
66
1
0
VERTEX
8
L1D0
10
711
20
1300
0
VERTEX
8
L1D0
10
711
20
1400
0
VERTEX
8
L1D0
10
731
20
1400
0
VERTEX
8
L1D0
10
731
20
1300
0
SEQEND
0
POLYLINE
8
L1D0
70
1
40
0
41
0
66
1
0
VERTEX
8
L1D0
10
756
20
1300
0
VERTEX
8
L1D0
10
756
20
1400
0
VERTEX
8
L1D0
10
776
20
1400
0
VERTEX
8
L1D0
10
776
20
1300
0
SEQEND
0
POLYLINE
8
L1D0
70
1
40
0
41
0
66
1
0
VERTEX
8
L1D0
10
801
20
1300
0
VERTEX
8
L1D0
10
801
20
1400
0
VERTEX
8
L1D0
10
821
20
1400
0
VERTEX
8
L1D0
10
821
20
1300
0
SEQEND
0
POLYLINE
8
L1D0
70
1
40
0
41
0
66
1
0
VERTEX
8
L1D0
10
846
20
1300
0
VERTEX
8
L1D0
10
846
20
1400
0
VERTEX
8
L1D0
10
866
20
1400
0
VERTEX
8
L1D0
10
866
20
1300
0
SEQEND
0
POLYLINE
8
L1D0
70
1
40
0
41
0
66
1
0
VERTEX
8
L1D0
10
891
20
1300
0
VERTEX
8
L1D0
10
891
20
1400
0
VERTEX
8
L1D0
10
911
20
1400
0
VERTEX
8
L1D0
10
911
20
1300
0
SEQEND
0
POLYLINE
8
L1D0
70
1
40
0
41
0
66
1
0
VERTEX
8
L1D0
10
936
20
1300
0
VERTEX
8
L1D0
10
936
20
1400
0
VERTEX
8
L1D0
10
956
20
1400
0
VERTEX
8
L1D0
10
956
20
1300
0
SEQEND
0
POLYLINE
8
L1D0
70
1
40
0
41
0
66
1
0
VERTEX
8
L1D0
10
981
20
1300
0
VERTEX
8
L1D0
10
981
20
1400
0
VERTEX
8
L1D0
10
1001
20
1400
0
VERTEX
8
L1D0
10
1001
20
1300
0
SEQEND
0
POLYLINE
8
L1D0
70
1
40
0
41
0
66
1
0
VERTEX
8
L1D0
10
1026
20
1300
0
VERTEX
8
L1D0
10
1026
20
1400
0
VERTEX
8
L1D0
10
1046
20
1400
0
VERTEX
8
L1D0
10
1046
20
1300
0
SEQEND
0
POLYLINE
8
L1D0
70
1
40
0
41
0
66
1
0
VERTEX
8
L1D0
10
1071
20
1300
0
VERTEX
8
L1D0
10
1071
20
1400
0
VERTEX
8
L1D0
10
1091
20
1400
0
VERTEX
8
L1D0
10
1091
20
1300
0
SEQEND
0
POLYLINE
8
L1D0
70
1
40
0
41
0
66
1
0
VERTEX
8
L1D0
10
1116
20
1300
0
VERTEX
8
L1D0
10
1116
20
1400
0
VERTEX
8
L1D0
10
1136
20
1400
0
VERTEX
8
L1D0
10
1136
20
1300
0
SEQEND
0
POLYLINE
8
L1D0
70
1
40
0
41
0
66
1
0
VERTEX
8
L1D0
10
1161
20
1300
0
VERTEX
8
L1D0
10
1161
20
1400
0
VERTEX
8
L1D0
10
1181
20
1400
0
VERTEX
8
L1D0
10
1181
20
1300
0
SEQEND
0
POLYLINE
8
L1D0
70
1
40
0
41
0
66
1
0
VERTEX
8
L1D0
10
1206
20
1300
0
VERTEX
8
L1D0
10
1206
20
1400
0
VERTEX
8
L1D0
10
1226
20
1400
0
VERTEX
8
L1D0
10
1226
20
1300
0
SEQEND
0
POLYLINE
8
L1D0
70
1
40
0
41
0
66
1
0
VERTEX
8
L1D0
10
1251
20
1300
0
VERTEX
8
L1D0
10
1251
20
1400
0
VERTEX
8
L1D0
10
1271
20
1400
0
VERTEX
8
L1D0
10
1271
20
1300
0
SEQEND
0
POLYLINE
8
L1D0
70
1
40
0
41
0
66
1
0
VERTEX
8
L1D0
10
1296
20
1300
0
VERTEX
8
L1D0
10
1296
20
1400
0
VERTEX
8
L1D0
10
1316
20
1400
0
VERTEX
8
L1D0
10
1316
20
1300
0
SEQEND
0
POLYLINE
8
L1D0
70
1
40
0
41
0
66
1
0
VERTEX
8
L1D0
10
736
20
1300
0
VERTEX
8
L1D0
10
736
20
1400
0
VERTEX
8
L1D0
10
741
20
1400
0
VERTEX
8
L1D0
10
741
20
1300
0
SEQEND
0
POLYLINE
8
L1D0
70
1
40
0
41
0
66
1
0
VERTEX
8
L1D0
10
781
20
1300
0
VERTEX
8
L1D0
10
781
20
1400
0
VERTEX
8
L1D0
10
786
20
1400
0
VERTEX
8
L1D0
10
786
20
1300
0
SEQEND
0
POLYLINE
8
L1D0
70
1
40
0
41
0
66
1
0
VERTEX
8
L1D0
10
826
20
1300
0
VERTEX
8
L1D0
10
826
20
1400
0
VERTEX
8
L1D0
10
831
20
1400
0
VERTEX
8
L1D0
10
831
20
1300
0
SEQEND
0
POLYLINE
8
L1D0
70
1
40
0
41
0
66
1
0
VERTEX
8
L1D0
10
871
20
1300
0
VERTEX
8
L1D0
10
871
20
1400
0
VERTEX
8
L1D0
10
876
20
1400
0
VERTEX
8
L1D0
10
876
20
1300
0
SEQEND
0
POLYLINE
8
L1D0
70
1
40
0
41
0
66
1
0
VERTEX
8
L1D0
10
916
20
1300
0
VERTEX
8
L1D0
10
916
20
1400
0
VERTEX
8
L1D0
10
921
20
1400
0
VERTEX
8
L1D0
10
921
20
1300
0
SEQEND
0
POLYLINE
8
L1D0
70
1
40
0
41
0
66
1
0
VERTEX
8
L1D0
10
961
20
1300
0
VERTEX
8
L1D0
10
961
20
1400
0
VERTEX
8
L1D0
10
966
20
1400
0
VERTEX
8
L1D0
10
966
20
1300
0
SEQEND
0
POLYLINE
8
L1D0
70
1
40
0
41
0
66
1
0
VERTEX
8
L1D0
10
1006
20
1300
0
VERTEX
8
L1D0
10
1006
20
1400
0
VERTEX
8
L1D0
10
1011
20
1400
0
VERTEX
8
L1D0
10
1011
20
1300
0
SEQEND
0
POLYLINE
8
L1D0
70
1
40
0
41
0
66
1
0
VERTEX
8
L1D0
10
1051
20
1300
0
VERTEX
8
L1D0
10
1051
20
1400
0
VERTEX
8
L1D0
10
1056
20
1400
0
VERTEX
8
L1D0
10
1056
20
1300
0
SEQEND
0
POLYLINE
8
L1D0
70
1
40
0
41
0
66
1
0
VERTEX
8
L1D0
10
1096
20
1300
0
VERTEX
8
L1D0
10
1096
20
1400
0
VERTEX
8
L1D0
10
1101
20
1400
0
VERTEX
8
L1D0
10
1101
20
1300
0
SEQEND
0
POLYLINE
8
L1D0
70
1
40
0
41
0
66
1
0
VERTEX
8
L1D0
10
1141
20
1300
0
VERTEX
8
L1D0
10
1141
20
1400
0
VERTEX
8
L1D0
10
1146
20
1400
0
VERTEX
8
L1D0
10
1146
20
1300
0
SEQEND
0
POLYLINE
8
L1D0
70
1
40
0
41
0
66
1
0
VERTEX
8
L1D0
10
1186
20
1300
0
VERTEX
8
L1D0
10
1186
20
1400
0
VERTEX
8
L1D0
10
1191
20
1400
0
VERTEX
8
L1D0
10
1191
20
1300
0
SEQEND
0
POLYLINE
8
L1D0
70
1
40
0
41
0
66
1
0
VERTEX
8
L1D0
10
1231
20
1300
0
VERTEX
8
L1D0
10
1231
20
1400
0
VERTEX
8
L1D0
10
1236
20
1400
0
VERTEX
8
L1D0
10
1236
20
1300
0
SEQEND
0
POLYLINE
8
L1D0
70
1
40
0
41
0
66
1
0
VERTEX
8
L1D0
10
1276
20
1300
0
VERTEX
8
L1D0
10
1276
20
1400
0
VERTEX
8
L1D0
10
1281
20
1400
0
VERTEX
8
L1D0
10
1281
20
1300
0
SEQEND
0
POLYLINE
8
L1D0
70
1
40
0
41
0
66
1
0
VERTEX
8
L1D0
10
1321
20
1300
0
VERTEX
8
L1D0
10
1321
20
1400
0
VERTEX
8
L1D0
10
1326
20
1400
0
VERTEX
8
L1D0
10
1326
20
1300
0
SEQEND
0
POLYLINE
8
L1D0
70
1
40
0
41
0
66
1
0
VERTEX
8
L1D0
10
421
20
1300
0
VERTEX
8
L1D0
10
421
20
1400
0
VERTEX
8
L1D0
10
426
20
1400
0
VERTEX
8
L1D0
10
426
20
1300
0
SEQEND
0
POLYLINE
8
L1D0
70
1
40
0
41
0
66
1
0
VERTEX
8
L1D0
10
466
20
1300
0
VERTEX
8
L1D0
10
466
20
1400
0
VERTEX
8
L1D0
10
471
20
1400
0
VERTEX
8
L1D0
10
471
20
1300
0
SEQEND
0
POLYLINE
8
L1D0
70
1
40
0
41
0
66
1
0
VERTEX
8
L1D0
10
376
20
1300
0
VERTEX
8
L1D0
10
376
20
1400
0
VERTEX
8
L1D0
10
381
20
1400
0
VERTEX
8
L1D0
10
381
20
1300
0
SEQEND
0
POLYLINE
8
L1D0
70
1
40
0
41
0
66
1
0
VERTEX
8
L1D0
10
511
20
1300
0
VERTEX
8
L1D0
10
511
20
1400
0
VERTEX
8
L1D0
10
516
20
1400
0
VERTEX
8
L1D0
10
516
20
1300
0
SEQEND
0
POLYLINE
8
L1D0
70
1
40
0
41
0
66
1
0
VERTEX
8
L1D0
10
556
20
1300
0
VERTEX
8
L1D0
10
556
20
1400
0
VERTEX
8
L1D0
10
561
20
1400
0
VERTEX
8
L1D0
10
561
20
1300
0
SEQEND
0
POLYLINE
8
L1D0
70
1
40
0
41
0
66
1
0
VERTEX
8
L1D0
10
601
20
1300
0
VERTEX
8
L1D0
10
601
20
1400
0
VERTEX
8
L1D0
10
606
20
1400
0
VERTEX
8
L1D0
10
606
20
1300
0
SEQEND
0
POLYLINE
8
L1D0
70
1
40
0
41
0
66
1
0
VERTEX
8
L1D0
10
646
20
1300
0
VERTEX
8
L1D0
10
646
20
1400
0
VERTEX
8
L1D0
10
651
20
1400
0
VERTEX
8
L1D0
10
651
20
1300
0
SEQEND
0
POLYLINE
8
L1D0
70
1
40
0
41
0
66
1
0
VERTEX
8
L1D0
10
691
20
1300
0
VERTEX
8
L1D0
10
691
20
1400
0
VERTEX
8
L1D0
10
696
20
1400
0
VERTEX
8
L1D0
10
696
20
1300
0
SEQEND
0
POLYLINE
8
L1D0
70
1
40
0
41
0
66
1
0
VERTEX
8
L1D0
10
441
20
1300
0
VERTEX
8
L1D0
10
441
20
1400
0
VERTEX
8
L1D0
10
461
20
1400
0
VERTEX
8
L1D0
10
461
20
1300
0
SEQEND
0
ENDSEC
0
EOF
